<svg xmlns="http://www.w3.org/2000/svg" xmlns:xlink="http://www.w3.org/1999/xlink" contentStyleType="text/css" data-diagram-type="TIMING" height="806px" preserveAspectRatio="none" style="width:2291px;height:806px;background:#FFFFFF;" version="1.1" viewBox="0 0 2291 806" width="2291px" zoomAndPan="magnify"><?plantuml 1.2026.6?><defs/><g><g class="title" data-source-line="25"><text fill="#000000" font-family="'Inter, Helvetica, Arial, sans-serif'" font-size="22" font-weight="700" lengthAdjust="spacing" textLength="967.71" x="660.645" y="35.4209">Robo67 &#8212; Peg-in-Hole: z-H&#246;he &amp; Kraft pro Phase (aktiv runter / halten / hoch)</text></g><line style="stroke:#000000;stroke-width:1;" x1="15" x2="15" y1="61.6094" y2="331.4531"/><line style="stroke:#000000;stroke-width:1;" x1="2275" x2="2275" y1="61.6094" y2="331.4531"/><rect fill="#FFF3C4" height="269.8438" style="stroke:none;stroke-width:1;" width="550" x="170" y="61.6094"/><rect fill="#DDEBF7" height="269.8438" style="stroke:none;stroke-width:1;" width="650" x="720" y="61.6094"/><rect fill="#E2E8D9" height="269.8438" style="stroke:none;stroke-width:1;" width="400" x="1370" y="61.6094"/><line style="stroke:#000000;stroke-width:0.5;stroke-dasharray:3,5;" x1="20" x2="20" y1="61.6094" y2="331.4531"/><line style="stroke:#000000;stroke-width:0.5;stroke-dasharray:3,5;" x1="70" x2="70" y1="61.6094" y2="331.4531"/><line style="stroke:#000000;stroke-width:0.5;stroke-dasharray:3,5;" x1="120" x2="120" y1="61.6094" y2="331.4531"/><line style="stroke:#000000;stroke-width:0.5;stroke-dasharray:3,5;" x1="170" x2="170" y1="61.6094" y2="331.4531"/><line style="stroke:#000000;stroke-width:0.5;stroke-dasharray:3,5;" x1="220" x2="220" y1="61.6094" y2="331.4531"/><line style="stroke:#000000;stroke-width:0.5;stroke-dasharray:3,5;" x1="270" x2="270" y1="61.6094" y2="331.4531"/><line style="stroke:#000000;stroke-width:0.5;stroke-dasharray:3,5;" x1="320" x2="320" y1="61.6094" y2="331.4531"/><line style="stroke:#000000;stroke-width:0.5;stroke-dasharray:3,5;" x1="370" x2="370" y1="61.6094" y2="331.4531"/><line style="stroke:#000000;stroke-width:0.5;stroke-dasharray:3,5;" x1="420" x2="420" y1="61.6094" y2="331.4531"/><line style="stroke:#000000;stroke-width:0.5;stroke-dasharray:3,5;" x1="470" x2="470" y1="61.6094" y2="331.4531"/><line style="stroke:#000000;stroke-width:0.5;stroke-dasharray:3,5;" x1="520" x2="520" y1="61.6094" y2="331.4531"/><line style="stroke:#000000;stroke-width:0.5;stroke-dasharray:3,5;" x1="570" x2="570" y1="61.6094" y2="331.4531"/><line style="stroke:#000000;stroke-width:0.5;stroke-dasharray:3,5;" x1="620" x2="620" y1="61.6094" y2="331.4531"/><line style="stroke:#000000;stroke-width:0.5;stroke-dasharray:3,5;" x1="670" x2="670" y1="61.6094" y2="331.4531"/><line style="stroke:#000000;stroke-width:0.5;stroke-dasharray:3,5;" x1="720" x2="720" y1="61.6094" y2="331.4531"/><line style="stroke:#000000;stroke-width:0.5;stroke-dasharray:3,5;" x1="770" x2="770" y1="61.6094" y2="331.4531"/><line style="stroke:#000000;stroke-width:0.5;stroke-dasharray:3,5;" x1="820" x2="820" y1="61.6094" y2="331.4531"/><line style="stroke:#000000;stroke-width:0.5;stroke-dasharray:3,5;" x1="870" x2="870" y1="61.6094" y2="331.4531"/><line style="stroke:#000000;stroke-width:0.5;stroke-dasharray:3,5;" x1="920" x2="920" y1="61.6094" y2="331.4531"/><line style="stroke:#000000;stroke-width:0.5;stroke-dasharray:3,5;" x1="970" x2="970" y1="61.6094" y2="331.4531"/><line style="stroke:#000000;stroke-width:0.5;stroke-dasharray:3,5;" x1="1020" x2="1020" y1="61.6094" y2="331.4531"/><line style="stroke:#000000;stroke-width:0.5;stroke-dasharray:3,5;" x1="1070" x2="1070" y1="61.6094" y2="331.4531"/><line style="stroke:#000000;stroke-width:0.5;stroke-dasharray:3,5;" x1="1120" x2="1120" y1="61.6094" y2="331.4531"/><line style="stroke:#000000;stroke-width:0.5;stroke-dasharray:3,5;" x1="1170" x2="1170" y1="61.6094" y2="331.4531"/><line style="stroke:#000000;stroke-width:0.5;stroke-dasharray:3,5;" x1="1220" x2="1220" y1="61.6094" y2="331.4531"/><line style="stroke:#000000;stroke-width:0.5;stroke-dasharray:3,5;" x1="1270" x2="1270" y1="61.6094" y2="331.4531"/><line style="stroke:#000000;stroke-width:0.5;stroke-dasharray:3,5;" x1="1320" x2="1320" y1="61.6094" y2="331.4531"/><line style="stroke:#000000;stroke-width:0.5;stroke-dasharray:3,5;" x1="1370" x2="1370" y1="61.6094" y2="331.4531"/><line style="stroke:#000000;stroke-width:0.5;stroke-dasharray:3,5;" x1="1420" x2="1420" y1="61.6094" y2="331.4531"/><line style="stroke:#000000;stroke-width:0.5;stroke-dasharray:3,5;" x1="1470" x2="1470" y1="61.6094" y2="331.4531"/><line style="stroke:#000000;stroke-width:0.5;stroke-dasharray:3,5;" x1="1520" x2="1520" y1="61.6094" y2="331.4531"/><line style="stroke:#000000;stroke-width:0.5;stroke-dasharray:3,5;" x1="1570" x2="1570" y1="61.6094" y2="331.4531"/><line style="stroke:#000000;stroke-width:0.5;stroke-dasharray:3,5;" x1="1620" x2="1620" y1="61.6094" y2="331.4531"/><line style="stroke:#000000;stroke-width:0.5;stroke-dasharray:3,5;" x1="1670" x2="1670" y1="61.6094" y2="331.4531"/><line style="stroke:#000000;stroke-width:0.5;stroke-dasharray:3,5;" x1="1720" x2="1720" y1="61.6094" y2="331.4531"/><line style="stroke:#000000;stroke-width:0.5;stroke-dasharray:3,5;" x1="1770" x2="1770" y1="61.6094" y2="331.4531"/><line style="stroke:#000000;stroke-width:0.5;stroke-dasharray:3,5;" x1="1820" x2="1820" y1="61.6094" y2="331.4531"/><line style="stroke:#000000;stroke-width:0.5;stroke-dasharray:3,5;" x1="1870" x2="1870" y1="61.6094" y2="331.4531"/><line style="stroke:#000000;stroke-width:0.5;stroke-dasharray:3,5;" x1="1920" x2="1920" y1="61.6094" y2="331.4531"/><line style="stroke:#000000;stroke-width:0.5;stroke-dasharray:3,5;" x1="1970" x2="1970" y1="61.6094" y2="331.4531"/><line style="stroke:#000000;stroke-width:0.5;stroke-dasharray:3,5;" x1="2020" x2="2020" y1="61.6094" y2="331.4531"/><line style="stroke:#000000;stroke-width:0.5;stroke-dasharray:3,5;" x1="2070" x2="2070" y1="61.6094" y2="331.4531"/><line style="stroke:#000000;stroke-width:0.5;stroke-dasharray:3,5;" x1="2120" x2="2120" y1="61.6094" y2="331.4531"/><line style="stroke:#000000;stroke-width:0.5;stroke-dasharray:3,5;" x1="2170" x2="2170" y1="61.6094" y2="331.4531"/><line style="stroke:#000000;stroke-width:0.5;stroke-dasharray:3,5;" x1="2220" x2="2220" y1="61.6094" y2="331.4531"/><line style="stroke:#000000;stroke-width:0.5;stroke-dasharray:3,5;" x1="2270" x2="2270" y1="61.6094" y2="331.4531"/><line style="stroke:#000000;stroke-width:1;" x1="15" x2="2275" y1="61.6094" y2="61.6094"/><text fill="#000000" font-family="'Inter, Helvetica, Arial, sans-serif'" font-size="12" font-weight="700" lengthAdjust="spacing" textLength="40.7168" x="20" y="72.748">Phase</text><line style="stroke:#000000;stroke-width:1;" x1="15" x2="61.7168" y1="76.5781" y2="76.5781"/><line style="stroke:#000000;stroke-width:1;" x1="61.7168" x2="71.7168" y1="76.5781" y2="61.6094"/><polygon fill="#FFFFFF" points="32,81.5781,158,81.5781,170,93.5781,158,105.5781,32,105.5781,20,93.5781" style="stroke:#000000;stroke-width:1;stroke-linejoin:miter;stroke-miterlimit:10;"/><polygon fill="#FFFFFF" points="182,81.5781,708,81.5781,720,93.5781,708,105.5781,182,105.5781,170,93.5781" style="stroke:#000000;stroke-width:1;stroke-linejoin:miter;stroke-miterlimit:10;"/><polygon fill="#FFFFFF" points="732,81.5781,1358,81.5781,1370,93.5781,1358,105.5781,732,105.5781,720,93.5781" style="stroke:#000000;stroke-width:1;stroke-linejoin:miter;stroke-miterlimit:10;"/><polygon fill="#FFFFFF" points="1382,81.5781,1758,81.5781,1770,93.5781,1758,105.5781,1382,105.5781,1370,93.5781" style="stroke:#000000;stroke-width:1;stroke-linejoin:miter;stroke-miterlimit:10;"/><polygon fill="#FFFFFF" points="1782,81.5781,2058,81.5781,2070,93.5781,2058,105.5781,1782,105.5781,1770,93.5781" style="stroke:#000000;stroke-width:1;stroke-linejoin:miter;stroke-miterlimit:10;"/><polygon fill="#FFFFFF" points="2082,81.5781,2270,81.5781,2270,105.5781,2082,105.5781,2070,93.5781" style="stroke:#FFFFFF;stroke-width:1;stroke-linejoin:miter;stroke-miterlimit:10;"/><path d="M2270,81.5781 L2082,81.5781 L2070,93.5781 L2082,105.5781 L2270,105.5781" fill="#FFFFFF" style="stroke:#000000;stroke-width:1;"/><text fill="#000000" font-family="'Inter, Helvetica, Arial, sans-serif'" font-size="12" font-weight="700" lengthAdjust="spacing" textLength="91.7461" x="49.127" y="97.7324">MOVE_ABOVE</text><text fill="#000000" font-family="'Inter, Helvetica, Arial, sans-serif'" font-size="12" font-weight="700" lengthAdjust="spacing" textLength="157.7109" x="366.1445" y="97.7324">DESCEND_TO_CONTACT</text><text fill="#000000" font-family="'Inter, Helvetica, Arial, sans-serif'" font-size="12" font-weight="700" lengthAdjust="spacing" textLength="108.293" x="990.8535" y="97.7324">SEARCH_SPIRAL</text><text fill="#000000" font-family="'Inter, Helvetica, Arial, sans-serif'" font-size="12" font-weight="700" lengthAdjust="spacing" textLength="91.998" x="1524.001" y="97.7324">PUSH_INSERT</text><text fill="#000000" font-family="'Inter, Helvetica, Arial, sans-serif'" font-size="12" font-weight="700" lengthAdjust="spacing" textLength="61.1426" x="1889.4287" y="97.7324">RETRACT</text><text fill="#000000" font-family="'Inter, Helvetica, Arial, sans-serif'" font-size="12" font-weight="700" lengthAdjust="spacing" textLength="38.4023" x="2082" y="97.7324">DONE</text><line style="stroke:#000000;stroke-width:1;" x1="15" x2="2275" y1="115.5781" y2="115.5781"/><text fill="#000000" font-family="'Inter, Helvetica, Arial, sans-serif'" font-size="12" font-weight="700" lengthAdjust="spacing" textLength="82.7402" x="20" y="126.7168">z-Bewegung</text><line style="stroke:#000000;stroke-width:1;" x1="15" x2="103.7402" y1="130.5469" y2="130.5469"/><line style="stroke:#000000;stroke-width:1;" x1="103.7402" x2="113.7402" y1="130.5469" y2="115.5781"/><polygon fill="#FFFFFF" points="32,135.5469,158,135.5469,170,147.5469,158,159.5469,32,159.5469,20,147.5469" style="stroke:#000000;stroke-width:1;stroke-linejoin:miter;stroke-miterlimit:10;"/><polygon fill="#FFFFFF" points="182,135.5469,708,135.5469,720,147.5469,708,159.5469,182,159.5469,170,147.5469" style="stroke:#000000;stroke-width:1;stroke-linejoin:miter;stroke-miterlimit:10;"/><polygon fill="#FFFFFF" points="732,135.5469,1358,135.5469,1370,147.5469,1358,159.5469,732,159.5469,720,147.5469" style="stroke:#000000;stroke-width:1;stroke-linejoin:miter;stroke-miterlimit:10;"/><polygon fill="#FFFFFF" points="1382,135.5469,1758,135.5469,1770,147.5469,1758,159.5469,1382,159.5469,1370,147.5469" style="stroke:#000000;stroke-width:1;stroke-linejoin:miter;stroke-miterlimit:10;"/><polygon fill="#FFFFFF" points="1782,135.5469,2058,135.5469,2070,147.5469,2058,159.5469,1782,159.5469,1770,147.5469" style="stroke:#000000;stroke-width:1;stroke-linejoin:miter;stroke-miterlimit:10;"/><polygon fill="#FFFFFF" points="2082,135.5469,2270,135.5469,2270,159.5469,2082,159.5469,2070,147.5469" style="stroke:#FFFFFF;stroke-width:1;stroke-linejoin:miter;stroke-miterlimit:10;"/><path d="M2270,135.5469 L2082,135.5469 L2070,147.5469 L2082,159.5469 L2270,159.5469" fill="#FFFFFF" style="stroke:#000000;stroke-width:1;"/><text fill="#000000" font-family="'Inter, Helvetica, Arial, sans-serif'" font-size="12" font-weight="700" lengthAdjust="spacing" textLength="105.7559" x="42.1221" y="151.7012">XY-Anflug (frei)</text><text fill="#000000" font-family="'Inter, Helvetica, Arial, sans-serif'" font-size="12" font-weight="700" lengthAdjust="spacing" textLength="99.3516" x="395.3242" y="151.7012">AKTIV RUNTER</text><text fill="#000000" font-family="'Inter, Helvetica, Arial, sans-serif'" font-size="12" font-weight="700" lengthAdjust="spacing" textLength="185.0098" x="952.4951" y="151.7012">H&#214;HE HALTEN + XY-Spirale</text><text fill="#000000" font-family="'Inter, Helvetica, Arial, sans-serif'" font-size="12" font-weight="700" lengthAdjust="spacing" textLength="122.3086" x="1508.8457" y="151.7012">DROP &#8594; einf&#252;hren</text><text fill="#000000" font-family="'Inter, Helvetica, Arial, sans-serif'" font-size="12" font-weight="700" lengthAdjust="spacing" textLength="83.7949" x="1878.1025" y="151.7012">AKTIV HOCH</text><text fill="#000000" font-family="'Inter, Helvetica, Arial, sans-serif'" font-size="12" font-weight="700" lengthAdjust="spacing" textLength="43.1719" x="2082" y="151.7012">halten</text><line style="stroke:#000000;stroke-width:1;" x1="15" x2="2275" y1="169.5469" y2="169.5469"/><text fill="#000000" font-family="'Inter, Helvetica, Arial, sans-serif'" font-size="12" font-weight="700" lengthAdjust="spacing" textLength="201.416" x="20" y="180.6855">z_cmd  (Equilibrium-Sollh&#246;he)</text><line style="stroke:#000000;stroke-width:1;" x1="15" x2="222.416" y1="184.5156" y2="184.5156"/><line style="stroke:#000000;stroke-width:1;" x1="222.416" x2="232.416" y1="184.5156" y2="169.5469"/><polygon fill="#FFFFFF" points="32,189.5156,158,189.5156,170,201.5156,158,213.5156,32,213.5156,20,201.5156" style="stroke:#000000;stroke-width:1;stroke-linejoin:miter;stroke-miterlimit:10;"/><polygon fill="#FFFFFF" points="182,189.5156,708,189.5156,720,201.5156,708,213.5156,182,213.5156,170,201.5156" style="stroke:#000000;stroke-width:1;stroke-linejoin:miter;stroke-miterlimit:10;"/><polygon fill="#FFFFFF" points="732,189.5156,1358,189.5156,1370,201.5156,1358,213.5156,732,213.5156,720,201.5156" style="stroke:#000000;stroke-width:1;stroke-linejoin:miter;stroke-miterlimit:10;"/><polygon fill="#FFFFFF" points="1382,189.5156,1758,189.5156,1770,201.5156,1758,213.5156,1382,213.5156,1370,201.5156" style="stroke:#000000;stroke-width:1;stroke-linejoin:miter;stroke-miterlimit:10;"/><polygon fill="#FFFFFF" points="1782,189.5156,2058,189.5156,2070,201.5156,2058,213.5156,1782,213.5156,1770,201.5156" style="stroke:#000000;stroke-width:1;stroke-linejoin:miter;stroke-miterlimit:10;"/><polygon fill="#FFFFFF" points="2082,189.5156,2270,189.5156,2270,213.5156,2082,213.5156,2070,201.5156" style="stroke:#FFFFFF;stroke-width:1;stroke-linejoin:miter;stroke-miterlimit:10;"/><path d="M2270,189.5156 L2082,189.5156 L2070,201.5156 L2082,213.5156 L2270,213.5156" fill="#FFFFFF" style="stroke:#000000;stroke-width:1;"/><text fill="#000000" font-family="'Inter, Helvetica, Arial, sans-serif'" font-size="12" font-weight="700" lengthAdjust="spacing" textLength="161.4961" x="14.252" y="205.6699">Socket +5cm (Standoff)</text><text fill="#000000" font-family="'Inter, Helvetica, Arial, sans-serif'" font-size="12" font-weight="700" lengthAdjust="spacing" textLength="130.5879" x="379.7061" y="205.6699">Socket &#8722;5cm  (tief)</text><text fill="#000000" font-family="'Inter, Helvetica, Arial, sans-serif'" font-size="12" font-weight="700" lengthAdjust="spacing" textLength="150.1875" x="969.9063" y="205.6699">contact_z &#8722; press_gap</text><text fill="#000000" font-family="'Inter, Helvetica, Arial, sans-serif'" font-size="12" font-weight="700" lengthAdjust="spacing" textLength="152.8477" x="1493.5762" y="205.6699">contact_z &#8722; insert_gap</text><text fill="#000000" font-family="'Inter, Helvetica, Arial, sans-serif'" font-size="12" font-weight="700" lengthAdjust="spacing" textLength="161.4961" x="1839.252" y="205.6699">Socket +5cm (Standoff)</text><text fill="#000000" font-family="'Inter, Helvetica, Arial, sans-serif'" font-size="12" font-weight="700" lengthAdjust="spacing" textLength="58.2949" x="2082" y="205.6699">Standoff</text><line style="stroke:#000000;stroke-width:1;" x1="15" x2="2275" y1="223.5156" y2="223.5156"/><text fill="#000000" font-family="'Inter, Helvetica, Arial, sans-serif'" font-size="12" font-weight="700" lengthAdjust="spacing" textLength="126.4512" x="20" y="234.6543">z_ee  (Ist-H&#246;he EE)</text><line style="stroke:#000000;stroke-width:1;" x1="15" x2="147.4512" y1="238.4844" y2="238.4844"/><line style="stroke:#000000;stroke-width:1;" x1="147.4512" x2="157.4512" y1="238.4844" y2="223.5156"/><polygon fill="#FFFFFF" points="32,243.4844,158,243.4844,170,255.4844,158,267.4844,32,267.4844,20,255.4844" style="stroke:#000000;stroke-width:1;stroke-linejoin:miter;stroke-miterlimit:10;"/><polygon fill="#FFFFFF" points="182,243.4844,508,243.4844,520,255.4844,508,267.4844,182,267.4844,170,255.4844" style="stroke:#000000;stroke-width:1;stroke-linejoin:miter;stroke-miterlimit:10;"/><polygon fill="#FFFFFF" points="532,243.4844,708,243.4844,720,255.4844,708,267.4844,532,267.4844,520,255.4844" style="stroke:#000000;stroke-width:1;stroke-linejoin:miter;stroke-miterlimit:10;"/><polygon fill="#FFFFFF" points="732,243.4844,1358,243.4844,1370,255.4844,1358,267.4844,732,267.4844,720,255.4844" style="stroke:#000000;stroke-width:1;stroke-linejoin:miter;stroke-miterlimit:10;"/><polygon fill="#FFFFFF" points="1382,243.4844,1558,243.4844,1570,255.4844,1558,267.4844,1382,267.4844,1370,255.4844" style="stroke:#000000;stroke-width:1;stroke-linejoin:miter;stroke-miterlimit:10;"/><polygon fill="#FFFFFF" points="1582,243.4844,1758,243.4844,1770,255.4844,1758,267.4844,1582,267.4844,1570,255.4844" style="stroke:#000000;stroke-width:1;stroke-linejoin:miter;stroke-miterlimit:10;"/><polygon fill="#FFFFFF" points="1782,243.4844,2058,243.4844,2070,255.4844,2058,267.4844,1782,267.4844,1770,255.4844" style="stroke:#000000;stroke-width:1;stroke-linejoin:miter;stroke-miterlimit:10;"/><polygon fill="#FFFFFF" points="2082,243.4844,2270,243.4844,2270,267.4844,2082,267.4844,2070,255.4844" style="stroke:#FFFFFF;stroke-width:1;stroke-linejoin:miter;stroke-miterlimit:10;"/><path d="M2270,243.4844 L2082,243.4844 L2070,255.4844 L2082,267.4844 L2270,267.4844" fill="#FFFFFF" style="stroke:#000000;stroke-width:1;"/><text fill="#000000" font-family="'Inter, Helvetica, Arial, sans-serif'" font-size="12" font-weight="700" lengthAdjust="spacing" textLength="81.2227" x="54.3887" y="259.6387">&#252;ber Socket</text><text fill="#000000" font-family="'Inter, Helvetica, Arial, sans-serif'" font-size="12" font-weight="700" lengthAdjust="spacing" textLength="33.5156" x="328.2422" y="259.6387">sinkt</text><text fill="#000000" font-family="'Inter, Helvetica, Arial, sans-serif'" font-size="16" font-weight="700" lengthAdjust="spacing" textLength="101.1406" x="569.4297" y="261.0234">Socket-Top</text><text fill="#000000" font-family="'Inter, Helvetica, Arial, sans-serif'" font-size="12" font-weight="700" lengthAdjust="spacing" textLength="142.0313" x="973.9844" y="259.6387">h&#228;lt @ Kontaktebene</text><text fill="#000000" font-family="'Inter, Helvetica, Arial, sans-serif'" font-size="12" font-weight="700" lengthAdjust="spacing" textLength="130.8398" x="1404.5801" y="259.6387">f&#228;llt in die Bohrung</text><text fill="#000000" font-family="'Inter, Helvetica, Arial, sans-serif'" font-size="12" font-weight="700" lengthAdjust="spacing" textLength="144.2813" x="1597.8594" y="259.6387">sitzt (&#8776; insert_depth)</text><text fill="#000000" font-family="'Inter, Helvetica, Arial, sans-serif'" font-size="12" font-weight="700" lengthAdjust="spacing" textLength="39.457" x="1900.2715" y="259.6387">steigt</text><text fill="#000000" font-family="'Inter, Helvetica, Arial, sans-serif'" font-size="12" font-weight="700" lengthAdjust="spacing" textLength="81.2227" x="2082" y="259.6387">&#252;ber Socket</text><line style="stroke:#000000;stroke-width:1;" x1="15" x2="2275" y1="277.4844" y2="277.4844"/><text fill="#000000" font-family="'Inter, Helvetica, Arial, sans-serif'" font-size="12" font-weight="700" lengthAdjust="spacing" textLength="133.3828" x="20" y="288.623">Fz = |Fz &#8722; Baseline|</text><line style="stroke:#000000;stroke-width:1;" x1="15" x2="154.3828" y1="292.4531" y2="292.4531"/><line style="stroke:#000000;stroke-width:1;" x1="154.3828" x2="164.3828" y1="292.4531" y2="277.4844"/><polygon fill="#FFFFFF" points="32,297.4531,158,297.4531,170,309.4531,158,321.4531,32,321.4531,20,309.4531" style="stroke:#000000;stroke-width:1;stroke-linejoin:miter;stroke-miterlimit:10;"/><polygon fill="#FFFFFF" points="182,297.4531,508,297.4531,520,309.4531,508,321.4531,182,321.4531,170,309.4531" style="stroke:#000000;stroke-width:1;stroke-linejoin:miter;stroke-miterlimit:10;"/><polygon fill="#FFFFFF" points="532,297.4531,708,297.4531,720,309.4531,708,321.4531,532,321.4531,520,309.4531" style="stroke:#000000;stroke-width:1;stroke-linejoin:miter;stroke-miterlimit:10;"/><polygon fill="#FFFFFF" points="732,297.4531,908,297.4531,920,309.4531,908,321.4531,732,321.4531,720,309.4531" style="stroke:#000000;stroke-width:1;stroke-linejoin:miter;stroke-miterlimit:10;"/><polygon fill="#FFFFFF" points="932,297.4531,1358,297.4531,1370,309.4531,1358,321.4531,932,321.4531,920,309.4531" style="stroke:#000000;stroke-width:1;stroke-linejoin:miter;stroke-miterlimit:10;"/><polygon fill="#FFFFFF" points="1382,297.4531,1558,297.4531,1570,309.4531,1558,321.4531,1382,321.4531,1370,309.4531" style="stroke:#000000;stroke-width:1;stroke-linejoin:miter;stroke-miterlimit:10;"/><polygon fill="#FFFFFF" points="1582,297.4531,1758,297.4531,1770,309.4531,1758,321.4531,1582,321.4531,1570,309.4531" style="stroke:#000000;stroke-width:1;stroke-linejoin:miter;stroke-miterlimit:10;"/><polygon fill="#FFFFFF" points="1782,297.4531,2058,297.4531,2070,309.4531,2058,321.4531,1782,321.4531,1770,309.4531" style="stroke:#000000;stroke-width:1;stroke-linejoin:miter;stroke-miterlimit:10;"/><polygon fill="#FFFFFF" points="2082,297.4531,2270,297.4531,2270,321.4531,2082,321.4531,2070,309.4531" style="stroke:#FFFFFF;stroke-width:1;stroke-linejoin:miter;stroke-miterlimit:10;"/><path d="M2270,297.4531 L2082,297.4531 L2070,309.4531 L2082,321.4531 L2270,321.4531" fill="#FFFFFF" style="stroke:#000000;stroke-width:1;"/><text fill="#000000" font-family="'Inter, Helvetica, Arial, sans-serif'" font-size="12" font-weight="700" lengthAdjust="spacing" textLength="110.2031" x="39.8984" y="313.6074">&#8776; Baseline (frei)</text><text fill="#000000" font-family="'Inter, Helvetica, Arial, sans-serif'" font-size="12" font-weight="700" lengthAdjust="spacing" textLength="71.666" x="309.167" y="313.6074">&#8776; Baseline</text><text fill="#000000" font-family="'Inter, Helvetica, Arial, sans-serif'" font-size="12" font-weight="700" lengthAdjust="spacing" textLength="53.6895" x="593.1553" y="313.6074">&#8593; steigt</text><text fill="#000000" font-family="'Inter, Helvetica, Arial, sans-serif'" font-size="12" font-weight="700" lengthAdjust="spacing" textLength="165.9316" x="737.0342" y="313.6074">&#8805; contact_fz &#8594; KONTAKT</text><text fill="#000000" font-family="'Inter, Helvetica, Arial, sans-serif'" font-size="12" font-weight="700" lengthAdjust="spacing" textLength="184.5352" x="1052.7324" y="313.6074">&#8776; press_force (Dauerpress)</text><text fill="#000000" font-family="'Inter, Helvetica, Arial, sans-serif'" font-size="12" font-weight="700" lengthAdjust="spacing" textLength="127.7988" x="1406.1006" y="313.6074">Einbruch (Peg frei)</text><text fill="#000000" font-family="'Inter, Helvetica, Arial, sans-serif'" font-size="12" font-weight="700" lengthAdjust="spacing" textLength="135.6621" x="1602.1689" y="313.6074">(sim) &#8593; insert_press</text><text fill="#000000" font-family="'Inter, Helvetica, Arial, sans-serif'" font-size="12" font-weight="700" lengthAdjust="spacing" textLength="22.582" x="1908.709" y="313.6074">&#8776; 0</text><text fill="#000000" font-family="'Inter, Helvetica, Arial, sans-serif'" font-size="12" font-weight="700" lengthAdjust="spacing" textLength="22.582" x="2082" y="313.6074">&#8776; 0</text><line style="stroke:#000000;stroke-width:1;" x1="20" x2="20" y1="331.4531" y2="336.4531"/><line style="stroke:#000000;stroke-width:1;" x1="70" x2="70" y1="331.4531" y2="336.4531"/><line style="stroke:#000000;stroke-width:1;" x1="120" x2="120" y1="331.4531" y2="336.4531"/><line style="stroke:#000000;stroke-width:1;" x1="170" x2="170" y1="331.4531" y2="336.4531"/><line style="stroke:#000000;stroke-width:1;" x1="220" x2="220" y1="331.4531" y2="336.4531"/><line style="stroke:#000000;stroke-width:1;" x1="270" x2="270" y1="331.4531" y2="336.4531"/><line style="stroke:#000000;stroke-width:1;" x1="320" x2="320" y1="331.4531" y2="336.4531"/><line style="stroke:#000000;stroke-width:1;" x1="370" x2="370" y1="331.4531" y2="336.4531"/><line style="stroke:#000000;stroke-width:1;" x1="420" x2="420" y1="331.4531" y2="336.4531"/><line style="stroke:#000000;stroke-width:1;" x1="470" x2="470" y1="331.4531" y2="336.4531"/><line style="stroke:#000000;stroke-width:1;" x1="520" x2="520" y1="331.4531" y2="336.4531"/><line style="stroke:#000000;stroke-width:1;" x1="570" x2="570" y1="331.4531" y2="336.4531"/><line style="stroke:#000000;stroke-width:1;" x1="620" x2="620" y1="331.4531" y2="336.4531"/><line style="stroke:#000000;stroke-width:1;" x1="670" x2="670" y1="331.4531" y2="336.4531"/><line style="stroke:#000000;stroke-width:1;" x1="720" x2="720" y1="331.4531" y2="336.4531"/><line style="stroke:#000000;stroke-width:1;" x1="770" x2="770" y1="331.4531" y2="336.4531"/><line style="stroke:#000000;stroke-width:1;" x1="820" x2="820" y1="331.4531" y2="336.4531"/><line style="stroke:#000000;stroke-width:1;" x1="870" x2="870" y1="331.4531" y2="336.4531"/><line style="stroke:#000000;stroke-width:1;" x1="920" x2="920" y1="331.4531" y2="336.4531"/><line style="stroke:#000000;stroke-width:1;" x1="970" x2="970" y1="331.4531" y2="336.4531"/><line style="stroke:#000000;stroke-width:1;" x1="1020" x2="1020" y1="331.4531" y2="336.4531"/><line style="stroke:#000000;stroke-width:1;" x1="1070" x2="1070" y1="331.4531" y2="336.4531"/><line style="stroke:#000000;stroke-width:1;" x1="1120" x2="1120" y1="331.4531" y2="336.4531"/><line style="stroke:#000000;stroke-width:1;" x1="1170" x2="1170" y1="331.4531" y2="336.4531"/><line style="stroke:#000000;stroke-width:1;" x1="1220" x2="1220" y1="331.4531" y2="336.4531"/><line style="stroke:#000000;stroke-width:1;" x1="1270" x2="1270" y1="331.4531" y2="336.4531"/><line style="stroke:#000000;stroke-width:1;" x1="1320" x2="1320" y1="331.4531" y2="336.4531"/><line style="stroke:#000000;stroke-width:1;" x1="1370" x2="1370" y1="331.4531" y2="336.4531"/><line style="stroke:#000000;stroke-width:1;" x1="1420" x2="1420" y1="331.4531" y2="336.4531"/><line style="stroke:#000000;stroke-width:1;" x1="1470" x2="1470" y1="331.4531" y2="336.4531"/><line style="stroke:#000000;stroke-width:1;" x1="1520" x2="1520" y1="331.4531" y2="336.4531"/><line style="stroke:#000000;stroke-width:1;" x1="1570" x2="1570" y1="331.4531" y2="336.4531"/><line style="stroke:#000000;stroke-width:1;" x1="1620" x2="1620" y1="331.4531" y2="336.4531"/><line style="stroke:#000000;stroke-width:1;" x1="1670" x2="1670" y1="331.4531" y2="336.4531"/><line style="stroke:#000000;stroke-width:1;" x1="1720" x2="1720" y1="331.4531" y2="336.4531"/><line style="stroke:#000000;stroke-width:1;" x1="1770" x2="1770" y1="331.4531" y2="336.4531"/><line style="stroke:#000000;stroke-width:1;" x1="1820" x2="1820" y1="331.4531" y2="336.4531"/><line style="stroke:#000000;stroke-width:1;" x1="1870" x2="1870" y1="331.4531" y2="336.4531"/><line style="stroke:#000000;stroke-width:1;" x1="1920" x2="1920" y1="331.4531" y2="336.4531"/><line style="stroke:#000000;stroke-width:1;" x1="1970" x2="1970" y1="331.4531" y2="336.4531"/><line style="stroke:#000000;stroke-width:1;" x1="2020" x2="2020" y1="331.4531" y2="336.4531"/><line style="stroke:#000000;stroke-width:1;" x1="2070" x2="2070" y1="331.4531" y2="336.4531"/><line style="stroke:#000000;stroke-width:1;" x1="2120" x2="2120" y1="331.4531" y2="336.4531"/><line style="stroke:#000000;stroke-width:1;" x1="2170" x2="2170" y1="331.4531" y2="336.4531"/><line style="stroke:#000000;stroke-width:1;" x1="2220" x2="2220" y1="331.4531" y2="336.4531"/><line style="stroke:#000000;stroke-width:1;" x1="2270" x2="2270" y1="331.4531" y2="336.4531"/><line style="stroke:#000000;stroke-width:1;" x1="20" x2="2270" y1="331.4531" y2="331.4531"/><text fill="#000000" font-family="'Inter, Helvetica, Arial, sans-serif'" font-size="12" lengthAdjust="spacing" textLength="7.6348" x="16.1826" y="348.5918">0</text><text fill="#000000" font-family="'Inter, Helvetica, Arial, sans-serif'" font-size="12" lengthAdjust="spacing" textLength="15.2695" x="162.3652" y="348.5918">12</text><text fill="#000000" font-family="'Inter, Helvetica, Arial, sans-serif'" font-size="12" lengthAdjust="spacing" textLength="15.2695" x="512.3652" y="348.5918">40</text><text fill="#000000" font-family="'Inter, Helvetica, Arial, sans-serif'" font-size="12" lengthAdjust="spacing" textLength="15.2695" x="712.3652" y="348.5918">56</text><text fill="#000000" font-family="'Inter, Helvetica, Arial, sans-serif'" font-size="12" lengthAdjust="spacing" textLength="15.2695" x="912.3652" y="348.5918">72</text><text fill="#000000" font-family="'Inter, Helvetica, Arial, sans-serif'" font-size="12" lengthAdjust="spacing" textLength="22.9043" x="1358.5479" y="348.5918">108</text><text fill="#000000" font-family="'Inter, Helvetica, Arial, sans-serif'" font-size="12" lengthAdjust="spacing" textLength="22.9043" x="1558.5479" y="348.5918">124</text><text fill="#000000" font-family="'Inter, Helvetica, Arial, sans-serif'" font-size="12" lengthAdjust="spacing" textLength="22.9043" x="1758.5479" y="348.5918">140</text><text fill="#000000" font-family="'Inter, Helvetica, Arial, sans-serif'" font-size="12" lengthAdjust="spacing" textLength="22.9043" x="2058.5479" y="348.5918">164</text><text fill="#000000" font-family="'Inter, Helvetica, Arial, sans-serif'" font-size="12" lengthAdjust="spacing" textLength="22.9043" x="2208.5479" y="348.5918">176</text><line style="stroke:#000000;stroke-width:1;stroke-dasharray:4,4;" x1="170" x2="170" y1="61.6094" y2="331.4531"/><line style="stroke:#000000;stroke-width:1;stroke-dasharray:4,4;" x1="720" x2="720" y1="61.6094" y2="331.4531"/><text fill="#000000" font-family="Inter, Helvetica, Arial, sans-serif" font-size="12" lengthAdjust="spacing" textLength="212.3613" x="173" y="74.748">DESCEND - aktiv runter bis Kontakt</text><line style="stroke:#000000;stroke-width:1;stroke-dasharray:4,4;" x1="720" x2="720" y1="61.6094" y2="331.4531"/><line style="stroke:#000000;stroke-width:1;stroke-dasharray:4,4;" x1="1370" x2="1370" y1="61.6094" y2="331.4531"/><text fill="#000000" font-family="Inter, Helvetica, Arial, sans-serif" font-size="12" lengthAdjust="spacing" textLength="196.7813" x="723" y="74.748">SPIRAL - H&#246;he halten, XY suchen</text><line style="stroke:#000000;stroke-width:1;stroke-dasharray:4,4;" x1="1370" x2="1370" y1="61.6094" y2="331.4531"/><line style="stroke:#000000;stroke-width:1;stroke-dasharray:4,4;" x1="1770" x2="1770" y1="61.6094" y2="331.4531"/><text fill="#000000" font-family="Inter, Helvetica, Arial, sans-serif" font-size="12" lengthAdjust="spacing" textLength="259.5996" x="1373" y="74.748">PUSH/RELEASE - einf&#252;hren bzw. Greifer auf</text><g class="legend" data-source-line="92"><rect fill="none" height="433.7188" rx="7.5" ry="7.5" style="stroke:#000000;stroke-width:1;" width="905.7402" x="691.6299" y="360.4219"/><line style="stroke:#000000;stroke-width:1;" x1="691.6299" x2="978.8311" y1="373.5703" y2="373.5703"/><line style="stroke:#000000;stroke-width:1;" x1="691.6299" x2="978.8311" y1="375.5703" y2="375.5703"/><text fill="#000000" font-family="'Inter, Helvetica, Arial, sans-serif'" font-size="14" font-weight="700" lengthAdjust="spacing" textLength="321.5898" x="983.7051" y="377.917">Analyse: wann aktiv runter, wann halten</text><line style="stroke:#000000;stroke-width:1;" x1="1310.1689" x2="1597.3701" y1="373.5703" y2="373.5703"/><line style="stroke:#000000;stroke-width:1;" x1="1310.1689" x2="1597.3701" y1="375.5703" y2="375.5703"/><text fill="#000000" font-family="'Inter, Helvetica, Arial, sans-serif'" font-size="14" font-weight="700" lengthAdjust="spacing" textLength="183.9961" x="696.6299" y="394.7139">DESCEND_TO_CONTACT</text><text fill="#000000" font-family="'Inter, Helvetica, Arial, sans-serif'" font-size="14" font-weight="700" lengthAdjust="spacing" textLength="472.2813" x="885.5" y="394.7139">&#8212; *aktiv runter.* Der Adapter kommandiert das Equilibrium</text><text fill="#000000" font-family="'Inter, Helvetica, Arial, sans-serif'" font-size="14" font-weight="700" lengthAdjust="spacing" textLength="27.0771" x="1362.6553" y="394.7139">tief</text><text fill="#000000" font-family="'Inter, Helvetica, Arial, sans-serif'" font-size="14" font-weight="700" lengthAdjust="spacing" textLength="25.5049" x="1394.6064" y="394.7139">auf</text><text fill="#000000" font-family="'Inter, Helvetica, Arial, sans-serif'" font-size="14" font-weight="700" lengthAdjust="spacing" textLength="743.6953" x="696.6299" y="411.0107">`socket_top &#8722; max_press_depth` (&#8776; &#8722;5 cm). Weil das Ziel unter der Oberfl&#228;che liegt, sinkt der</text><text fill="#000000" font-family="'Inter, Helvetica, Arial, sans-serif'" font-size="14" font-weight="700" lengthAdjust="spacing" textLength="765.1875" x="696.6299" y="427.3076">weiche Arm im Freiraum ungebremst (Schritt &#8804; `v_max/rate`) und baut beim Ber&#252;hren Kraft auf.</text><text fill="#000000" font-family="'Inter, Helvetica, Arial, sans-serif'" font-size="14" font-weight="700" lengthAdjust="spacing" textLength="132.8428" x="696.6299" y="443.6045">Stopp-Kriterium:</text><text fill="#000000" font-family="'Inter, Helvetica, Arial, sans-serif'" font-size="14" font-weight="700" lengthAdjust="spacing" textLength="632.4951" x="834.3467" y="443.6045">`|Fz &#8722; Baseline| &#8805; contact_fz` (Default 4 N) &#8594; `contact_z = z_ee` (= Socket-Top).</text><text fill="#000000" font-family="'Inter, Helvetica, Arial, sans-serif'" font-size="14" font-weight="700" lengthAdjust="spacing" textLength="842.4814" x="696.6299" y="459.9014">Die Fz-Baseline ist eine EMA, die NUR in MOVE_ABOVE/Freiraum mitl&#228;uft und ab Kontakt eingefroren wird.</text><text fill="#000000" font-family="'Inter, Helvetica, Arial, sans-serif'" font-size="14" font-weight="700" lengthAdjust="spacing" textLength="4.874" x="696.6299" y="476.1982">&#160;</text><text fill="#000000" font-family="'Inter, Helvetica, Arial, sans-serif'" font-size="14" font-weight="700" lengthAdjust="spacing" textLength="126.3418" x="696.6299" y="492.4951">SEARCH_SPIRAL</text><text fill="#000000" font-family="'Inter, Helvetica, Arial, sans-serif'" font-size="14" font-weight="700" lengthAdjust="spacing" textLength="721.7178" x="827.8457" y="492.4951">&#8212; *H&#246;he halten.* `z_cmd = contact_z &#8722; press_gap` mit `press_gap = press_force / pos_stiff`</text><text fill="#000000" font-family="'Inter, Helvetica, Arial, sans-serif'" font-size="14" font-weight="700" lengthAdjust="spacing" textLength="770.9229" x="696.6299" y="508.792">(z. B. 18 N / 2000 &#8658; 9 mm). Das Equilibrium liegt nur knapp unter der Kontaktebene &#8594; konstanter</text><text fill="#000000" font-family="'Inter, Helvetica, Arial, sans-serif'" font-size="14" font-weight="700" lengthAdjust="spacing" textLength="105.1299" x="696.6299" y="525.0889">sanfter Press</text><text fill="#000000" font-family="'Inter, Helvetica, Arial, sans-serif'" font-size="14" font-weight="700" lengthAdjust="spacing" textLength="739.4844" x="806.6338" y="525.0889">(~`press_force`), w&#228;hrend die Oberfl&#228;che das weitere Absinken blockiert: z bleibt ~konstant.</text><text fill="#000000" font-family="'Inter, Helvetica, Arial, sans-serif'" font-size="14" font-weight="700" lengthAdjust="spacing" textLength="202.8223" x="696.6299" y="541.3857">Bewegung passiert nur in</text><text fill="#000000" font-family="'Inter, Helvetica, Arial, sans-serif'" font-size="14" font-weight="700" lengthAdjust="spacing" textLength="20.9316" x="904.3262" y="541.3857">XY</text><text fill="#000000" font-family="'Inter, Helvetica, Arial, sans-serif'" font-size="14" font-weight="700" lengthAdjust="spacing" textLength="479.2061" x="930.1318" y="541.3857">(Archimedes-Spirale, Pitch 2.5 mm, bis `spiral_max_radius`).</text><text fill="#000000" font-family="'Inter, Helvetica, Arial, sans-serif'" font-size="14" font-weight="700" lengthAdjust="spacing" textLength="82.8447" x="696.6299" y="557.6826">&#220;bergang:</text><text fill="#000000" font-family="'Inter, Helvetica, Arial, sans-serif'" font-size="14" font-weight="700" lengthAdjust="spacing" textLength="808.0215" x="784.3486" y="557.6826">sobald `z_ee &lt; contact_z &#8722; drop` (FSM 4 mm bzw. `--insert-drop-trigger` 3 mm) &#8594; Peg in der Bohrung.</text><text fill="#000000" font-family="'Inter, Helvetica, Arial, sans-serif'" font-size="14" font-weight="700" lengthAdjust="spacing" textLength="4.874" x="696.6299" y="573.9795">&#160;</text><text fill="#000000" font-family="'Inter, Helvetica, Arial, sans-serif'" font-size="14" font-weight="700" lengthAdjust="spacing" textLength="107.3311" x="696.6299" y="590.2764">PUSH_INSERT</text><text fill="#000000" font-family="'Inter, Helvetica, Arial, sans-serif'" font-size="14" font-weight="700" lengthAdjust="spacing" textLength="699.4258" x="808.835" y="590.2764">&#8212; *aktiv runter (einf&#252;hren).* `z_cmd = contact_z &#8722; insert_gap` (`insert_press/pos_stiff`),</text><text fill="#000000" font-family="'Inter, Helvetica, Arial, sans-serif'" font-size="14" font-weight="700" lengthAdjust="spacing" textLength="248.4658" x="696.6299" y="606.5732">Ziel `contact_z &#8722; insert_depth`.</text><text fill="#000000" font-family="'Inter, Helvetica, Arial, sans-serif'" font-size="14" font-weight="700" lengthAdjust="spacing" textLength="83.8359" x="949.9697" y="606.5732">REAL-Arm:</text><text fill="#000000" font-family="'Inter, Helvetica, Arial, sans-serif'" font-size="14" font-weight="700" lengthAdjust="spacing" textLength="441.6084" x="1038.6797" y="606.5732">`--release-on-insert` ersetzt das Pressen &#8212; beim z-Drop</text><text fill="#000000" font-family="'Inter, Helvetica, Arial, sans-serif'" font-size="14" font-weight="700" lengthAdjust="spacing" textLength="65.9531" x="696.6299" y="622.8701">wird der</text><text fill="#000000" font-family="'Inter, Helvetica, Arial, sans-serif'" font-size="14" font-weight="700" lengthAdjust="spacing" textLength="127.5244" x="767.457" y="622.8701">Greifer ge&#246;ffnet</text><text fill="#000000" font-family="'Inter, Helvetica, Arial, sans-serif'" font-size="14" font-weight="700" lengthAdjust="spacing" textLength="523.9541" x="899.8555" y="622.8701">(Peg bleibt im Loch) und retracted, weil der Dauerpress sonst den</text><text fill="#000000" font-family="'Inter, Helvetica, Arial, sans-serif'" font-size="14" font-weight="700" lengthAdjust="spacing" textLength="434.2393" x="696.6299" y="639.167">Firmware-Kraft-Reflex ausl&#246;st und den Bringup crasht.</text><text fill="#000000" font-family="'Inter, Helvetica, Arial, sans-serif'" font-size="14" font-weight="700" lengthAdjust="spacing" textLength="4.874" x="696.6299" y="655.4639">&#160;</text><text fill="#000000" font-family="'Inter, Helvetica, Arial, sans-serif'" font-size="14" font-weight="700" lengthAdjust="spacing" textLength="71.333" x="696.6299" y="671.7607">RETRACT</text><text fill="#000000" font-family="'Inter, Helvetica, Arial, sans-serif'" font-size="14" font-weight="700" lengthAdjust="spacing" textLength="399.9297" x="772.8369" y="671.7607">&#8212; *aktiv hoch* auf Standoff (`socket_top + 5 cm`).</text><text fill="#000000" font-family="'Inter, Helvetica, Arial, sans-serif'" font-size="14" font-weight="700" lengthAdjust="spacing" textLength="4.874" x="696.6299" y="688.0576">&#160;</text><text fill="#000000" font-family="'Inter, Helvetica, Arial, sans-serif'" font-size="14" font-weight="700" lengthAdjust="spacing" textLength="287.123" x="696.6299" y="704.3545">Jeder Sollwert durchl&#228;uft zuerst den</text><text fill="#000000" font-family="'Inter, Helvetica, Arial, sans-serif'" font-size="14" font-weight="700" lengthAdjust="spacing" textLength="128.8301" x="988.627" y="704.3545">Safety-Envelope</text><text fill="#000000" font-family="'Inter, Helvetica, Arial, sans-serif'" font-size="14" font-weight="700" lengthAdjust="spacing" textLength="382.5596" x="1117.457" y="704.3545">: AABB-Clamp (inkl. z-Floor `socket_top &#8722; 5 cm`)</text><text fill="#000000" font-family="'Inter, Helvetica, Arial, sans-serif'" font-size="14" font-weight="700" lengthAdjust="spacing" textLength="696.2881" x="696.6299" y="720.6514">&#8594; Step-Cap `v_max/rate` (Anker = letztes Kommando) &#8594; Force-Abort (Fz/Moment-Caps).</text><text fill="#000000" font-family="'Inter, Helvetica, Arial, sans-serif'" font-size="14" font-weight="700" lengthAdjust="spacing" textLength="4.874" x="696.6299" y="736.9482">&#160;</text><text fill="#000000" font-family="'Inter, Helvetica, Arial, sans-serif'" font-size="14" font-weight="700" lengthAdjust="spacing" textLength="216.8428" x="696.6299" y="753.2451">`--force-mode` (ADR-0002):</text><text fill="#000000" font-family="'Inter, Helvetica, Arial, sans-serif'" font-size="14" font-weight="700" lengthAdjust="spacing" textLength="492.7412" x="918.3467" y="753.2451">in SEARCH/PUSH wird `z_cmd` NICHT fix gehalten, sondern als</text><text fill="#000000" font-family="'Inter, Helvetica, Arial, sans-serif'" font-size="14" font-weight="700" lengthAdjust="spacing" textLength="779.2832" x="696.6299" y="769.542">Admittanz geregelt &#8212; zu wenig Kraft &#8658; aktiv runter (Peg reinschieben), zu viel Kraft &#8658; Equilibrium</text><text fill="#000000" font-family="'Inter, Helvetica, Arial, sans-serif'" font-size="14" font-weight="700" lengthAdjust="spacing" textLength="695.5703" x="696.6299" y="785.8389">wieder hoch (Kraft reduzieren); Erkennung &#252;ber Kraft-Einbruch + best&#228;tigtes Absinken.</text></g><?plantuml-src hLXDSnf94htthyZ54MF0D98ryiTeLnD6q1Yj9AG5x9dn1GgeXXhrrrONmYOc77kQdJckOsDFU_J-1P_cnZ_nBzcNrGsqB3js3uF3XDHLbPMPx-NBRDsduz_luzodNZoE7pyXrwKhENDLv7RYG1xHokrSUXsFlgApNgCze8KSIqrJ9UbgBb8PKNcWGXNDt9OICot2i09RxVXwaHxHTurkbtmXvzhG5ASQEYHnRTGDHM8ofqLaP5JBTis530pbbZkndCiQxEIVHJIb9PxBoAH6pc5CZAMoMy_YoC3ajHQ-eVQgxjp7iRyiP12mQpCPYGNlIoMrX94A3rMO13A4AIKrVfsAb5vAFHS1dAaSsKi3DTvJKIgrKN4qLEocgITlgF1nlytZT_TUS4Pc8fgbGJnJrrIUi4yJCrpLQAhZfBArEOd3K4JJOIBCV2Yc8Z5Ifpl3i7aQ9d8geebiPbkliBEHRGGKmqaufH_pp1UiPjS5ofUJDvD0iiK7j4HqI39RRQ_S4vm8L2Ifx5qqA5feyhLKbTecWUv0fiQQZEAfJFVcGa-NGilXBW-ya3aBa-TndDH8oq32i1j7RhQlHdtXI_F6zQ8R6SI9j7ZWZXjEU1mX25AfeSiJhmiaBEaG6xkdKX_qaMoyf9aQkaJ7s0x-1841i7dyntGJXvGdXQwpF05B8-bv8DLaFfDBV9lKBVVZ870hbatWNqfBNfRHZbZK53YNAX6vUUPNMiu2HeLmdPIuRGQof01Qqcbgt9qnpsEVpfXuxdCGpAoed5smGN5LEIBadkWjKHAdmzGetwSgbQrbDukdKl3c-5lo5mZgB6Cpe916pV2Wz5ma9HYxVHBEjMblPngMVaz9-8EP8tHA0g4Y9xrMKI8048t5v7gcOzHaCmvYJVVQzbFOaSx5D5v24u1T0ABkLgRI5ul0jC6vBcDTEcMSQzIHmGr2dOWQD4A9e4QfY58NZ59-wVFd-sebwU51OR6XTRpCVNhu5FzE7CSe4yYDj7tysp_lQDlw0_3wAizuekEijgYSoLJ6G-GuamV-8PxCAuw3cfiex2lPxIM2Y5nrTazHRt8fPujePfSkNXQMB8bHXdzTA5IlLelGPPxEsPEAtVwgMTmEmAbigMTzzRnyaxVR18uTqq_u_lZBEzfK-azsM_kLuppRTwuwA3igNLo-z8QD4toNd8kNzj7tFxYDo0yMCofRHIWvhvfseHzFhgMX1uyc8PNx1aKM-pulUtPv_HltWMnJoMc_iWy__leBxPGcj-Sy0qov0oslt_IwhU7WSjYyx0uQpS7MaSRPuFGbzLvq1rxlKoSG5xj1POXsmOTKHTUVlvnlFTpVx3lE_NG7SRBR_lC_2Dr4pGnlVlHuusBVQ_IQdM7_whJNEDzwrrd_2qsmqpWVGBWU4BBMJvGMWTowkbLzYqAY8Hh36SfsuyHy_HuTxjb6SD4qsCsjx_-XZG4V5dv-HsUSdxC1E_Vae1XZPjgFzGGvRWa8XdsIPNh_wIQEgnVzpl2qs_TwknotUfTNrhXKaR_-ROuMyGN_Cpc_5O2F0121YcpZFOddclczySnJqLWlq73AA34gG7-uGyki39KvXDpwL2PcNjcQAASgh13Zag_RkAoLmos5UzwWTvSsdSjcv_zbxWRqGahtxIMF3xSqlUpkAYIh_PtrtE3_heJCwfF7ZZDNitc0_mQAHIQcHu-jR7xTFAGZoci2idvBTCOmatEbS1udSHumqxrMopjfFu61ZAeudob4vcyD7ALqOVjTuNeSvFE7-tJFE_2Ujhx1UMRANiyxznfz3rPstA3nQbcdvy3IXqDYuJjE835JJGbTsyIXStnCZKW4RrA8wL94qQq8QjcZN3hHKAhLk-LVhLfPhXOFrglKucdnRektqrf1EQbQPKM04NPkb5eCXYPEB8T3yJgZK4QqKSOzrXAQX9KwVITLO2s-KZAWBEiyfbu2JpzOl-TM7YWvmrHZbOONdRp5yoYB-QMDt6W1Hr0ASgnbYDcct9_CjJ9GhL_Vq-Xc23VsD8RFKSKEicEnC8JnDQGJgVCyP-q7CTIHf3xyJzmpc90Sun6Y6zqHTxgj68YjbVL6EgHknTRuQ5VHntQOmQQY4bRgJWk5N1mEUJIJ_0E6n9ejy-wB7bVyhd7iRKCEqLlNxnTmdCCIumrRsS9C-Zhco9PAJ-iEHrMKrGtgHS82zT5cmlk2bexuJXfjVyVEeXWMHg6HKrxLwQHE3vzI5mi7-_lxzF7lx-WR2XdwrYSyiZ3RiVWw4abI84DHhcrQh-CeXGHW7L5XJF5vvnMxWQZARqS5ZqQOhvVhzmpnr6Qpo2mc7iY4qs3Jc0d61HS07cOw3yfZZBDZGsytDzQTpLH1YKXJMn3iCl2fLh__WQzlwCbSXHBpwQO_rUXA6SZoGVqHGgzPMHcbTesPETHYgXRfgCBCM_yxVvDXpgNnM0HJnWGJo9y-WOJVQq2dTly2V0l3J2X6RluMuFAoQxIQONWTqTUSSvixRWtSFv2nl7zORXHQrUVqWCexIQfycIQxbWNFHiKMihVZHQNcs6eVVVPifXDrfBFdDSvT5BcjFjUzyw8pmhigp_oP95du0H-xRajxvRQG0eVPRwEjLZSgEfFh3xuVISDmSJvob77ed6TBMqnQ6WtdvBJ650ciYLsd1pGW11v6Jblfa5_JtEmzf2VzGBw6aAJ1-aEQ5IQsqOb6IIuIccYHpetDUTv7R-URfrkhfRJfSiXaGLKV44idayNvivpQhXS4IolC2p0lbuCL7CtyGzoVl0zMgqVKQ9oSkCr0X0cLGVkWZdIrWnXp-wSAdjtcC7NwHYPk4pLVL5GG7cMZGOM0iP3SCMspY3E-jRaAtSOuXeVbzchl8kONVpQJLcmM0AsjL3V4oosRQ_LSICL1XN47KpFLscE2MYdBkJUYxccpCo1VlGQWcuOBM90JDC4WTHfJI1LokC8wNYdvZnkSvzK2W4PgbYi-Az9jfZCZm9GeHHspva11SEQ6ARixKb0kKCm2mSXHETkYvNInid_TgFoHF0rTYLWpiZab8yfsMdi0lgPc_HxlcPo-ZH3L7KXMrkkT_m80?></g></svg>