<svg xmlns="http://www.w3.org/2000/svg" xmlns:xlink="http://www.w3.org/1999/xlink" contentStyleType="text/css" data-diagram-type="DESCRIPTION" height="953px" preserveAspectRatio="none" style="width:1967px;height:953px;background:#FFFFFF;" version="1.1" viewBox="0 0 1967 953" width="1967px" zoomAndPan="magnify"><?plantuml 1.2026.6?><defs/><g><g class="title" data-source-line="21"><text fill="#000000" font-family="'Inter, Helvetica, Arial, sans-serif'" font-size="22" font-weight="700" lengthAdjust="spacing" textLength="930.2197" x="517.5327" y="35.4209">Robo67 &#8212; Peg-in-Hole Insertion Architecture (nodes &#8594; seams &#8594; primitives)</text></g><!--cluster Hardware & controllers--><g class="cluster" data-qualified-name="Hardware . controllers" data-source-line="24" id="ent0001"><path d="M14,57.6094 L171.9336,57.6094 A4.5,4.5 0 0 1 174.9336,60.6094 L181.9336,77.5781 L759,77.5781 A3,3 0 0 1 762,80.5781 L762,303.6094 A3,3 0 0 1 759,306.6094 L14,306.6094 A3,3 0 0 1 11,303.6094 L11,60.6094 A3,3 0 0 1 14,57.6094" fill="#FAFAFA" style="stroke:#A1A1AA;stroke-width:1;"/><line style="stroke:#A1A1AA;stroke-width:1;" x1="11" x2="181.9336" y1="77.5781" y2="77.5781"/><text fill="#000000" font-family="'Inter, Helvetica, Arial, sans-serif'" font-size="12" font-weight="700" lengthAdjust="spacing" textLength="157.9336" x="15" y="70.748">Hardware &amp; controllers</text></g><!--cluster ROS 2 nodes  (thin rclpy wrappers ? no transition logic)--><g class="cluster" data-qualified-name="ROS 2 nodes  .thin rclpy wrappers . no transition logic." data-source-line="33" id="ent0007"><path d="M789,212.6094 L1169.959,212.6094 A4.5,4.5 0 0 1 1172.959,215.6094 L1179.959,232.5781 L1489,232.5781 A3,3 0 0 1 1492,235.5781 L1492,442.6094 A3,3 0 0 1 1489,445.6094 L789,445.6094 A3,3 0 0 1 786,442.6094 L786,215.6094 A3,3 0 0 1 789,212.6094" fill="#FAFAFA" style="stroke:#A1A1AA;stroke-width:1;"/><line style="stroke:#A1A1AA;stroke-width:1;" x1="786" x2="1179.959" y1="232.5781" y2="232.5781"/><text fill="#000000" font-family="'Inter, Helvetica, Arial, sans-serif'" font-size="12" font-weight="700" lengthAdjust="spacing" textLength="380.959" x="790" y="225.748">ROS 2 nodes  (thin rclpy wrappers &#8212; no transition logic)</text></g><!--cluster Canonical seams  (pure ? host-testable ? pytest, no rclpy/ROS/cv2)--><g class="cluster" data-qualified-name="Canonical seams  .pure . host-testable . pytest. no rclpy.ROS.cv2." data-source-line="42" id="ent0013"><path d="M816,492.6094 L1262.1152,492.6094 A4.5,4.5 0 0 1 1265.1152,495.6094 L1272.1152,512.5781 L1607,512.5781 A3,3 0 0 1 1610,515.5781 L1610,736.6094 A3,3 0 0 1 1607,739.6094 L816,739.6094 A3,3 0 0 1 813,736.6094 L813,495.6094 A3,3 0 0 1 816,492.6094" fill="#FAFAFA" style="stroke:#A1A1AA;stroke-width:1;"/><line style="stroke:#A1A1AA;stroke-width:1;" x1="813" x2="1272.1152" y1="512.5781" y2="512.5781"/><text fill="#000000" font-family="'Inter, Helvetica, Arial, sans-serif'" font-size="12" font-weight="700" lengthAdjust="spacing" textLength="446.1152" x="817" y="505.748">Canonical seams  (pure &#183; host-testable &#183; pytest, no rclpy/ROS/cv2)</text></g><!--cluster Primitives  (building blocks the seams compose)--><g class="cluster" data-qualified-name="Primitives  .building blocks the seams compose." data-source-line="51" id="ent0019"><path d="M779,772.6094 L1107.2305,772.6094 A4.5,4.5 0 0 1 1110.2305,775.6094 L1117.2305,792.5781 L1745,792.5781 A3,3 0 0 1 1748,795.5781 L1748,865.6094 A3,3 0 0 1 1745,868.6094 L779,868.6094 A3,3 0 0 1 776,865.6094 L776,775.6094 A3,3 0 0 1 779,772.6094" fill="#FAFAFA" style="stroke:#A1A1AA;stroke-width:1;"/><line style="stroke:#A1A1AA;stroke-width:1;" x1="776" x2="1117.2305" y1="792.5781" y2="792.5781"/><text fill="#000000" font-family="'Inter, Helvetica, Arial, sans-serif'" font-size="12" font-weight="700" lengthAdjust="spacing" textLength="328.2305" x="780" y="785.748">Primitives  (building blocks the seams compose)</text></g><!--entity ARM--><g class="entity" data-qualified-name="Hardware . controllers.ARM" data-source-line="25" id="ent0002"><polygon fill="#FFFFFF" points="449,256.6094,459,246.6094,598.8691,246.6094,598.8691,280.5781,588.8691,290.5781,449,290.5781,449,256.6094" style="stroke:#000000;stroke-width:1;stroke-linejoin:miter;stroke-miterlimit:10;"/><line style="stroke:#000000;stroke-width:1;" x1="588.8691" x2="598.8691" y1="256.6094" y2="246.6094"/><line style="stroke:#000000;stroke-width:1;" x1="449" x2="588.8691" y1="256.6094" y2="256.6094"/><line style="stroke:#000000;stroke-width:1;" x1="588.8691" x2="588.8691" y1="256.6094" y2="290.5781"/><text fill="#000000" font-family="'Inter, Helvetica, Arial, sans-serif'" font-size="12" lengthAdjust="spacing" textLength="41.0977" x="464" y="277.748">Franka</text><text fill="#000000" font-family="'Inter, Helvetica, Arial, sans-serif'" font-size="12" lengthAdjust="spacing" textLength="3.8145" x="505.0977" y="277.748">&#160;</text><text fill="#000000" font-family="'Inter, Helvetica, Arial, sans-serif'" font-size="12" lengthAdjust="spacing" textLength="37.166" x="508.9121" y="277.748">Panda</text><text fill="#000000" font-family="'Inter, Helvetica, Arial, sans-serif'" font-size="12" lengthAdjust="spacing" textLength="3.8145" x="546.0781" y="277.748">&#160;</text><text fill="#000000" font-family="'Inter, Helvetica, Arial, sans-serif'" font-size="12" lengthAdjust="spacing" textLength="23.9766" x="549.8926" y="277.748">arm</text></g><!--entity C920--><g class="entity" data-qualified-name="Hardware . controllers.C920" data-source-line="26" id="ent0003"><rect fill="#F4F4F5" height="47.9375" rx="3" ry="3" style="stroke:#3F3F46;stroke-width:1;" width="111.8164" x="634" y="89.6094"/><text fill="#000000" font-family="'Inter, Helvetica, Arial, sans-serif'" font-size="12" lengthAdjust="spacing" textLength="91.8164" x="644" y="110.748">overhead C920</text><text fill="#000000" font-family="'Inter, Helvetica, Arial, sans-serif'" font-size="12" lengthAdjust="spacing" textLength="72.1875" x="644" y="124.7168">(cv camera)</text></g><!--entity D405--><g class="entity" data-qualified-name="Hardware . controllers.D405" data-source-line="27" id="ent0004"><rect fill="#F4F4F5" height="47.9375" rx="3" ry="3" style="stroke:#3F3F46;stroke-width:1;" width="127.6074" x="471" y="89.6094"/><text fill="#000000" font-family="'Inter, Helvetica, Arial, sans-serif'" font-size="12" lengthAdjust="spacing" textLength="107.6074" x="481" y="110.748">eye-in-hand D405</text><text fill="#000000" font-family="'Inter, Helvetica, Arial, sans-serif'" font-size="12" lengthAdjust="spacing" textLength="93.416" x="481" y="124.7168">(depth camera)</text></g><!--entity MMC--><g class="entity" data-qualified-name="Hardware . controllers.MMC" data-source-line="28" id="ent0005"><rect fill="#F4F4F5" height="47.9375" rx="3" ry="3" style="stroke:#3F3F46;stroke-width:1;" width="180.998" x="27.5" y="89.6094"/><text fill="#000000" font-family="'Inter, Helvetica, Arial, sans-serif'" font-size="12" lengthAdjust="spacing" textLength="160.998" x="37.5" y="110.748">MMC cartesian_impedance</text><text fill="#000000" font-family="'Inter, Helvetica, Arial, sans-serif'" font-size="12" lengthAdjust="spacing" textLength="92.1973" x="37.5" y="124.7168">(SIM controller)</text></g><!--entity FCTRL--><g class="entity" data-qualified-name="Hardware . controllers.FCTRL" data-source-line="29" id="ent0006"><rect fill="#F4F4F5" height="47.9375" rx="3" ry="3" style="stroke:#3F3F46;stroke-width:1;" width="191.6855" x="244" y="89.6094"/><text fill="#000000" font-family="'Inter, Helvetica, Arial, sans-serif'" font-size="12" lengthAdjust="spacing" textLength="108.1816" x="254" y="110.748">franka_controllers</text><text fill="#000000" font-family="'Inter, Helvetica, Arial, sans-serif'" font-size="12" lengthAdjust="spacing" textLength="171.6855" x="254" y="124.7168">Cartesian impedance (REAL)</text></g><!--entity NDET--><g class="entity" data-qualified-name="ROS 2 nodes  .thin rclpy wrappers . no transition logic..NDET" data-source-line="34" id="ent0008"><rect fill="#F4F4F5" height="33.9688" rx="3" ry="3" style="stroke:#3F3F46;stroke-width:1;" width="151.8418" x="1169" y="251.6094"/><text fill="#000000" font-family="'Inter, Helvetica, Arial, sans-serif'" font-size="12" lengthAdjust="spacing" textLength="131.8418" x="1179" y="272.748">socket_detector_node</text></g><!--entity NSERVO--><g class="entity" data-qualified-name="ROS 2 nodes  .thin rclpy wrappers . no transition logic..NSERVO" data-source-line="35" id="ent0009"><rect fill="#F4F4F5" height="33.9688" rx="3" ry="3" style="stroke:#3F3F46;stroke-width:1;" width="125.4805" x="1008.5" y="251.6094"/><text fill="#000000" font-family="'Inter, Helvetica, Arial, sans-serif'" font-size="12" lengthAdjust="spacing" textLength="105.4805" x="1018.5" y="272.748">d405_servo_node</text></g><!--entity NORCH--><g class="entity" data-qualified-name="ROS 2 nodes  .thin rclpy wrappers . no transition logic..NORCH" data-source-line="36" id="ent0010"><rect fill="#F4F4F5" height="47.9375" rx="3" ry="3" style="stroke:#3F3F46;stroke-width:1;" width="188.5273" x="820.5" y="381.6094"/><text fill="#000000" font-family="'Inter, Helvetica, Arial, sans-serif'" font-size="12" lengthAdjust="spacing" textLength="168.5273" x="830.5" y="402.748">insertion_orchestrator_node</text><text fill="#000000" font-family="'Inter, Helvetica, Arial, sans-serif'" font-size="12" lengthAdjust="spacing" textLength="108.0469" x="830.5" y="416.7168">&#171;SIM / MMC path&#187;</text></g><!--entity NHW--><g class="entity" data-qualified-name="ROS 2 nodes  .thin rclpy wrappers . no transition logic..NHW" data-source-line="37" id="ent0011"><rect fill="#F4F4F5" height="47.9375" rx="3" ry="3" style="stroke:#3F3F46;stroke-width:1;" width="171.4355" x="802.5" y="244.6094"/><text fill="#000000" font-family="'Inter, Helvetica, Arial, sans-serif'" font-size="12" lengthAdjust="spacing" textLength="151.4355" x="812.5" y="265.748">hardware_insertion_node</text><text fill="#000000" font-family="'Inter, Helvetica, Arial, sans-serif'" font-size="12" lengthAdjust="spacing" textLength="104.3848" x="812.5" y="279.7168">&#171;REAL arm path&#187;</text></g><!--entity NCAL--><g class="entity" data-qualified-name="ROS 2 nodes  .thin rclpy wrappers . no transition logic..NCAL" data-source-line="38" id="ent0012"><rect fill="#F4F4F5" height="33.9688" rx="3" ry="3" style="stroke:#3F3F46;stroke-width:1;" width="119.457" x="1356.5" y="251.6094"/><text fill="#000000" font-family="'Inter, Helvetica, Arial, sans-serif'" font-size="12" lengthAdjust="spacing" textLength="99.457" x="1366.5" y="272.748">calibration_node</text></g><!--entity INTENT--><g class="entity" data-qualified-name="Canonical seams  .pure . host-testable . pytest. no rclpy.ROS.cv2..INTENT" data-source-line="43" id="ent0014"><rect fill="#FFE9B0" height="61.9063" rx="3" ry="3" style="stroke:#3F3F46;stroke-width:1;" width="160.0801" x="919" y="661.6094"/><text fill="#000000" font-family="'Inter, Helvetica, Arial, sans-serif'" font-size="12" lengthAdjust="spacing" textLength="93.832" x="929" y="682.748">insertion_intent</text><text fill="#000000" font-family="'Inter, Helvetica, Arial, sans-serif'" font-size="12" lengthAdjust="spacing" textLength="131.877" x="929" y="696.7168">InsertionIntentModule</text><text fill="#000000" font-family="'Inter, Helvetica, Arial, sans-serif'" font-size="12" lengthAdjust="spacing" textLength="140.0801" x="929" y="710.6855">(the ONE phase model)</text></g><!--entity ADAPT--><g class="entity" data-qualified-name="Canonical seams  .pure . host-testable . pytest. no rclpy.ROS.cv2..ADAPT" data-source-line="44" id="ent0015"><rect fill="#F4F4F5" height="47.9375" rx="3" ry="3" style="stroke:#3F3F46;stroke-width:1;" width="172.3906" x="829" y="524.6094"/><text fill="#000000" font-family="'Inter, Helvetica, Arial, sans-serif'" font-size="12" lengthAdjust="spacing" textLength="152.3906" x="839" y="545.748">command_path_adapters</text><text fill="#000000" font-family="'Inter, Helvetica, Arial, sans-serif'" font-size="12" lengthAdjust="spacing" textLength="107.3145" x="839" y="559.7168">MMC &#183; Impedance</text></g><!--entity CLIFE--><g class="entity" data-qualified-name="Canonical seams  .pure . host-testable . pytest. no rclpy.ROS.cv2..CLIFE" data-source-line="45" id="ent0016"><rect fill="#F4F4F5" height="47.9375" rx="3" ry="3" style="stroke:#3F3F46;stroke-width:1;" width="158.0059" x="1036" y="524.6094"/><text fill="#000000" font-family="'Inter, Helvetica, Arial, sans-serif'" font-size="12" lengthAdjust="spacing" textLength="100.1953" x="1046" y="545.748">contact_lifecycle</text><text fill="#000000" font-family="'Inter, Helvetica, Arial, sans-serif'" font-size="12" lengthAdjust="spacing" textLength="138.0059" x="1046" y="559.7168">baseline update/freeze</text></g><!--entity SENV--><g class="entity" data-qualified-name="Canonical seams  .pure . host-testable . pytest. no rclpy.ROS.cv2..SENV" data-source-line="46" id="ent0017"><rect fill="#F4F4F5" height="47.9375" rx="3" ry="3" style="stroke:#3F3F46;stroke-width:1;" width="175.5488" x="1229" y="524.6094"/><text fill="#000000" font-family="'Inter, Helvetica, Arial, sans-serif'" font-size="12" lengthAdjust="spacing" textLength="98.168" x="1239" y="545.748">safety_envelope</text><text fill="#000000" font-family="'Inter, Helvetica, Arial, sans-serif'" font-size="12" lengthAdjust="spacing" textLength="155.5488" x="1239" y="559.7168">MMC &#183; Impedance profiles</text></g><!--entity PMAP--><g class="entity" data-qualified-name="Canonical seams  .pure . host-testable . pytest. no rclpy.ROS.cv2..PMAP" data-source-line="47" id="ent0018"><rect fill="#F4F4F5" height="47.9375" rx="3" ry="3" style="stroke:#3F3F46;stroke-width:1;" width="152.9082" x="1440.5" y="524.6094"/><text fill="#000000" font-family="'Inter, Helvetica, Arial, sans-serif'" font-size="12" lengthAdjust="spacing" textLength="87.6035" x="1450.5" y="545.748">pixel_mapping</text><text fill="#000000" font-family="'Inter, Helvetica, Arial, sans-serif'" font-size="12" lengthAdjust="spacing" textLength="132.9082" x="1450.5" y="559.7168">Homography &#183; Pinhole</text></g><!--entity WRENCH--><g class="entity" data-qualified-name="Primitives  .building blocks the seams compose..WRENCH" data-source-line="52" id="ent0020"><rect fill="#F4F4F5" height="47.9375" rx="3" ry="3" style="stroke:#3F3F46;stroke-width:1;" width="150.9395" x="1112.5" y="804.6094"/><text fill="#000000" font-family="'Inter, Helvetica, Arial, sans-serif'" font-size="12" lengthAdjust="spacing" textLength="43.9395" x="1122.5" y="825.748">wrench</text><text fill="#000000" font-family="'Inter, Helvetica, Arial, sans-serif'" font-size="12" lengthAdjust="spacing" textLength="130.9395" x="1122.5" y="839.7168">EMA + contact detect</text></g><!--entity SPIRAL--><g class="entity" data-qualified-name="Primitives  .building blocks the seams compose..SPIRAL" data-source-line="53" id="ent0021"><rect fill="#F4F4F5" height="47.9375" rx="3" ry="3" style="stroke:#3F3F46;stroke-width:1;" width="137.6563" x="939" y="804.6094"/><text fill="#000000" font-family="'Inter, Helvetica, Arial, sans-serif'" font-size="12" lengthAdjust="spacing" textLength="32.8242" x="949" y="825.748">spiral</text><text fill="#000000" font-family="'Inter, Helvetica, Arial, sans-serif'" font-size="12" lengthAdjust="spacing" textLength="117.6563" x="949" y="839.7168">Archimedean offset</text></g><!--entity SAFE--><g class="entity" data-qualified-name="Primitives  .building blocks the seams compose..SAFE" data-source-line="54" id="ent0022"><rect fill="#F4F4F5" height="47.9375" rx="3" ry="3" style="stroke:#3F3F46;stroke-width:1;" width="100.2148" x="1299" y="804.6094"/><text fill="#000000" font-family="'Inter, Helvetica, Arial, sans-serif'" font-size="12" lengthAdjust="spacing" textLength="37.0195" x="1309" y="825.748">safety</text><text fill="#000000" font-family="'Inter, Helvetica, Arial, sans-serif'" font-size="12" lengthAdjust="spacing" textLength="80.2148" x="1309" y="839.7168">clamp / abort</text></g><!--entity GEOM--><g class="entity" data-qualified-name="Primitives  .building blocks the seams compose..GEOM" data-source-line="55" id="ent0023"><rect fill="#F4F4F5" height="47.9375" rx="3" ry="3" style="stroke:#3F3F46;stroke-width:1;" width="148.7363" x="1434.5" y="804.6094"/><text fill="#000000" font-family="'Inter, Helvetica, Arial, sans-serif'" font-size="12" lengthAdjust="spacing" textLength="58.1543" x="1444.5" y="825.748">geometry</text><text fill="#000000" font-family="'Inter, Helvetica, Arial, sans-serif'" font-size="12" lengthAdjust="spacing" textLength="128.7363" x="1444.5" y="839.7168">poses + homography</text></g><!--entity SERVO--><g class="entity" data-qualified-name="Primitives  .building blocks the seams compose..SERVO" data-source-line="56" id="ent0024"><rect fill="#F4F4F5" height="47.9375" rx="3" ry="3" style="stroke:#3F3F46;stroke-width:1;" width="112.1855" x="792" y="804.6094"/><text fill="#000000" font-family="'Inter, Helvetica, Arial, sans-serif'" font-size="12" lengthAdjust="spacing" textLength="51.5684" x="802" y="825.748">servoing</text><text fill="#000000" font-family="'Inter, Helvetica, Arial, sans-serif'" font-size="12" lengthAdjust="spacing" textLength="92.1855" x="802" y="839.7168">IBVS correction</text></g><!--entity HOLE--><g class="entity" data-qualified-name="Primitives  .building blocks the seams compose..HOLE" data-source-line="57" id="ent0025"><rect fill="#F4F4F5" height="47.9375" rx="3" ry="3" style="stroke:#3F3F46;stroke-width:1;" width="112.666" x="1618.5" y="804.6094"/><text fill="#000000" font-family="'Inter, Helvetica, Arial, sans-serif'" font-size="12" lengthAdjust="spacing" textLength="70.0547" x="1628.5" y="825.748">hole_detect</text><text fill="#000000" font-family="'Inter, Helvetica, Arial, sans-serif'" font-size="12" lengthAdjust="spacing" textLength="92.666" x="1628.5" y="839.7168">circle detection</text></g><g class="entity" data-qualified-name="GMN54" data-source-line="95" id="ent0055"><path d="M449,798.6094 L449,858.4844 A3,3 0 0 0 452,861.4844 L754.2383,861.4844 A3,3 0 0 0 757.2383,858.4844 L757.2383,805.6094 L747.2383,795.6094 L452,795.6094 A3,3 0 0 0 449,798.6094" fill="#FFFFFF" style="stroke:#000000;stroke-width:1;"/><path d="M747.2383,795.6094 L747.2383,804.1094 A1.5,1.5 0 0 0 748.7383,805.6094 L757.2383,805.6094 L747.2383,795.6094" fill="#FFFFFF" style="stroke:#000000;stroke-width:1;"/><text fill="#000000" font-family="'Inter, Helvetica, Arial, sans-serif'" font-size="12" lengthAdjust="spacing" textLength="268.1953" x="455" y="811.748">Controller-agnostic. Owns contact detection,</text><text fill="#000000" font-family="'Inter, Helvetica, Arial, sans-serif'" font-size="12" lengthAdjust="spacing" textLength="277.0781" x="455" y="825.7168">spiral, drop/retry, confirm/retract &amp; contact_z.</text><text fill="#000000" font-family="'Inter, Helvetica, Arial, sans-serif'" font-size="12" lengthAdjust="spacing" textLength="287.2383" x="455" y="839.6855">Quirks (carrot lead, below-surface gaps, held R)</text><text fill="#000000" font-family="'Inter, Helvetica, Arial, sans-serif'" font-size="12" lengthAdjust="spacing" textLength="251.8301" x="455" y="853.6543">live ONLY in the command-path adapters.</text></g><!--link NDET to HOLE--><g class="link" data-entity-1="ent0008" data-entity-2="ent0025" data-link-type="dependency" data-source-line="61" id="lnk26"><path d="M1271.06,285.6494 C1289.34,295.9994 1314.76,308.5994 1339,314.6094 C1382.82,325.4694 1497.55,314.7094 1542,322.6094 C1658.8,343.3594 1796,285.9794 1796,404.6094 C1796,404.6094 1796,404.6094 1796,693.6094 C1796,742.3494 1755.5358,778.5693 1720.4758,801.6593" fill="none" id="NDET-to-HOLE" style="stroke:#18181B;stroke-width:1;"/><polygon fill="#18181B" points="1716.3,804.4094,1726.0164,802.7998,1720.4758,801.6593,1721.6163,796.1186,1716.3,804.4094" style="stroke:#18181B;stroke-width:1;stroke-linejoin:miter;stroke-miterlimit:10;"/></g><!--link NDET to PMAP--><g class="link" data-entity-1="ent0008" data-entity-2="ent0018" data-link-type="dependency" data-source-line="62" id="lnk27"><path d="M1271.47,285.8094 C1289.74,296.0794 1314.97,308.5394 1339,314.6094 C1356.8,319.1094 1488.8,312.3194 1504,322.6094 C1568,365.9294 1542.5377,471.5649 1526.8477,519.7649" fill="none" id="NDET-to-PMAP" style="stroke:#18181B;stroke-width:1;"/><polygon fill="#18181B" points="1525.3,524.5194,1531.8893,517.1995,1526.8477,519.7649,1524.2822,514.7232,1525.3,524.5194" style="stroke:#18181B;stroke-width:1;stroke-linejoin:miter;stroke-miterlimit:10;"/><text fill="#52525B" font-family="'Inter, Helvetica, Arial, sans-serif'" font-size="12" lengthAdjust="spacing" textLength="77.625" x="1545" y="410.248">Homography</text></g><!--link NSERVO to HOLE--><g class="link" data-entity-1="ent0009" data-entity-2="ent0025" data-link-type="dependency" data-source-line="63" id="lnk28"><path d="M1093.15,285.6294 C1108.77,295.9694 1130.64,308.5794 1152,314.6094 C1191.39,325.7294 1295.68,315.5594 1336,322.6094 C1422.68,337.7594 1451.96,332.5294 1525,381.6094 C1670.78,479.5794 1677.5927,722.5704 1676.0127,799.4904" fill="none" id="NSERVO-to-HOLE" style="stroke:#18181B;stroke-width:1;"/><polygon fill="#18181B" points="1675.91,804.4894,1680.094,795.5734,1676.0127,799.4904,1672.0957,795.4091,1675.91,804.4894" style="stroke:#18181B;stroke-width:1;stroke-linejoin:miter;stroke-miterlimit:10;"/></g><!--link NSERVO to PMAP--><g class="link" data-entity-1="ent0009" data-entity-2="ent0018" data-link-type="dependency" data-source-line="64" id="lnk29"><path d="M1093.56,285.6094 C1109.19,295.7994 1130.9,308.2394 1152,314.6094 C1195.11,327.6194 1209.01,312.9994 1253,322.6094 C1327.45,338.8794 1354.9,333.4894 1414,381.6094 C1462.13,420.7994 1492.2143,484.1505 1506.5243,519.7305" fill="none" id="NSERVO-to-PMAP" style="stroke:#18181B;stroke-width:1;"/><polygon fill="#18181B" points="1508.39,524.3694,1508.7428,514.5268,1506.5243,519.7305,1501.3206,517.512,1508.39,524.3694" style="stroke:#18181B;stroke-width:1;stroke-linejoin:miter;stroke-miterlimit:10;"/><text fill="#52525B" font-family="'Inter, Helvetica, Arial, sans-serif'" font-size="12" lengthAdjust="spacing" textLength="43.8398" x="1473" y="410.248">Pinhole</text></g><!--link NORCH to ADAPT--><g class="link" data-entity-1="ent0010" data-entity-2="ent0015" data-link-type="dependency" data-source-line="65" id="lnk30"><path d="M915,429.8894 C915,456.0194 915,493.1494 915,519.2894" fill="none" id="NORCH-to-ADAPT" style="stroke:#18181B;stroke-width:1;"/><polygon fill="#18181B" points="915,524.2894,919,515.2894,915,519.2894,911,515.2894,915,524.2894" style="stroke:#18181B;stroke-width:1;stroke-linejoin:miter;stroke-miterlimit:10;"/><text fill="#52525B" font-family="'Inter, Helvetica, Arial, sans-serif'" font-size="12" lengthAdjust="spacing" textLength="29.0859" x="916" y="473.748">MMC</text></g><!--link NORCH to CLIFE--><g class="link" data-entity-1="ent0010" data-entity-2="ent0016" data-link-type="dependency" data-source-line="66" id="lnk31"><path d="M948.03,429.8894 C985.19,456.0994 1041.1234,495.5284 1078.1734,521.6484" fill="none" id="NORCH-to-CLIFE" style="stroke:#18181B;stroke-width:1;"/><polygon fill="#18181B" points="1082.26,524.5294,1077.209,516.0744,1078.1734,521.6484,1072.5994,522.6128,1082.26,524.5294" style="stroke:#18181B;stroke-width:1;stroke-linejoin:miter;stroke-miterlimit:10;"/></g><!--link NORCH to SENV--><g class="link" data-entity-1="ent0010" data-entity-2="ent0017" data-link-type="dependency" data-source-line="67" id="lnk32"><path d="M973.05,429.6894 C995.58,438.0494 1021.75,447.0394 1046,453.6094 C1118.44,473.2294 1141.82,457.9894 1212,484.6094 C1238.24,494.5594 1261.1879,508.1988 1281.2879,521.7888" fill="none" id="NORCH-to-SENV" style="stroke:#18181B;stroke-width:1;"/><polygon fill="#18181B" points="1285.43,524.5894,1280.2147,516.2347,1281.2879,521.7888,1275.7338,522.8621,1285.43,524.5894" style="stroke:#18181B;stroke-width:1;stroke-linejoin:miter;stroke-miterlimit:10;"/><text fill="#52525B" font-family="'Inter, Helvetica, Arial, sans-serif'" font-size="12" lengthAdjust="spacing" textLength="71.0684" x="1186" y="473.748">MMC profile</text></g><!--link NHW to ADAPT--><g class="link" data-entity-1="ent0011" data-entity-2="ent0015" data-link-type="dependency" data-source-line="68" id="lnk33"><path d="M931.15,292.6394 C949.14,301.1194 970.58,309.8194 991,314.6094 C1008.87,318.7994 1143.34,309.3194 1156,322.6094 C1164.89,331.9394 1161.76,340.0794 1156,351.6094 C1146.06,371.4894 1133.46,367.8594 1116,381.6094 C1082.48,407.9994 993.1888,482.3256 946.3988,521.3756" fill="none" id="NHW-to-ADAPT" style="stroke:#18181B;stroke-width:1;"/><polygon fill="#18181B" points="942.56,524.5794,952.0327,521.8836,946.3988,521.3756,946.9068,515.7416,942.56,524.5794" style="stroke:#18181B;stroke-width:1;stroke-linejoin:miter;stroke-miterlimit:10;"/><text fill="#52525B" font-family="'Inter, Helvetica, Arial, sans-serif'" font-size="12" lengthAdjust="spacing" textLength="66.7852" x="1117" y="410.248">Impedance</text></g><!--link NHW to CLIFE--><g class="link" data-entity-1="ent0011" data-entity-2="ent0016" data-link-type="dependency" data-source-line="69" id="lnk34"><path d="M931.13,292.7094 C949.12,301.2094 970.56,309.8994 991,314.6094 C1011.91,319.4294 1168.63,307.6294 1184,322.6094 C1192.53,330.9194 1189.26,451.3594 1188,453.6094 C1184.69,459.5294 1179.93,456.9494 1175,461.6094 C1155.41,480.1094 1140.9475,501.6452 1130.0975,520.1652" fill="none" id="NHW-to-CLIFE" style="stroke:#18181B;stroke-width:1;"/><polygon fill="#18181B" points="1127.57,524.4794,1135.5708,518.7359,1130.0975,520.1652,1128.6681,514.6919,1127.57,524.4794" style="stroke:#18181B;stroke-width:1;stroke-linejoin:miter;stroke-miterlimit:10;"/></g><!--link NHW to SENV--><g class="link" data-entity-1="ent0011" data-entity-2="ent0017" data-link-type="dependency" data-source-line="70" id="lnk35"><path d="M930.87,292.6494 C948.91,301.1894 970.45,309.9294 991,314.6094 C1014.96,320.0694 1191.52,309.0394 1212,322.6094 C1282.61,369.3994 1305.9228,471.9786 1313.2928,519.4386" fill="none" id="NHW-to-SENV" style="stroke:#18181B;stroke-width:1;"/><polygon fill="#18181B" points="1314.06,524.3794,1316.6316,514.8722,1313.2928,519.4386,1308.7263,516.0998,1314.06,524.3794" style="stroke:#18181B;stroke-width:1;stroke-linejoin:miter;stroke-miterlimit:10;"/><text fill="#52525B" font-family="'Inter, Helvetica, Arial, sans-serif'" font-size="12" lengthAdjust="spacing" textLength="108.7676" x="1297" y="410.248">Impedance profile</text></g><!--link NCAL to GEOM--><g class="link" data-entity-1="ent0012" data-entity-2="ent0023" data-link-type="dependency" data-source-line="71" id="lnk36"><path d="M1475.64,273.1094 C1582.93,280.0194 1799.52,296.9994 1822,322.6094 C1895.31,406.1094 1869.36,472.0994 1822,572.6094 C1806.74,604.9894 1620.6073,745.0425 1544.3473,801.5525" fill="none" id="NCAL-to-GEOM" style="stroke:#18181B;stroke-width:1;"/><polygon fill="#18181B" points="1540.33,804.5294,1549.9425,802.3848,1544.3473,801.5525,1545.1796,795.9572,1540.33,804.5294" style="stroke:#18181B;stroke-width:1;stroke-linejoin:miter;stroke-miterlimit:10;"/><text fill="#52525B" font-family="'Inter, Helvetica, Arial, sans-serif'" font-size="12" lengthAdjust="spacing" textLength="92.2852" x="1859" y="553.248">fit homography</text></g><!--link ADAPT to INTENT--><g class="link" data-entity-1="ent0015" data-entity-2="ent0014" data-link-type="dependency" data-source-line="74" id="lnk37"><path d="M928.68,572.7394 C943,596.9494 962.9933,630.7465 978.6833,657.2565" fill="none" id="ADAPT-to-INTENT" style="stroke:#18181B;stroke-width:1;"/><polygon fill="#18181B" points="981.23,661.5594,980.0883,651.7769,978.6833,657.2565,973.2037,655.8516,981.23,661.5594" style="stroke:#18181B;stroke-width:1;stroke-linejoin:miter;stroke-miterlimit:10;"/><text fill="#52525B" font-family="'Inter, Helvetica, Arial, sans-serif'" font-size="12" lengthAdjust="spacing" textLength="84.4219" x="963" y="614.748">delegates ALL</text><text fill="#52525B" font-family="'Inter, Helvetica, Arial, sans-serif'" font-size="12" lengthAdjust="spacing" textLength="63.4219" x="973.5" y="628.7168">transitions</text></g><!--link INTENT to SPIRAL--><g class="link" data-entity-1="ent0014" data-entity-2="ent0021" data-link-type="dependency" data-source-line="75" id="lnk38"><path d="M1001.02,723.6794 C1002.66,748.0694 1004.5953,776.9506 1006.0953,799.3106" fill="none" id="INTENT-to-SPIRAL" style="stroke:#18181B;stroke-width:1;"/><polygon fill="#18181B" points="1006.43,804.2994,1009.8186,795.0518,1006.0953,799.3106,1001.8366,795.5873,1006.43,804.2994" style="stroke:#18181B;stroke-width:1;stroke-linejoin:miter;stroke-miterlimit:10;"/></g><!--link INTENT to WRENCH--><g class="link" data-entity-1="ent0014" data-entity-2="ent0020" data-link-type="dependency" data-source-line="76" id="lnk39"><path d="M1041.42,723.6794 C1075.92,748.1394 1119.8115,779.257 1151.3415,801.617" fill="none" id="INTENT-to-WRENCH" style="stroke:#18181B;stroke-width:1;"/><polygon fill="#18181B" points="1155.42,804.5094,1150.3925,796.0403,1151.3415,801.617,1145.7648,802.566,1155.42,804.5094" style="stroke:#18181B;stroke-width:1;stroke-linejoin:miter;stroke-miterlimit:10;"/></g><!--link CLIFE to WRENCH--><g class="link" data-entity-1="ent0016" data-entity-2="ent0020" data-link-type="dependency" data-source-line="77" id="lnk40"><path d="M1121.1,572.8294 C1134.84,625.1594 1166.8195,746.9735 1180.5995,799.4235" fill="none" id="CLIFE-to-WRENCH" style="stroke:#18181B;stroke-width:1;"/><polygon fill="#18181B" points="1181.87,804.2594,1183.4518,794.5384,1180.5995,799.4235,1175.7144,796.5712,1181.87,804.2594" style="stroke:#18181B;stroke-width:1;stroke-linejoin:miter;stroke-miterlimit:10;"/></g><!--link SENV to SAFE--><g class="link" data-entity-1="ent0017" data-entity-2="ent0022" data-link-type="dependency" data-source-line="78" id="lnk41"><path d="M1319.67,572.8294 C1325.7,625.1594 1339.698,746.8422 1345.738,799.2922" fill="none" id="SENV-to-SAFE" style="stroke:#18181B;stroke-width:1;"/><polygon fill="#18181B" points="1346.31,804.2594,1349.2541,794.8609,1345.738,799.2922,1341.3067,795.7761,1346.31,804.2594" style="stroke:#18181B;stroke-width:1;stroke-linejoin:miter;stroke-miterlimit:10;"/></g><!--link PMAP to GEOM--><g class="link" data-entity-1="ent0018" data-entity-2="ent0023" data-link-type="dependency" data-source-line="79" id="lnk42"><path d="M1516.33,572.8294 C1514.83,625.1594 1511.3239,746.8114 1509.8139,799.2614" fill="none" id="PMAP-to-GEOM" style="stroke:#18181B;stroke-width:1;"/><polygon fill="#18181B" points="1509.67,804.2594,1513.9273,795.3782,1509.8139,799.2614,1505.9307,795.148,1509.67,804.2594" style="stroke:#18181B;stroke-width:1;stroke-linejoin:miter;stroke-miterlimit:10;"/></g><!--link PMAP to SERVO--><g class="link" data-entity-1="ent0018" data-entity-2="ent0024" data-link-type="dependency" data-source-line="80" id="lnk43"><path d="M1440.27,569.5594 C1434.45,570.7094 1428.65,571.7494 1423,572.6094 C1316.46,588.8094 1031.63,547.5494 939,602.6094 C867.46,645.1294 852.4758,750.9707 849.2158,799.4007" fill="none" id="PMAP-to-SERVO" style="stroke:#18181B;stroke-width:1;"/><polygon fill="#18181B" points="848.88,804.3894,853.4754,795.6783,849.2158,799.4007,845.4935,795.141,848.88,804.3894" style="stroke:#18181B;stroke-width:1;stroke-linejoin:miter;stroke-miterlimit:10;"/></g><!--link C920 to NDET--><g class="link" data-entity-1="ent0003" data-entity-2="ent0008" data-link-type="dependency" data-source-line="83" id="lnk44"><path d="M746.34,118.3994 C835.32,125.9594 1012.5,147.4194 1151,204.6094 C1179.15,216.2294 1203.764,233.758 1221.884,248.238" fill="none" id="C920-to-NDET" style="stroke:#18181B;stroke-width:1;stroke-dasharray:7,7;"/><polygon fill="#18181B" points="1225.79,251.3594,1221.2563,242.6161,1221.884,248.238,1216.2621,248.8657,1225.79,251.3594" style="stroke:#18181B;stroke-width:1;stroke-linejoin:miter;stroke-miterlimit:10;"/><text fill="#52525B" font-family="'Inter, Helvetica, Arial, sans-serif'" font-size="12" lengthAdjust="spacing" textLength="41.8359" x="1128" y="186.748">frames</text></g><!--link D405 to NSERVO--><g class="link" data-entity-1="ent0004" data-entity-2="ent0009" data-link-type="dependency" data-source-line="84" id="lnk45"><path d="M599.34,133.1594 C605.29,134.7294 611.25,136.2294 617,137.6094 C683.55,153.5294 702.29,148.5294 768,167.6094 C802.32,177.5694 808.06,189.1094 843,196.6094 C875.2,203.5194 960.18,192.9894 991,204.6094 C1017.3,214.5294 1038.2996,232.8493 1053.0896,248.0193" fill="none" id="D405-to-NSERVO" style="stroke:#18181B;stroke-width:1;stroke-dasharray:7,7;"/><polygon fill="#18181B" points="1056.58,251.5994,1053.1613,242.3629,1053.0896,248.0193,1047.4332,247.9475,1056.58,251.5994" style="stroke:#18181B;stroke-width:1;stroke-linejoin:miter;stroke-miterlimit:10;"/><text fill="#52525B" font-family="'Inter, Helvetica, Arial, sans-serif'" font-size="12" lengthAdjust="spacing" textLength="41.8359" x="844" y="186.748">frames</text></g><!--link NDET to NORCH--><g class="link" data-entity-1="ent0008" data-entity-2="ent0010" data-link-type="dependency" data-source-line="85" id="lnk46"><path d="M1213.11,285.6794 C1195.05,294.5794 1171.95,305.6194 1151,314.6094 C1093.78,339.1694 1032.1278,362.4575 984.3778,379.8575" fill="none" id="NDET-to-NORCH" style="stroke:#18181B;stroke-width:1;stroke-dasharray:7,7;"/><polygon fill="#18181B" points="979.68,381.5694,989.5056,382.2463,984.3778,379.8575,986.7666,374.7297,979.68,381.5694" style="stroke:#18181B;stroke-width:1;stroke-linejoin:miter;stroke-miterlimit:10;"/><text fill="#52525B" font-family="'Inter, Helvetica, Arial, sans-serif'" font-size="12" lengthAdjust="spacing" textLength="124.4121" x="1126" y="341.748">/robo67/socket_pose</text></g><!--link NSERVO to NORCH--><g class="link" data-entity-1="ent0009" data-entity-2="ent0010" data-link-type="dependency" data-source-line="86" id="lnk47"><path d="M1048.81,285.8094 C1033.41,296.0794 1011.97,308.5394 991,314.6094 C974.22,319.4594 846.03,309.9494 834,322.6094 C814.84,342.7694 836.0764,362.6471 863.4064,378.9571" fill="none" id="NSERVO-to-NORCH" style="stroke:#18181B;stroke-width:1;stroke-dasharray:7,7;"/><polygon fill="#18181B" points="867.7,381.5194,862.0215,373.4724,863.4064,378.9571,857.9218,380.3421,867.7,381.5194" style="stroke:#18181B;stroke-width:1;stroke-linejoin:miter;stroke-miterlimit:10;"/><text fill="#52525B" font-family="'Inter, Helvetica, Arial, sans-serif'" font-size="12" lengthAdjust="spacing" textLength="150.375" x="835" y="341.748">/robo67/servo_correction</text></g><!--link NORCH to MMC--><g class="link" data-entity-1="ent0010" data-entity-2="ent0005" data-link-type="dependency" data-source-line="87" id="lnk48"><path d="M820.43,399.7094 C666.43,390.3394 369.53,366.0594 279,314.6094 C204.59,272.3194 153.5082,185.4202 131.4782,142.3802" fill="none" id="NORCH-to-MMC" style="stroke:#18181B;stroke-width:1;stroke-dasharray:7,7;"/><polygon fill="#18181B" points="129.2,137.9294,129.74,147.7634,131.4782,142.3802,136.8614,144.1184,129.2,137.9294" style="stroke:#18181B;stroke-width:1;stroke-linejoin:miter;stroke-miterlimit:10;"/><text fill="#52525B" font-family="'Inter, Helvetica, Arial, sans-serif'" font-size="12" lengthAdjust="spacing" textLength="151.4121" x="280" y="273.248">CartesianImpedanceGoal</text></g><!--link NHW to FCTRL--><g class="link" data-entity-1="ent0011" data-entity-2="ent0006" data-link-type="dependency" data-source-line="88" id="lnk49"><path d="M851.53,244.4594 C827.17,230.2594 793.88,213.2094 762,204.6094 C707.82,189.9894 691.33,205.9294 636,196.6094 C556.2,183.1694 471.7576,158.3875 412.3376,139.1775" fill="none" id="NHW-to-FCTRL" style="stroke:#18181B;stroke-width:1;stroke-dasharray:7,7;"/><polygon fill="#18181B" points="407.58,137.6394,414.9131,144.214,412.3376,139.1775,417.3741,136.6019,407.58,137.6394" style="stroke:#18181B;stroke-width:1;stroke-linejoin:miter;stroke-miterlimit:10;"/><text fill="#52525B" font-family="'Inter, Helvetica, Arial, sans-serif'" font-size="12" lengthAdjust="spacing" textLength="106.7695" x="645.0244" y="179.748">Float64MultiArray</text><text fill="#52525B" font-family="'Inter, Helvetica, Arial, sans-serif'" font-size="12" lengthAdjust="spacing" textLength="122.8184" x="637" y="193.7168">[px,py,pz, R00..R22]</text></g><!--link MMC to ARM--><g class="link" data-entity-1="ent0005" data-entity-2="ent0002" data-link-type="dependency" data-source-line="89" id="lnk50"><path d="M187.13,137.6694 C238.88,155.2294 311.25,180.4294 374,204.6094 C408.39,217.8694 442.1075,232.0022 471.3975,244.6122" fill="none" id="MMC-to-ARM" style="stroke:#18181B;stroke-width:1;"/><polygon fill="#18181B" points="475.99,246.5894,469.3053,239.3565,471.3975,244.6122,466.1418,246.7045,475.99,246.5894" style="stroke:#18181B;stroke-width:1;stroke-linejoin:miter;stroke-miterlimit:10;"/></g><!--link FCTRL to ARM--><g class="link" data-entity-1="ent0006" data-entity-2="ent0002" data-link-type="dependency" data-source-line="90" id="lnk51"><path d="M367.95,137.8494 C403.43,167.3594 460.3254,214.6626 494.6254,243.1826" fill="none" id="FCTRL-to-ARM" style="stroke:#18181B;stroke-width:1;"/><polygon fill="#18181B" points="498.47,246.3794,494.1071,237.5496,494.6254,243.1826,488.9923,243.7009,498.47,246.3794" style="stroke:#18181B;stroke-width:1;stroke-linejoin:miter;stroke-miterlimit:10;"/></g><!--link ARM to NORCH--><g class="link" data-entity-1="ent0002" data-entity-2="ent0010" data-link-type="dependency" data-source-line="91" id="lnk52"><path d="M563.03,290.6294 C597.89,308.7394 650.75,334.5794 699,351.6094 C737.96,365.3594 777.2064,375.7622 815.3764,384.5122" fill="none" id="ARM-to-NORCH" style="stroke:#18181B;stroke-width:1;stroke-dasharray:7,7;"/><polygon fill="#18181B" points="820.25,385.6294,812.3713,379.7195,815.3764,384.5122,810.5838,387.5173,820.25,385.6294" style="stroke:#18181B;stroke-width:1;stroke-linejoin:miter;stroke-miterlimit:10;"/><text fill="#52525B" font-family="'Inter, Helvetica, Arial, sans-serif'" font-size="12" lengthAdjust="spacing" textLength="72.8613" x="722.8486" y="334.748">FrankaState</text><text fill="#52525B" font-family="'Inter, Helvetica, Arial, sans-serif'" font-size="12" lengthAdjust="spacing" textLength="118.5586" x="700" y="348.7168">(EE pose + wrench)</text></g><!--link ARM to NHW--><g class="link" data-entity-1="ent0002" data-entity-2="ent0011" data-link-type="dependency" data-source-line="92" id="lnk53"><path d="M599.42,268.6094 C658.56,268.6094 735.88,268.6094 797.47,268.6094" fill="none" id="ARM-to-NHW" style="stroke:#18181B;stroke-width:1;stroke-dasharray:7,7;"/><polygon fill="#18181B" points="802.47,268.6094,793.47,264.6094,797.47,268.6094,793.47,272.6094,802.47,268.6094" style="stroke:#18181B;stroke-width:1;stroke-linejoin:miter;stroke-miterlimit:10;"/><text fill="#52525B" font-family="'Inter, Helvetica, Arial, sans-serif'" font-size="12" lengthAdjust="spacing" textLength="72.8613" x="664.5986" y="248.748">FrankaState</text><text fill="#52525B" font-family="'Inter, Helvetica, Arial, sans-serif'" font-size="12" lengthAdjust="spacing" textLength="118.5586" x="641.75" y="262.7168">(EE pose + wrench)</text></g><!--link INTENT to GMN54--><g class="link" data-entity-1="ent0014" data-entity-2="ent0055" data-link-type="association" data-source-line="95" id="lnk56"><path d="M918.75,718.2894 C876.19,731.5894 823.11,748.5394 776,764.6094 C747.56,774.3094 716.68,785.3794 688.99,795.5094" fill="none" id="INTENT-GMN54" style="stroke:#18181B;stroke-width:1;stroke-dasharray:7,7;"/></g><g class="legend" data-source-line="101"><rect fill="none" height="58.8906" rx="3" ry="3" style="stroke:#000000;stroke-width:1;" width="502.0918" x="731.5967" y="882.6094"/><text fill="#000000" font-family="'Inter, Helvetica, Arial, sans-serif'" font-size="14" lengthAdjust="spacing" textLength="481.9336" x="736.5967" y="900.6045">&#9472;&#9472;&#9654; uses / composes (Python import)      &#9476;&#9476;&#9654; ROS 2 message (topic)</text><text fill="#000000" font-family="'Inter, Helvetica, Arial, sans-serif'" font-size="14" lengthAdjust="spacing" textLength="492.0918" x="736.5967" y="916.9014">Both insertion nodes drive the SAME insertion_intent; the SIM vs REAL</text><text fill="#000000" font-family="'Inter, Helvetica, Arial, sans-serif'" font-size="14" lengthAdjust="spacing" textLength="435.9619" x="736.5967" y="933.1982">difference is isolated in the adapter + safety profile they pick.</text></g><?plantuml-src jLVRRjj647tdLqnT8B4GNMp7SPiK3I3BT2p0ibJ9JL1KXR0Yb-B2v2wnkx8Y5mNoKFG3Yg0_qVVseM_vb7n9Po-aATb16o0HRK3YpWpdSkRCy25y--a-mKCOYxau-WfQBHZHHOlnrfd8AFIveb8pmQ4tF0cXE-wTzI_3tkNtun1sTKfX9nKhO1eIfjKEA1RJ1XhhYRmGd78DCICBIN8G2KZxX1ahJJu3dJ8Eu-44k8YfWiXeAGh5Kj8cMac5qYrDbIPpT4LHagich58MfRUYakLCisiAyoNBOiONCCz4TANQg3-X568HgGw9PMTlRs-_5H4kE8j8rggym6yQ7Mtb8bvcj9t7gFWfC_i5PYb7HpF2UA2k62-8oSUSH5SBAPOyxebCIFZor7vg4YebiLYPY1AIALexyMgIKmb7jVinJSWoqwU2wmk2pzpfOsYo2MSqkwOQmsv2LpAIDK4HhbgO09RitAy_OJSKzWzgXrqfnShxklyrNiVRXqRF2pmvmAik49M0cEWrrbBII1E-oEfHLPWv5ZAcqbjwVFhuzF3eNh4x6Jp4wqbDT8GIP44tx7NtyUhU8tJ7MjTSGQ2PHeTzTxn_y_O3xT6LKSeqXeNOXLs7v_U__UvGQxzLK5MD037M-cIVe70XmCuPaV6Ae0CFCE5SIv5bL69R_Xo0RJ7OEPM4Nn4CciS4YCntW2ZiwW4AL2M27N5DPKf93Bsd1tjJlXjTGuI0agHXvStTJGMwfYOdAPg5ayEz9wWJqqAd6shcO5DjCEYXXCGMPuJFM5xGcF28elQaFwY5uFHHUbCziS7CQg5EUQyq1vKvs1s7tNDduxHtEJuFVlbS1J1STk3PpF0ZqfkCic8DAqcA0Xsq2E82DBgkc4LE9XOiQhWYrO9Jo69Kps9gG2Nap1Yr8LoSX9UReZ4cTeP0l1OrgKauVZdSbAiuRoOGhSYhafIMf_pTdoRd7PDbA8XEt_tZx0oHyZVDf1vbjqnUcJ29Dh3Qi73sQbCVwPVDyT6befFgTJzZNNebx_j-X5qpO-3Ttrip1cyKQ_EhQOfaIzV1cdQYwuEx5ReDtusGAQ_ee6zl3En8GJIRGJcy2A582Suid3GqSt3iNro65vU6_CEdnrizXLzpxAUPIUMCnAJG5k2cFkXclqItw-2JxkXoMvrh4kbPnX8QhIFZnnoVdZ5EOLd4HDDE8YczSGPwv_tJS0k09A5wFQFyccQYe7UVZ8mc4fPHPIrCmekNcmOAzffcino1ZqDioiz4Bd0LADAriJ9YF4K6jQgZGNVq-Me_gdWNoxwr9O2fZ8E4toZkbdabAO_IAGy7NNW4FgtW-jAw_seSNcptY2gO9DcKsx6GqvWY8OaaKTIfJ4RzCUBzddnFUPIHlC1697CXlNHtkpOBAdAg9KeRdnNwbLRPjIelmk4Mfrj-i8Ne7x-Su8aqGnYnwgjtXorCUJpze5CCcu7wg4kbi-5vwEg6YuvdlTPpdyzTbr3BSOt_lr45Xju0FosqP1zGls6GWb-VmIsO0iTqTONQZKh1uosmVEQjsQunXsQor0zSDzJl67I35orn7o2p0MpRgjfZuzXRhDsfBDxffy1mOIbc2cd5SC6k5RbCkijrbVHERSluY2qsyDxR9tfEUeR5pkW2UGBfvVnyocz7bWgyZ0l4ORb-otU43HesRlcedQA1jIzG5Ul63OTA7wgPhJbLoZHrak5RnsvCL4hZnaUjwu5PNj1yk_qSm4CBaukR85M1sL2gCuUYwipBkZE7Z6VGSUyq7J-iJJEMyFk0e9tIjyrNWinA6snPTwebfiB62q6o4ZvMrYuoHlOq4qGV7GvmSMUuXXFaX1-BryrYtInkcZ3UssktnmS7FmNUk4chNVYyWUet_iET-DowED680XnZ8KumyzBr21mdDZQLd7V_hHHmeV5zJMWjx7kXGmwIJwzQv5famN4miwWDmnLNMwoBUMkYkEFO9iHI51rfwB1f11CcS_lJA3meLMStRLJvRidabU4cWYyi6ZBSSPimn_csQgcbJ0WsuO8K-9QPqYo6SGDLClDoERmu_m5mcJFZmi_bbfdBKCxbTa1nzJM11G5sZVdX0aGBxz--CNz__0LBmzMTSjIW7wErJeLTLP7h6vORKFnNyuVYRfiiCR-hHO6B8Xey5lZaQllmn1jBuwXnSD8TXB2zd7pZZd35krPWrZIq4xCaeQOe59Z2Fv5XoU8oJXyQ5ivDffAUp27-OD6L3Tf56_mB?></g></svg>