<?xml version="1.0" encoding="UTF-8" standalone="no"?><svg xmlns="http://www.w3.org/2000/svg" xmlns:xlink="http://www.w3.org/1999/xlink" contentScriptType="application/ecmascript" contentStyleType="text/css" height="945px" preserveAspectRatio="none" style="width:2015px;height:945px;" version="1.1" viewBox="0 0 2015 945" width="2015px" zoomAndPan="magnify"><defs/><g><text fill="#000000" font-family="Inter, Helvetica, Arial, sans-serif" font-size="12" lengthAdjust="spacingAndGlyphs" textLength="468" x="777" y="11.1387">Robo67 — Peg-in-Hole Insertion Architecture (nodes → seams → primitives)</text><!--MD5=[11b009a8a297fb7933a1859f23a31b6a]
cluster Hardware & controllers--><path d="M25,37.9688 L190,37.9688 A4.5,4.5 0 0 1 193,40.9688 L200,57.9375 L786,57.9375 A3,3 0 0 1 789,60.9375 L789,283.9688 A3,3 0 0 1 786,286.9688 L25,286.9688 A3,3 0 0 1 22,283.9688 L22,40.9688 A3,3 0 0 1 25,37.9688 " fill="#FAFAFA" style="stroke: #A1A1AA; stroke-width: 1.5;"/><line style="stroke: #A1A1AA; stroke-width: 1.5;" x1="22" x2="200" y1="57.9375" y2="57.9375"/><text fill="#000000" font-family="Inter, Helvetica, Arial, sans-serif" font-size="12" font-weight="bold" lengthAdjust="spacingAndGlyphs" textLength="165" x="26" y="51.1074">Hardware &amp; controllers</text><!--MD5=[9e4d56ca17375ef7ca30196c3f8af58a]
cluster ROS 2 nodes  (thin rclpy wrappers — no transition logic)--><path d="M816,192.9688 L1210,192.9688 A4.5,4.5 0 0 1 1213,195.9688 L1220,212.9375 L1539,212.9375 A3,3 0 0 1 1542,215.9375 L1542,422.9688 A3,3 0 0 1 1539,425.9688 L816,425.9688 A3,3 0 0 1 813,422.9688 L813,195.9688 A3,3 0 0 1 816,192.9688 " fill="#FAFAFA" style="stroke: #A1A1AA; stroke-width: 1.5;"/><line style="stroke: #A1A1AA; stroke-width: 1.5;" x1="813" x2="1220" y1="212.9375" y2="212.9375"/><text fill="#000000" font-family="Inter, Helvetica, Arial, sans-serif" font-size="12" font-weight="bold" lengthAdjust="spacingAndGlyphs" textLength="394" x="817" y="206.1074">ROS 2 nodes  (thin rclpy wrappers — no transition logic)</text><!--MD5=[edc210079f7e88d4d021579d6f39f55b]
cluster Canonical seams  (pure · host-testable · pytest, no rclpy/ROS/cv2)--><path d="M845,472.9688 L1308,472.9688 A4.5,4.5 0 0 1 1311,475.9688 L1318,492.9375 L1657,492.9375 A3,3 0 0 1 1660,495.9375 L1660,716.9688 A3,3 0 0 1 1657,719.9688 L845,719.9688 A3,3 0 0 1 842,716.9688 L842,475.9688 A3,3 0 0 1 845,472.9688 " fill="#FAFAFA" style="stroke: #A1A1AA; stroke-width: 1.5;"/><line style="stroke: #A1A1AA; stroke-width: 1.5;" x1="842" x2="1318" y1="492.9375" y2="492.9375"/><text fill="#000000" font-family="Inter, Helvetica, Arial, sans-serif" font-size="12" font-weight="bold" lengthAdjust="spacingAndGlyphs" textLength="463" x="846" y="486.1074">Canonical seams  (pure · host-testable · pytest, no rclpy/ROS/cv2)</text><!--MD5=[6081e6d3e19f3f5f8863defd27e87199]
cluster Primitives  (building blocks the seams compose)--><path d="M804,752.9688 L1142,752.9688 A4.5,4.5 0 0 1 1145,755.9688 L1152,772.9375 L1796,772.9375 A3,3 0 0 1 1799,775.9375 L1799,845.9688 A3,3 0 0 1 1796,848.9688 L804,848.9688 A3,3 0 0 1 801,845.9688 L801,755.9688 A3,3 0 0 1 804,752.9688 " fill="#FAFAFA" style="stroke: #A1A1AA; stroke-width: 1.5;"/><line style="stroke: #A1A1AA; stroke-width: 1.5;" x1="801" x2="1152" y1="772.9375" y2="772.9375"/><text fill="#000000" font-family="Inter, Helvetica, Arial, sans-serif" font-size="12" font-weight="bold" lengthAdjust="spacingAndGlyphs" textLength="338" x="805" y="766.1074">Primitives  (building blocks the seams compose)</text><!--MD5=[6d2f7e6a8eba1ff4d2e6e6680f9cffed]
entity ARM--><polygon fill="#FEFECE" points="466.5,236.9688,476.5,226.9688,621.5,226.9688,621.5,260.9375,611.5,270.9375,466.5,270.9375,466.5,236.9688" style="stroke: #000000; stroke-width: 1.5;"/><line style="stroke: #000000; stroke-width: 1.5;" x1="611.5" x2="620.5" y1="236.9688" y2="227.9688"/><line style="stroke: #000000; stroke-width: 1.5;" x1="466.5" x2="611.5" y1="236.9688" y2="236.9688"/><line style="stroke: #000000; stroke-width: 1.5;" x1="611.5" x2="611.5" y1="236.9688" y2="270.9375"/><text fill="#000000" font-family="Inter, Helvetica, Arial, sans-serif" font-size="12" lengthAdjust="spacingAndGlyphs" textLength="115" x="481.5" y="258.1074">Franka Panda arm</text><!--MD5=[c9fbc95bfb295b83ee5d03d78d9d41f0]
entity C920--><rect fill="#F4F4F5" height="47.9375" rx="3" ry="3" style="stroke: #3F3F46; stroke-width: 1.5;" width="115" x="657.5" y="69.9688"/><rect fill="#F4F4F5" height="5" style="stroke: #3F3F46; stroke-width: 1.5;" width="10" x="652.5" y="74.9688"/><rect fill="#F4F4F5" height="5" style="stroke: #3F3F46; stroke-width: 1.5;" width="10" x="652.5" y="107.9063"/><text fill="#000000" font-family="Inter, Helvetica, Arial, sans-serif" font-size="12" lengthAdjust="spacingAndGlyphs" textLength="95" x="667.5" y="91.1074">overhead C920</text><text fill="#000000" font-family="Inter, Helvetica, Arial, sans-serif" font-size="12" lengthAdjust="spacingAndGlyphs" textLength="74" x="667.5" y="105.0762">(cv camera)</text><!--MD5=[7b2b7195ce72da4ebb87a55607a2bec0]
entity D405--><rect fill="#F4F4F5" height="47.9375" rx="3" ry="3" style="stroke: #3F3F46; stroke-width: 1.5;" width="130" x="492" y="69.9688"/><rect fill="#F4F4F5" height="5" style="stroke: #3F3F46; stroke-width: 1.5;" width="10" x="487" y="74.9688"/><rect fill="#F4F4F5" height="5" style="stroke: #3F3F46; stroke-width: 1.5;" width="10" x="487" y="107.9063"/><text fill="#000000" font-family="Inter, Helvetica, Arial, sans-serif" font-size="12" lengthAdjust="spacingAndGlyphs" textLength="110" x="502" y="91.1074">eye-in-hand D405</text><text fill="#000000" font-family="Inter, Helvetica, Arial, sans-serif" font-size="12" lengthAdjust="spacingAndGlyphs" textLength="98" x="502" y="105.0762">(depth camera)</text><!--MD5=[8756c3ecf338397bbeecd7c2740814a1]
entity MMC--><rect fill="#F4F4F5" height="47.9375" rx="3" ry="3" style="stroke: #3F3F46; stroke-width: 1.5;" width="186" x="38" y="69.9688"/><rect fill="#F4F4F5" height="5" style="stroke: #3F3F46; stroke-width: 1.5;" width="10" x="33" y="74.9688"/><rect fill="#F4F4F5" height="5" style="stroke: #3F3F46; stroke-width: 1.5;" width="10" x="33" y="107.9063"/><text fill="#000000" font-family="Inter, Helvetica, Arial, sans-serif" font-size="12" lengthAdjust="spacingAndGlyphs" textLength="166" x="48" y="91.1074">MMC cartesian_impedance</text><text fill="#000000" font-family="Inter, Helvetica, Arial, sans-serif" font-size="12" lengthAdjust="spacingAndGlyphs" textLength="95" x="48" y="105.0762">(SIM controller)</text><!--MD5=[0ff9a5126e0e661b830051e86ca3d4f4]
entity FCTRL--><rect fill="#F4F4F5" height="47.9375" rx="3" ry="3" style="stroke: #3F3F46; stroke-width: 1.5;" width="197" x="259.5" y="69.9688"/><rect fill="#F4F4F5" height="5" style="stroke: #3F3F46; stroke-width: 1.5;" width="10" x="254.5" y="74.9688"/><rect fill="#F4F4F5" height="5" style="stroke: #3F3F46; stroke-width: 1.5;" width="10" x="254.5" y="107.9063"/><text fill="#000000" font-family="Inter, Helvetica, Arial, sans-serif" font-size="12" lengthAdjust="spacingAndGlyphs" textLength="113" x="269.5" y="91.1074">franka_controllers</text><text fill="#000000" font-family="Inter, Helvetica, Arial, sans-serif" font-size="12" lengthAdjust="spacingAndGlyphs" textLength="177" x="269.5" y="105.0762">Cartesian impedance (REAL)</text><!--MD5=[5cd7b7fd62f57744f1a8de7094bcfbaf]
entity NDET--><rect fill="#F4F4F5" height="33.9688" rx="3" ry="3" style="stroke: #3F3F46; stroke-width: 1.5;" width="160" x="1207" y="231.9688"/><rect fill="#F4F4F5" height="5" style="stroke: #3F3F46; stroke-width: 1.5;" width="10" x="1202" y="236.9688"/><rect fill="#F4F4F5" height="5" style="stroke: #3F3F46; stroke-width: 1.5;" width="10" x="1202" y="255.9375"/><text fill="#000000" font-family="Inter, Helvetica, Arial, sans-serif" font-size="12" lengthAdjust="spacingAndGlyphs" textLength="140" x="1217" y="253.1074">socket_detector_node</text><!--MD5=[37eb5bcb6dda4e6acd884ddf60badc7d]
entity NSERVO--><rect fill="#F4F4F5" height="33.9688" rx="3" ry="3" style="stroke: #3F3F46; stroke-width: 1.5;" width="130" x="1042" y="231.9688"/><rect fill="#F4F4F5" height="5" style="stroke: #3F3F46; stroke-width: 1.5;" width="10" x="1037" y="236.9688"/><rect fill="#F4F4F5" height="5" style="stroke: #3F3F46; stroke-width: 1.5;" width="10" x="1037" y="255.9375"/><text fill="#000000" font-family="Inter, Helvetica, Arial, sans-serif" font-size="12" lengthAdjust="spacingAndGlyphs" textLength="110" x="1052" y="253.1074">d405_servo_node</text><!--MD5=[86c866bd4028035ad2d87e498e095a4f]
entity NORCH--><rect fill="#F4F4F5" height="47.9375" rx="3" ry="3" style="stroke: #3F3F46; stroke-width: 1.5;" width="198" x="849" y="361.9688"/><rect fill="#F4F4F5" height="5" style="stroke: #3F3F46; stroke-width: 1.5;" width="10" x="844" y="366.9688"/><rect fill="#F4F4F5" height="5" style="stroke: #3F3F46; stroke-width: 1.5;" width="10" x="844" y="399.9063"/><text fill="#000000" font-family="Inter, Helvetica, Arial, sans-serif" font-size="12" lengthAdjust="spacingAndGlyphs" textLength="178" x="859" y="383.1074">insertion_orchestrator_node</text><text fill="#000000" font-family="Inter, Helvetica, Arial, sans-serif" font-size="12" lengthAdjust="spacingAndGlyphs" textLength="108" x="859" y="397.0762">«SIM / MMC path»</text><!--MD5=[47145c3412ff7266cd48a9c78920fe02]
entity NHW--><rect fill="#F4F4F5" height="47.9375" rx="3" ry="3" style="stroke: #3F3F46; stroke-width: 1.5;" width="178" x="829" y="224.9688"/><rect fill="#F4F4F5" height="5" style="stroke: #3F3F46; stroke-width: 1.5;" width="10" x="824" y="229.9688"/><rect fill="#F4F4F5" height="5" style="stroke: #3F3F46; stroke-width: 1.5;" width="10" x="824" y="262.9063"/><text fill="#000000" font-family="Inter, Helvetica, Arial, sans-serif" font-size="12" lengthAdjust="spacingAndGlyphs" textLength="158" x="839" y="246.1074">hardware_insertion_node</text><text fill="#000000" font-family="Inter, Helvetica, Arial, sans-serif" font-size="12" lengthAdjust="spacingAndGlyphs" textLength="105" x="839" y="260.0762">«REAL arm path»</text><!--MD5=[0682371d221191e6f4b87f07135e3630]
entity NCAL--><rect fill="#F4F4F5" height="33.9688" rx="3" ry="3" style="stroke: #3F3F46; stroke-width: 1.5;" width="124" x="1402" y="231.9688"/><rect fill="#F4F4F5" height="5" style="stroke: #3F3F46; stroke-width: 1.5;" width="10" x="1397" y="236.9688"/><rect fill="#F4F4F5" height="5" style="stroke: #3F3F46; stroke-width: 1.5;" width="10" x="1397" y="255.9375"/><text fill="#000000" font-family="Inter, Helvetica, Arial, sans-serif" font-size="12" lengthAdjust="spacingAndGlyphs" textLength="104" x="1412" y="253.1074">calibration_node</text><!--MD5=[9e965cfcc22c4dcd799c4149828f090c]
entity INTENT--><rect fill="#FFE9B0" height="61.9063" rx="3" ry="3" style="stroke: #3F3F46; stroke-width: 1.5;" width="166" x="944" y="641.9688"/><rect fill="#FFE9B0" height="5" style="stroke: #3F3F46; stroke-width: 1.5;" width="10" x="939" y="646.9688"/><rect fill="#FFE9B0" height="5" style="stroke: #3F3F46; stroke-width: 1.5;" width="10" x="939" y="693.875"/><text fill="#000000" font-family="Inter, Helvetica, Arial, sans-serif" font-size="12" lengthAdjust="spacingAndGlyphs" textLength="98" x="954" y="663.1074">insertion_intent</text><text fill="#000000" font-family="Inter, Helvetica, Arial, sans-serif" font-size="12" lengthAdjust="spacingAndGlyphs" textLength="137" x="954" y="677.0762">InsertionIntentModule</text><text fill="#000000" font-family="Inter, Helvetica, Arial, sans-serif" font-size="12" lengthAdjust="spacingAndGlyphs" textLength="146" x="954" y="691.0449">(the ONE phase model)</text><!--MD5=[334da62a8ba7ad0faf8794a5a8a3e9e6]
entity ADAPT--><rect fill="#F4F4F5" height="47.9375" rx="3" ry="3" style="stroke: #3F3F46; stroke-width: 1.5;" width="179" x="858.5" y="504.9688"/><rect fill="#F4F4F5" height="5" style="stroke: #3F3F46; stroke-width: 1.5;" width="10" x="853.5" y="509.9688"/><rect fill="#F4F4F5" height="5" style="stroke: #3F3F46; stroke-width: 1.5;" width="10" x="853.5" y="542.9063"/><text fill="#000000" font-family="Inter, Helvetica, Arial, sans-serif" font-size="12" lengthAdjust="spacingAndGlyphs" textLength="159" x="868.5" y="526.1074">command_path_adapters</text><text fill="#000000" font-family="Inter, Helvetica, Arial, sans-serif" font-size="12" lengthAdjust="spacingAndGlyphs" textLength="109" x="868.5" y="540.0762">MMC · Impedance</text><!--MD5=[96243201f05e18fd3ec78583556ef764]
entity CLIFE--><rect fill="#F4F4F5" height="47.9375" rx="3" ry="3" style="stroke: #3F3F46; stroke-width: 1.5;" width="164" x="1073" y="504.9688"/><rect fill="#F4F4F5" height="5" style="stroke: #3F3F46; stroke-width: 1.5;" width="10" x="1068" y="509.9688"/><rect fill="#F4F4F5" height="5" style="stroke: #3F3F46; stroke-width: 1.5;" width="10" x="1068" y="542.9063"/><text fill="#000000" font-family="Inter, Helvetica, Arial, sans-serif" font-size="12" lengthAdjust="spacingAndGlyphs" textLength="103" x="1083" y="526.1074">contact_lifecycle</text><text fill="#000000" font-family="Inter, Helvetica, Arial, sans-serif" font-size="12" lengthAdjust="spacingAndGlyphs" textLength="144" x="1083" y="540.0762">baseline update/freeze</text><!--MD5=[a3cede4fcab0e8f508d426b1b43d1344]
entity SENV--><rect fill="#F4F4F5" height="47.9375" rx="3" ry="3" style="stroke: #3F3F46; stroke-width: 1.5;" width="179" x="1272.5" y="504.9688"/><rect fill="#F4F4F5" height="5" style="stroke: #3F3F46; stroke-width: 1.5;" width="10" x="1267.5" y="509.9688"/><rect fill="#F4F4F5" height="5" style="stroke: #3F3F46; stroke-width: 1.5;" width="10" x="1267.5" y="542.9063"/><text fill="#000000" font-family="Inter, Helvetica, Arial, sans-serif" font-size="12" lengthAdjust="spacingAndGlyphs" textLength="101" x="1282.5" y="526.1074">safety_envelope</text><text fill="#000000" font-family="Inter, Helvetica, Arial, sans-serif" font-size="12" lengthAdjust="spacingAndGlyphs" textLength="159" x="1282.5" y="540.0762">MMC · Impedance profiles</text><!--MD5=[971d933698ce9773718e229b3980de26]
entity PMAP--><rect fill="#F4F4F5" height="47.9375" rx="3" ry="3" style="stroke: #3F3F46; stroke-width: 1.5;" width="157" x="1486.5" y="504.9688"/><rect fill="#F4F4F5" height="5" style="stroke: #3F3F46; stroke-width: 1.5;" width="10" x="1481.5" y="509.9688"/><rect fill="#F4F4F5" height="5" style="stroke: #3F3F46; stroke-width: 1.5;" width="10" x="1481.5" y="542.9063"/><text fill="#000000" font-family="Inter, Helvetica, Arial, sans-serif" font-size="12" lengthAdjust="spacingAndGlyphs" textLength="88" x="1496.5" y="526.1074">pixel_mapping</text><text fill="#000000" font-family="Inter, Helvetica, Arial, sans-serif" font-size="12" lengthAdjust="spacingAndGlyphs" textLength="137" x="1496.5" y="540.0762">Homography · Pinhole</text><!--MD5=[8ce464e4ab9c12fd135ecd35f10825ce]
entity WRENCH--><rect fill="#F4F4F5" height="47.9375" rx="3" ry="3" style="stroke: #3F3F46; stroke-width: 1.5;" width="157" x="1145.5" y="784.9688"/><rect fill="#F4F4F5" height="5" style="stroke: #3F3F46; stroke-width: 1.5;" width="10" x="1140.5" y="789.9688"/><rect fill="#F4F4F5" height="5" style="stroke: #3F3F46; stroke-width: 1.5;" width="10" x="1140.5" y="822.9063"/><text fill="#000000" font-family="Inter, Helvetica, Arial, sans-serif" font-size="12" lengthAdjust="spacingAndGlyphs" textLength="45" x="1155.5" y="806.1074">wrench</text><text fill="#000000" font-family="Inter, Helvetica, Arial, sans-serif" font-size="12" lengthAdjust="spacingAndGlyphs" textLength="137" x="1155.5" y="820.0762">EMA + contact detect</text><!--MD5=[6a0136ed7952a4c22abc5774e6f4990a]
entity SPIRAL--><rect fill="#F4F4F5" height="47.9375" rx="3" ry="3" style="stroke: #3F3F46; stroke-width: 1.5;" width="142" x="968" y="784.9688"/><rect fill="#F4F4F5" height="5" style="stroke: #3F3F46; stroke-width: 1.5;" width="10" x="963" y="789.9688"/><rect fill="#F4F4F5" height="5" style="stroke: #3F3F46; stroke-width: 1.5;" width="10" x="963" y="822.9063"/><text fill="#000000" font-family="Inter, Helvetica, Arial, sans-serif" font-size="12" lengthAdjust="spacingAndGlyphs" textLength="34" x="978" y="806.1074">spiral</text><text fill="#000000" font-family="Inter, Helvetica, Arial, sans-serif" font-size="12" lengthAdjust="spacingAndGlyphs" textLength="122" x="978" y="820.0762">Archimedean offset</text><!--MD5=[d96b8c655b07e13d9ca10eacadf54fca]
entity SAFE--><rect fill="#F4F4F5" height="47.9375" rx="3" ry="3" style="stroke: #3F3F46; stroke-width: 1.5;" width="103" x="1337.5" y="784.9688"/><rect fill="#F4F4F5" height="5" style="stroke: #3F3F46; stroke-width: 1.5;" width="10" x="1332.5" y="789.9688"/><rect fill="#F4F4F5" height="5" style="stroke: #3F3F46; stroke-width: 1.5;" width="10" x="1332.5" y="822.9063"/><text fill="#000000" font-family="Inter, Helvetica, Arial, sans-serif" font-size="12" lengthAdjust="spacingAndGlyphs" textLength="38" x="1347.5" y="806.1074">safety</text><text fill="#000000" font-family="Inter, Helvetica, Arial, sans-serif" font-size="12" lengthAdjust="spacingAndGlyphs" textLength="83" x="1347.5" y="820.0762">clamp / abort</text><!--MD5=[bd4aff1bbcb085b32b3e43e61c13d887]
entity GEOM--><rect fill="#F4F4F5" height="47.9375" rx="3" ry="3" style="stroke: #3F3F46; stroke-width: 1.5;" width="154" x="1476" y="784.9688"/><rect fill="#F4F4F5" height="5" style="stroke: #3F3F46; stroke-width: 1.5;" width="10" x="1471" y="789.9688"/><rect fill="#F4F4F5" height="5" style="stroke: #3F3F46; stroke-width: 1.5;" width="10" x="1471" y="822.9063"/><text fill="#000000" font-family="Inter, Helvetica, Arial, sans-serif" font-size="12" lengthAdjust="spacingAndGlyphs" textLength="59" x="1486" y="806.1074">geometry</text><text fill="#000000" font-family="Inter, Helvetica, Arial, sans-serif" font-size="12" lengthAdjust="spacingAndGlyphs" textLength="134" x="1486" y="820.0762">poses + homography</text><!--MD5=[f29ac26186e9e771e34171a1aca9206b]
entity SERVO--><rect fill="#F4F4F5" height="47.9375" rx="3" ry="3" style="stroke: #3F3F46; stroke-width: 1.5;" width="115" x="817.5" y="784.9688"/><rect fill="#F4F4F5" height="5" style="stroke: #3F3F46; stroke-width: 1.5;" width="10" x="812.5" y="789.9688"/><rect fill="#F4F4F5" height="5" style="stroke: #3F3F46; stroke-width: 1.5;" width="10" x="812.5" y="822.9063"/><text fill="#000000" font-family="Inter, Helvetica, Arial, sans-serif" font-size="12" lengthAdjust="spacingAndGlyphs" textLength="53" x="827.5" y="806.1074">servoing</text><text fill="#000000" font-family="Inter, Helvetica, Arial, sans-serif" font-size="12" lengthAdjust="spacingAndGlyphs" textLength="95" x="827.5" y="820.0762">IBVS correction</text><!--MD5=[e9a603fcbc5bf74642939ff39dc03ee2]
entity HOLE--><rect fill="#F4F4F5" height="47.9375" rx="3" ry="3" style="stroke: #3F3F46; stroke-width: 1.5;" width="117" x="1665.5" y="784.9688"/><rect fill="#F4F4F5" height="5" style="stroke: #3F3F46; stroke-width: 1.5;" width="10" x="1660.5" y="789.9688"/><rect fill="#F4F4F5" height="5" style="stroke: #3F3F46; stroke-width: 1.5;" width="10" x="1660.5" y="822.9063"/><text fill="#000000" font-family="Inter, Helvetica, Arial, sans-serif" font-size="12" lengthAdjust="spacingAndGlyphs" textLength="74" x="1675.5" y="806.1074">hole_detect</text><text fill="#000000" font-family="Inter, Helvetica, Arial, sans-serif" font-size="12" lengthAdjust="spacingAndGlyphs" textLength="97" x="1675.5" y="820.0762">circle detection</text><path d="M462,778.9688 L462,838.8438 A3,3 0 0 0 465,841.8438 L779,841.8438 A3,3 0 0 0 782,838.8438 L782,785.9688 L772,775.9688 L465,775.9688 A3,3 0 0 0 462,778.9688 " fill="#FBFB77" style="stroke: #A80036; stroke-width: 1.0;"/><path d="M772,775.9688 L772,784.4688 A1.5,1.5 0 0 0 773.5,785.9688 L782,785.9688 L772,775.9688 " fill="#FBFB77" style="stroke: #A80036; stroke-width: 1.0;"/><text fill="#000000" font-family="Inter, Helvetica, Arial, sans-serif" font-size="12" lengthAdjust="spacingAndGlyphs" textLength="280" x="468" y="792.1074">Controller-agnostic. Owns contact detection,</text><text fill="#000000" font-family="Inter, Helvetica, Arial, sans-serif" font-size="12" lengthAdjust="spacingAndGlyphs" textLength="286" x="468" y="806.0762">spiral, drop/retry, confirm/retract &amp; contact_z.</text><text fill="#000000" font-family="Inter, Helvetica, Arial, sans-serif" font-size="12" lengthAdjust="spacingAndGlyphs" textLength="299" x="468" y="820.0449">Quirks (carrot lead, below-surface gaps, held R)</text><text fill="#000000" font-family="Inter, Helvetica, Arial, sans-serif" font-size="12" lengthAdjust="spacingAndGlyphs" textLength="258" x="468" y="834.0137">live ONLY in the command-path adapters.</text><!--MD5=[0f5fc9739c56f8def1818a3d315a726b]
link NDET to HOLE--><path d="M1314.25,266.0087 C1333.36,276.3488 1359.87,288.9588 1385,294.9688 C1428.91,305.4788 1543.53,295.1688 1588,302.9688 C1706.51,323.7488 1846,264.6487 1846,384.9688 C1846,384.9688 1846,384.9688 1846,673.9688 C1846,720.9788 1804.43,758.7688 1769.83,782.0788 " fill="none" id="NDET-&gt;HOLE" style="stroke: #18181B; stroke-width: 1.0;"/><polygon fill="#18181B" points="1765.64,784.8488,1775.3538,783.2231,1769.8112,782.0918,1770.9426,776.5492,1765.64,784.8488" style="stroke: #18181B; stroke-width: 1.0;"/><!--MD5=[2387c53959602f4a64783c7b9f54624d]
link NDET to PMAP--><path d="M1314.69,266.1588 C1333.77,276.4188 1360.08,288.8787 1385,294.9688 C1402.72,299.2988 1533.69,293.0488 1549,302.9688 C1611.77,343.6088 1589.8,448.7988 1574.59,499.6388 " fill="none" id="NDET-&gt;PMAP" style="stroke: #18181B; stroke-width: 1.0;"/><polygon fill="#18181B" points="1573.05,504.6788,1579.5183,497.2517,1574.5194,499.8995,1571.8716,494.9006,1573.05,504.6788" style="stroke: #18181B; stroke-width: 1.0;"/><text fill="#52525B" font-family="Inter, Helvetica, Arial, sans-serif" font-size="12" lengthAdjust="spacingAndGlyphs" textLength="79" x="1592" y="390.6074">Homography</text><!--MD5=[38bdd3a64d728b8f784ae9825e4ac2fd]
link NSERVO to HOLE--><path d="M1129.75,265.9988 C1145.78,276.3388 1168.2,288.9488 1190,294.9688 C1230.95,306.2687 1339.12,295.8688 1381,302.9688 C1470.27,318.0988 1500.77,311.5788 1576,361.9688 C1625.08,394.8488 1635.14,411.3788 1660,464.9688 C1710.35,573.5188 1721.1,718.7788 1723.39,779.4588 " fill="none" id="NSERVO-&gt;HOLE" style="stroke: #18181B; stroke-width: 1.0;"/><polygon fill="#18181B" points="1723.57,784.7188,1727.2593,775.587,1723.3987,779.7217,1719.264,775.8611,1723.57,784.7188" style="stroke: #18181B; stroke-width: 1.0;"/><!--MD5=[10699478d113fe0e436f07cac2991e4f]
link NSERVO to PMAP--><path d="M1130.17,265.9888 C1146.2,276.1788 1168.46,288.6287 1190,294.9688 C1234.9,308.1888 1249.21,293.3088 1295,302.9688 C1372.02,319.2088 1400.67,312.6188 1462,361.9688 C1508.41,399.3088 1539.61,463.5388 1554.64,500.1888 " fill="none" id="NSERVO-&gt;PMAP" style="stroke: #18181B; stroke-width: 1.0;"/><polygon fill="#18181B" points="1556.56,504.9588,1556.8948,495.1156,1554.6858,500.3233,1549.4781,498.1143,1556.56,504.9588" style="stroke: #18181B; stroke-width: 1.0;"/><text fill="#52525B" font-family="Inter, Helvetica, Arial, sans-serif" font-size="12" lengthAdjust="spacingAndGlyphs" textLength="46" x="1521" y="390.6074">Pinhole</text><!--MD5=[25581456b1aceafea89a12953feaed0d]
link NORCH to ADAPT--><path d="M948,410.2488 C948,434.7488 948,473.3088 948,499.5688 " fill="none" id="NORCH-&gt;ADAPT" style="stroke: #18181B; stroke-width: 1.0;"/><polygon fill="#18181B" points="948,504.6488,952,495.6488,948,499.6488,944,495.6488,948,504.6488" style="stroke: #18181B; stroke-width: 1.0;"/><text fill="#52525B" font-family="Inter, Helvetica, Arial, sans-serif" font-size="12" lengthAdjust="spacingAndGlyphs" textLength="28" x="949" y="454.1074">MMC</text><!--MD5=[6548f61f6ca2c499a6fd870f05c3c196]
link NORCH to CLIFE--><path d="M982.18,410.2488 C1019.15,435.4288 1077.95,475.4788 1116.51,501.7488 " fill="none" id="NORCH-&gt;CLIFE" style="stroke: #18181B; stroke-width: 1.0;"/><polygon fill="#18181B" points="1121.11,504.8888,1115.9264,496.5144,1116.9786,502.0725,1111.4204,503.1247,1121.11,504.8888" style="stroke: #18181B; stroke-width: 1.0;"/><!--MD5=[a0a22082874711bb00783ab2b9ddeffd]
link NORCH to SENV--><path d="M1008.32,410.0388 C1031.71,418.3988 1058.87,427.3888 1084,433.9688 C1158.72,453.5288 1182.6,438.0688 1255,464.9688 C1279.8,474.1788 1305.41,489.0388 1325.36,502.0088 " fill="none" id="NORCH-&gt;SENV" style="stroke: #18181B; stroke-width: 1.0;"/><polygon fill="#18181B" points="1329.78,504.9188,1324.4446,496.6402,1325.5979,502.1783,1320.0599,503.3316,1329.78,504.9188" style="stroke: #18181B; stroke-width: 1.0;"/><text fill="#52525B" font-family="Inter, Helvetica, Arial, sans-serif" font-size="12" lengthAdjust="spacingAndGlyphs" textLength="71" x="1228" y="454.1074">MMC profile</text><!--MD5=[f146dd5ea58d02156deeec22574ca82d]
link NHW to ADAPT--><path d="M962.91,273.0087 C981.62,281.4988 1003.87,290.1988 1025,294.9688 C1043.77,299.2088 1184.71,289.0488 1198,302.9688 C1206.9,312.2888 1204.02,320.5688 1198,331.9688 C1186.94,352.8987 1172.99,347.8488 1154,361.9688 C1113.17,392.3288 1104.61,402.0388 1065,433.9688 C1036.62,456.8488 1004.32,482.7988 980.85,501.6188 " fill="none" id="NHW-&gt;ADAPT" style="stroke: #18181B; stroke-width: 1.0;"/><polygon fill="#18181B" points="976.87,504.8188,986.3932,502.3072,980.7702,501.6901,981.3873,496.067,976.87,504.8188" style="stroke: #18181B; stroke-width: 1.0;"/><text fill="#52525B" font-family="Inter, Helvetica, Arial, sans-serif" font-size="12" lengthAdjust="spacingAndGlyphs" textLength="69" x="1155" y="390.6074">Impedance</text><!--MD5=[5ebd8c419f047e994485920362241d88]
link NHW to CLIFE--><path d="M962.9,273.0788 C981.6,281.5788 1003.85,290.2587 1025,294.9688 C1035.91,297.3987 1218.05,295.1088 1226,302.9688 C1233.23,310.1188 1230.96,430.1188 1229,433.9688 C1226.26,439.3588 1222.28,437.6988 1218,441.9688 C1200.23,459.6688 1183.62,482.7288 1171.92,500.5188 " fill="none" id="NHW-&gt;CLIFE" style="stroke: #18181B; stroke-width: 1.0;"/><polygon fill="#18181B" points="1169.06,504.9188,1177.3257,499.5636,1171.7905,500.7301,1170.6239,495.1949,1169.06,504.9188" style="stroke: #18181B; stroke-width: 1.0;"/><!--MD5=[3ad9e34fa6b148a94f30d6a035ae0667]
link NHW to SENV--><path d="M962.62,273.0087 C981.38,281.5488 1003.74,290.2888 1025,294.9688 C1049.87,300.4388 1232.69,289.0388 1254,302.9688 C1322.89,348.0187 1349.01,450.1088 1357.9,499.7788 " fill="none" id="NHW-&gt;SENV" style="stroke: #18181B; stroke-width: 1.0;"/><polygon fill="#18181B" points="1358.76,504.7088,1361.1588,495.1565,1357.9033,499.7827,1353.2771,496.5272,1358.76,504.7088" style="stroke: #18181B; stroke-width: 1.0;"/><text fill="#52525B" font-family="Inter, Helvetica, Arial, sans-serif" font-size="12" lengthAdjust="spacingAndGlyphs" textLength="112" x="1341" y="390.6074">Impedance profile</text><!--MD5=[3c7e3e97b1b26cf10746505d04e77aec]
link NCAL to GEOM--><path d="M1526.05,253.5788 C1634.58,260.5388 1849.55,277.4088 1872,302.9688 C1945.33,386.4388 1919.36,452.4588 1872,552.9688 C1856.84,585.1388 1669.46,723.5488 1589.15,781.8788 " fill="none" id="NCAL-&gt;GEOM" style="stroke: #18181B; stroke-width: 1.0;"/><polygon fill="#18181B" points="1584.94,784.9388,1594.5739,782.8923,1588.9874,782.003,1589.8767,776.4165,1584.94,784.9388" style="stroke: #18181B; stroke-width: 1.0;"/><text fill="#52525B" font-family="Inter, Helvetica, Arial, sans-serif" font-size="12" lengthAdjust="spacingAndGlyphs" textLength="94" x="1909" y="533.6074">fit homography</text><!--MD5=[b51f6fa3afd9475cfc520fd5a42d9739]
link ADAPT to INTENT--><path d="M960.87,553.0988 C973.6,575.9788 993.24,611.2788 1007.81,637.4688 " fill="none" id="ADAPT-&gt;INTENT" style="stroke: #18181B; stroke-width: 1.0;"/><polygon fill="#18181B" points="1010.28,641.9188,1009.4058,632.1088,1007.8518,637.548,1002.4126,635.9939,1010.28,641.9188" style="stroke: #18181B; stroke-width: 1.0;"/><text fill="#52525B" font-family="Inter, Helvetica, Arial, sans-serif" font-size="12" lengthAdjust="spacingAndGlyphs" textLength="87" x="993" y="595.1074">delegates ALL</text><text fill="#52525B" font-family="Inter, Helvetica, Arial, sans-serif" font-size="12" lengthAdjust="spacingAndGlyphs" textLength="67" x="1003" y="609.0762">transitions</text><!--MD5=[fa869f8295d65b104550b85a96ba1cd8]
link INTENT to SPIRAL--><path d="M1029.69,704.0387 C1031.71,726.6188 1034.46,757.3188 1036.45,779.4988 " fill="none" id="INTENT-&gt;SPIRAL" style="stroke: #18181B; stroke-width: 1.0;"/><polygon fill="#18181B" points="1036.91,784.6588,1040.0715,775.3311,1036.4535,779.6796,1032.1049,776.0616,1036.91,784.6588" style="stroke: #18181B; stroke-width: 1.0;"/><!--MD5=[3282fd3b3cccbf7cf90b4c7a0449bbbb]
link INTENT to WRENCH--><path d="M1071.21,704.0387 C1105.63,727.4488 1152.9,759.6088 1185.71,781.9288 " fill="none" id="INTENT-&gt;WRENCH" style="stroke: #18181B; stroke-width: 1.0;"/><polygon fill="#18181B" points="1190.04,784.8688,1184.843,776.5027,1185.904,782.0592,1180.3476,783.1202,1190.04,784.8688" style="stroke: #18181B; stroke-width: 1.0;"/><!--MD5=[1991440fec1040d0874f8390d201d40f]
link CLIFE to WRENCH--><path d="M1160.76,553.1888 C1173.35,603.8888 1203.24,724.3188 1216.93,779.4888 " fill="none" id="CLIFE-&gt;WRENCH" style="stroke: #18181B; stroke-width: 1.0;"/><polygon fill="#18181B" points="1218.2,784.6188,1219.8977,774.9173,1216.9873,779.768,1212.1366,776.8576,1218.2,784.6188" style="stroke: #18181B; stroke-width: 1.0;"/><!--MD5=[8f4f8c79f5ce7d807b189dc378c60c40]
link SENV to SAFE--><path d="M1364.26,553.1888 C1369.18,603.8888 1380.88,724.3188 1386.23,779.4888 " fill="none" id="SENV-&gt;SAFE" style="stroke: #18181B; stroke-width: 1.0;"/><polygon fill="#18181B" points="1386.73,784.6188,1389.8359,775.2724,1386.2438,779.6424,1381.8738,776.0504,1386.73,784.6188" style="stroke: #18181B; stroke-width: 1.0;"/><!--MD5=[049a9ea91fbf09075d985af9352243fc]
link PMAP to GEOM--><path d="M1564,553.1888 C1561.81,603.8888 1556.61,724.3188 1554.23,779.4888 " fill="none" id="PMAP-&gt;GEOM" style="stroke: #18181B; stroke-width: 1.0;"/><polygon fill="#18181B" points="1554.01,784.6188,1558.3928,775.7988,1554.2247,779.6234,1550.4002,775.4553,1554.01,784.6188" style="stroke: #18181B; stroke-width: 1.0;"/><!--MD5=[94e16102cc5ae056dd191750f67fc533]
link PMAP to SERVO--><path d="M1486.37,549.9788 C1480.52,551.1088 1474.68,552.1288 1469,552.9688 C1359.12,569.3087 1067.46,529.6588 970,582.9688 C898.79,621.9188 880.96,728.4288 876.49,779.6788 " fill="none" id="PMAP-&gt;SERVO" style="stroke: #18181B; stroke-width: 1.0;"/><polygon fill="#18181B" points="876.08,784.7588,880.8115,776.1209,876.494,779.7759,872.839,775.4584,876.08,784.7588" style="stroke: #18181B; stroke-width: 1.0;"/><!--MD5=[b6c3c0cfe278ab6bd147a3fd68856651]
link C920 to NDET--><path d="M772.57,98.6688 C863.99,106.1187 1046.67,127.4488 1190,184.9688 C1216.85,195.7487 1244.21,214.3488 1263,228.5588 " fill="none" id="C920-&gt;NDET" style="stroke: #18181B; stroke-width: 1.0; stroke-dasharray: 7.0,7.0;"/><polygon fill="#18181B" points="1267.11,231.6988,1262.3987,223.0499,1263.141,228.6578,1257.5331,229.4002,1267.11,231.6988" style="stroke: #18181B; stroke-width: 1.0;"/><text fill="#52525B" font-family="Inter, Helvetica, Arial, sans-serif" font-size="12" lengthAdjust="spacingAndGlyphs" textLength="43" x="1166" y="167.1074">frames</text><!--MD5=[6798fde65565fe8420ac87f849285a51]
link D405 to NSERVO--><path d="M622.12,113.5388 C628.15,115.0988 634.18,116.5988 640,117.9688 C708.31,134.0187 727.44,129.0087 795,147.9688 C830.61,157.9588 836.78,169.4688 873,176.9688 C906.12,183.8288 993.27,173.2487 1025,184.9688 C1049.68,194.0888 1072.98,213.4188 1088.39,228.2787 " fill="none" id="D405-&gt;NSERVO" style="stroke: #18181B; stroke-width: 1.0; stroke-dasharray: 7.0,7.0;"/><polygon fill="#18181B" points="1092.14,231.9488,1088.5118,222.7925,1088.5689,228.4491,1082.9124,228.5062,1092.14,231.9488" style="stroke: #18181B; stroke-width: 1.0;"/><text fill="#52525B" font-family="Inter, Helvetica, Arial, sans-serif" font-size="12" lengthAdjust="spacingAndGlyphs" textLength="43" x="874" y="167.1074">frames</text><!--MD5=[c33fe2ad913ce5a655386e508874ea7a]
link NDET to NORCH--><path d="M1254.06,266.0287 C1235.42,274.9188 1211.59,285.9588 1190,294.9688 C1133.21,318.6588 1067.73,342.8288 1019.22,360.1388 " fill="none" id="NDET-&gt;NORCH" style="stroke: #18181B; stroke-width: 1.0; stroke-dasharray: 7.0,7.0;"/><polygon fill="#18181B" points="1014.28,361.8988,1024.102,362.6255,1018.9864,360.2107,1021.4012,355.0952,1014.28,361.8988" style="stroke: #18181B; stroke-width: 1.0;"/><text fill="#52525B" font-family="Inter, Helvetica, Arial, sans-serif" font-size="12" lengthAdjust="spacingAndGlyphs" textLength="132" x="1165" y="322.1074">/robo67/socket_pose</text><!--MD5=[0c2e6d1b1e0b1c92708616ee50e389fe]
link NSERVO to NORCH--><path d="M1084.2,266.1788 C1068.39,276.4588 1046.41,288.9188 1025,294.9688 C1007.44,299.9288 873.58,289.7587 861,302.9688 C842.32,322.5888 865.3,343.5187 892.32,359.3188 " fill="none" id="NSERVO-&gt;NORCH" style="stroke: #18181B; stroke-width: 1.0; stroke-dasharray: 7.0,7.0;"/><polygon fill="#18181B" points="896.68,361.8088,890.856,353.8664,892.3405,359.325,886.882,360.8095,896.68,361.8088" style="stroke: #18181B; stroke-width: 1.0;"/><text fill="#52525B" font-family="Inter, Helvetica, Arial, sans-serif" font-size="12" lengthAdjust="spacingAndGlyphs" textLength="157" x="862" y="322.1074">/robo67/servo_correction</text><!--MD5=[2f219a2a89f5f0cc0301b5c9258b4e08]
link NORCH to MMC--><path d="M848.86,380.3988 C689.14,371.5488 383.31,348.0888 290,294.9688 C218.4,254.2088 167,167.3188 144.18,122.6888 " fill="none" id="NORCH-&gt;MMC" style="stroke: #18181B; stroke-width: 1.0; stroke-dasharray: 7.0,7.0;"/><polygon fill="#18181B" points="141.8,117.9787,142.2849,127.8157,144.0532,122.4423,149.4265,124.2106,141.8,117.9787" style="stroke: #18181B; stroke-width: 1.0;"/><text fill="#52525B" font-family="Inter, Helvetica, Arial, sans-serif" font-size="12" lengthAdjust="spacingAndGlyphs" textLength="157" x="291" y="253.6074">CartesianImpedanceGoal</text><!--MD5=[2bc85b87265bf43e307f90f38127f3e9]
link NHW to FCTRL--><path d="M880.59,224.8188 C855.62,210.6187 821.53,193.5688 789,184.9688 C734.32,170.5087 717.8,186.1588 662,176.9688 C582.39,163.8588 493.52,138.6088 432.54,119.5788 " fill="none" id="NHW-&gt;FCTRL" style="stroke: #18181B; stroke-width: 1.0; stroke-dasharray: 7.0,7.0;"/><polygon fill="#18181B" points="427.46,117.9887,434.8639,124.4836,432.2339,119.4752,437.2423,116.8453,427.46,117.9887" style="stroke: #18181B; stroke-width: 1.0;"/><text fill="#52525B" font-family="Inter, Helvetica, Arial, sans-serif" font-size="12" lengthAdjust="spacingAndGlyphs" textLength="108" x="670.5" y="160.1074">Float64MultiArray</text><text fill="#52525B" font-family="Inter, Helvetica, Arial, sans-serif" font-size="12" lengthAdjust="spacingAndGlyphs" textLength="123" x="663" y="174.0762">[px,py,pz, R00..R22]</text><!--MD5=[db1522e1deef6bda514621e929594b5a]
link MMC to ARM--><path d="M201.48,117.9787 C254.24,135.5187 328.02,160.7088 392,184.9688 C424.95,197.4688 461.44,212.5488 490.41,224.8188 " fill="none" id="MMC-&gt;ARM" style="stroke: #18181B; stroke-width: 1.0;"/><polygon fill="#18181B" points="495.36,226.9188,488.6444,219.7145,490.7591,224.9612,485.5124,227.0759,495.36,226.9188" style="stroke: #18181B; stroke-width: 1.0;"/><!--MD5=[39f4b0cec08ec7616597c72d12ad0cd6]
link FCTRL to ARM--><path d="M386.25,118.2088 C420.72,146.5588 478.76,194.2988 514.01,223.2988 " fill="none" id="FCTRL-&gt;ARM" style="stroke: #18181B; stroke-width: 1.0;"/><polygon fill="#18181B" points="518.19,226.7387,513.798,217.9234,514.3349,223.5547,508.7036,224.0916,518.19,226.7387" style="stroke: #18181B; stroke-width: 1.0;"/><!--MD5=[c739be76f97af59524f52c97b156f7e1]
link ARM to NORCH--><path d="M583.21,271.1188 C618.25,289.3188 671.4,315.2088 720,331.9688 C759.62,345.6387 804.31,356.8888 843.57,365.4588 " fill="none" id="ARM-&gt;NORCH" style="stroke: #18181B; stroke-width: 1.0; stroke-dasharray: 7.0,7.0;"/><polygon fill="#18181B" points="848.82,366.5988,840.8695,360.7859,843.9331,365.5413,839.1776,368.605,848.82,366.5988" style="stroke: #18181B; stroke-width: 1.0;"/><text fill="#52525B" font-family="Inter, Helvetica, Arial, sans-serif" font-size="12" lengthAdjust="spacingAndGlyphs" textLength="77" x="744.5" y="315.1074">FrankaState</text><text fill="#52525B" font-family="Inter, Helvetica, Arial, sans-serif" font-size="12" lengthAdjust="spacingAndGlyphs" textLength="124" x="721" y="329.0762">(EE pose + wrench)</text><!--MD5=[2252062eb3018e3d8c543acad96ed987]
link ARM to NHW--><path d="M621.95,248.9688 C680.67,248.9688 761.44,248.9688 823.78,248.9688 " fill="none" id="ARM-&gt;NHW" style="stroke: #18181B; stroke-width: 1.0; stroke-dasharray: 7.0,7.0;"/><polygon fill="#18181B" points="828.99,248.9688,819.99,244.9688,823.99,248.9688,819.99,252.9688,828.99,248.9688" style="stroke: #18181B; stroke-width: 1.0;"/><text fill="#52525B" font-family="Inter, Helvetica, Arial, sans-serif" font-size="12" lengthAdjust="spacingAndGlyphs" textLength="77" x="686.75" y="229.1074">FrankaState</text><text fill="#52525B" font-family="Inter, Helvetica, Arial, sans-serif" font-size="12" lengthAdjust="spacingAndGlyphs" textLength="124" x="663.25" y="243.0762">(EE pose + wrench)</text><!--MD5=[94b6a34cb37e2c048614eb8e86739dc7]
link INTENT to GMN56--><path d="M943.86,699.3488 C901.07,712.5988 848.12,729.2788 801,744.9688 C771.62,754.7488 739.68,765.8488 711.02,775.9688 " fill="none" id="INTENT-GMN56" style="stroke: #18181B; stroke-width: 1.0; stroke-dasharray: 7.0,7.0;"/><rect fill="#DDDDDD" height="51.9063" rx="5" ry="5" style="stroke: #000000; stroke-width: 1.0;" width="447" x="787" y="882.9688"/><text fill="#000000" font-family="Inter, Helvetica, Arial, sans-serif" font-size="12" lengthAdjust="spacingAndGlyphs" textLength="428" x="793" y="899.1074">──▶ uses / composes (Python import)      ┄┄▶ ROS 2 message (topic)</text><text fill="#000000" font-family="Inter, Helvetica, Arial, sans-serif" font-size="12" lengthAdjust="spacingAndGlyphs" textLength="435" x="793" y="913.0762">Both insertion nodes drive the SAME insertion_intent; the SIM vs REAL</text><text fill="#000000" font-family="Inter, Helvetica, Arial, sans-serif" font-size="12" lengthAdjust="spacingAndGlyphs" textLength="388" x="793" y="927.0449">difference is isolated in the adapter + safety profile they pick.</text><!--MD5=[bc93a1088dd3cd34ed814d7425dc819c]
@startuml peg_in_hole_architecture
skinparam backgroundColor #FFFFFF
skinparam shadowing false
skinparam roundCorner 6
skinparam defaultFontName "Inter, Helvetica, Arial, sans-serif"
skinparam defaultFontSize 12
skinparam ArrowColor #18181B
skinparam ArrowFontColor #52525B
skinparam componentStyle rectangle
skinparam ComponentBorderColor #3F3F46
skinparam ComponentBackgroundColor #F4F4F5
skinparam PackageBorderColor #A1A1AA
skinparam PackageBackgroundColor #FAFAFA

title Robo67 — Peg-in-Hole Insertion Architecture (nodes → seams → primitives)

package "Hardware & controllers" {
  node "Franka Panda arm" as ARM
  component "overhead C920\n(cv camera)" as C920
  component "eye-in-hand D405\n(depth camera)" as D405
  component "MMC cartesian_impedance\n(SIM controller)" as MMC
  component "franka_controllers\nCartesian impedance (REAL)" as FCTRL
}

package "ROS 2 nodes  (thin rclpy wrappers — no transition logic)" {
  component "socket_detector_node" as NDET
  component "d405_servo_node" as NSERVO
  component "insertion_orchestrator_node\n«SIM / MMC path»" as NORCH
  component "hardware_insertion_node\n«REAL arm path»" as NHW
  component "calibration_node" as NCAL
}

package "Canonical seams  (pure · host-testable · pytest, no rclpy/ROS/cv2)" {
  component "insertion_intent\nInsertionIntentModule\n(the ONE phase model)" as INTENT #FFE9B0
  component "command_path_adapters\nMMC · Impedance" as ADAPT
  component "contact_lifecycle\nbaseline update/freeze" as CLIFE
  component "safety_envelope\nMMC · Impedance profiles" as SENV
  component "pixel_mapping\nHomography · Pinhole" as PMAP
}

package "Primitives  (building blocks the seams compose)" {
  component "wrench\nEMA + contact detect" as WRENCH
  component "spiral\nArchimedean offset" as SPIRAL
  component "safety\nclamp / abort" as SAFE
  component "geometry\nposes + homography" as GEOM
  component "servoing\nIBVS correction" as SERVO
  component "hole_detect\ncircle detection" as HOLE
}

NDET    - -> HOLE
NDET    - -> PMAP   : Homography
NSERVO  - -> HOLE
NSERVO  - -> PMAP   : Pinhole
NORCH   - -> ADAPT  : MMC
NORCH   - -> CLIFE
NORCH   - -> SENV   : MMC profile
NHW     - -> ADAPT  : Impedance
NHW     - -> CLIFE
NHW     - -> SENV   : Impedance profile
NCAL    - -> GEOM   : fit homography

ADAPT   - -> INTENT : delegates ALL\ntransitions
INTENT  - -> SPIRAL
INTENT  - -> WRENCH
CLIFE   - -> WRENCH
SENV    - -> SAFE
PMAP    - -> GEOM
PMAP    - -> SERVO

C920   ..>  NDET   : frames
D405   ..>  NSERVO : frames
NDET   ..>  NORCH  : /robo67/socket_pose
NSERVO ..>  NORCH  : /robo67/servo_correction
NORCH  ..>  MMC    : CartesianImpedanceGoal
NHW    ..>  FCTRL  : Float64MultiArray\n[px,py,pz, R00..R22]
MMC    - ->  ARM
FCTRL  - ->  ARM
ARM    ..>  NORCH  : FrankaState\n(EE pose + wrench)
ARM    ..>  NHW    : FrankaState\n(EE pose + wrench)

note bottom of INTENT
  Controller-agnostic. Owns contact detection,
  spiral, drop/retry, confirm/retract & contact_z.
  Quirks (carrot lead, below-surface gaps, held R)
  live ONLY in the command-path adapters.
end note

legend bottom
  ──▶ uses / composes (Python import)      ┄┄▶ ROS 2 message (topic)
  Both insertion nodes drive the SAME insertion_intent; the SIM vs REAL
  difference is isolated in the adapter + safety profile they pick.
endlegend

@enduml

PlantUML version 1.2020.02(Sun Mar 01 11:22:07 CET 2020)
(GPL source distribution)
Java Runtime: OpenJDK Runtime Environment
JVM: OpenJDK 64-Bit Server VM
Java Version: 11.0.31+11-post-1ubuntu1-22.04.2-Ubuntu
Operating System: Linux
Default Encoding: UTF-8
Language: en
Country: US
--></g></svg>