<svg xmlns="http://www.w3.org/2000/svg" xmlns:xlink="http://www.w3.org/1999/xlink" contentStyleType="text/css" data-diagram-type="DESCRIPTION" height="925px" preserveAspectRatio="none" style="width:1621px;height:925px;background:#FFFFFF;" version="1.1" viewBox="0 0 1621 925" width="1621px" zoomAndPan="magnify"><?plantuml 1.2026.6?><defs/><g><g class="title" data-source-line="24"><text fill="#000000" font-family="'Inter, Helvetica, Arial, sans-serif'" font-size="22" font-weight="700" lengthAdjust="spacing" textLength="556.5098" x="531.2451" y="35.4209">Robo67 &#8212; Peg-in-Hole Insertion Architecture</text><text fill="#52525B" font-family="'Inter, Helvetica, Arial, sans-serif'" font-size="12" font-weight="700" lengthAdjust="spacing" textLength="527.5664" x="545.7168" y="51.748">layers flow top &#8594; bottom &#183; insertion stack on the left &#183; perception on the right</text></g><!--cluster L0--><g class="cluster" data-qualified-name="L0" data-source-line="27" id="ent0001"><path d="M16,107.1481 L344.2031,107.1481 A7.5,7.5 0 0 1 349.2031,112.1481 L356.2031,127.1169 L699,127.1169 A5,5 0 0 1 704,132.1169 L704,362.1481 A5,5 0 0 1 699,367.1481 L16,367.1481 A5,5 0 0 1 11,362.1481 L11,112.1481 A5,5 0 0 1 16,107.1481" fill="#EFF6FF" style="stroke:#000000;stroke-width:1;"/><line style="stroke:#000000;stroke-width:1;" x1="11" x2="356.2031" y1="127.1169" y2="127.1169"/><text fill="#27272A" font-family="'Inter, Helvetica, Arial, sans-serif'" font-size="12" font-weight="700" lengthAdjust="spacing" textLength="315.4922" x="23.3555" y="120.2868">&#9312; Robot cell &#8212; sensors &amp; Cartesian controllers</text></g><!--cluster L1--><g class="cluster" data-qualified-name="L1" data-source-line="36" id="ent0007"><path d="M733,262.1481 L1136.8301,262.1481 A7.5,7.5 0 0 1 1141.8301,267.1481 L1148.8301,282.1169 L1601,282.1169 A5,5 0 0 1 1606,287.1169 L1606,369.1481 A5,5 0 0 1 1601,374.1481 L733,374.1481 A5,5 0 0 1 728,369.1481 L728,267.1481 A5,5 0 0 1 733,262.1481" fill="#F0FDF4" style="stroke:#000000;stroke-width:1;"/><line style="stroke:#000000;stroke-width:1;" x1="728" x2="1148.8301" y1="282.1169" y2="282.1169"/><text fill="#27272A" font-family="'Inter, Helvetica, Arial, sans-serif'" font-size="12" font-weight="700" lengthAdjust="spacing" textLength="391.1191" x="740.3555" y="275.2868">&#9313; ROS 2 nodes &#8212; thin rclpy wrappers (no transition logic)</text></g><!--cluster L2--><g class="cluster" data-qualified-name="L2" data-source-line="45" id="ent0013"><path d="M599,421.1481 L1075.4277,421.1481 A7.5,7.5 0 0 1 1080.4277,426.1481 L1087.4277,441.1169 L1347,441.1169 A5,5 0 0 1 1352,446.1169 L1352,661.1481 A5,5 0 0 1 1347,666.1481 L599,666.1481 A5,5 0 0 1 594,661.1481 L594,426.1481 A5,5 0 0 1 599,421.1481" fill="#FFF7ED" style="stroke:#000000;stroke-width:1;"/><line style="stroke:#000000;stroke-width:1;" x1="594" x2="1087.4277" y1="441.1169" y2="441.1169"/><text fill="#27272A" font-family="'Inter, Helvetica, Arial, sans-serif'" font-size="12" font-weight="700" lengthAdjust="spacing" textLength="463.7168" x="606.3555" y="434.2868">&#9314; Canonical seams &#8212; pure &#183; host-testable (pytest, no rclpy/ROS/cv2)</text></g><!--cluster L3--><g class="cluster" data-qualified-name="L3" data-source-line="54" id="ent0019"><path d="M667,704.1481 L1023.3105,704.1481 A7.5,7.5 0 0 1 1028.3105,709.1481 L1035.3105,724.1169 L1564,724.1169 A5,5 0 0 1 1569,729.1169 L1569,811.1481 A5,5 0 0 1 1564,816.1481 L667,816.1481 A5,5 0 0 1 662,811.1481 L662,709.1481 A5,5 0 0 1 667,704.1481" fill="#FAF5FF" style="stroke:#000000;stroke-width:1;"/><line style="stroke:#000000;stroke-width:1;" x1="662" x2="1035.3105" y1="724.1169" y2="724.1169"/><text fill="#27272A" font-family="'Inter, Helvetica, Arial, sans-serif'" font-size="12" font-weight="700" lengthAdjust="spacing" textLength="343.5996" x="674.3555" y="717.2868">&#9315; Primitives &#8212; building blocks the seams compose</text></g><!--entity C920--><g class="entity" data-qualified-name="L0.C920" data-source-line="28" id="ent0002"><rect fill="#DBEAFE" height="47.9375" rx="5" ry="5" style="stroke:#000000;stroke-width:1;" width="114.3887" x="422" y="155.1481"/><text fill="#000000" font-family="'Inter, Helvetica, Arial, sans-serif'" font-size="12" lengthAdjust="spacing" textLength="56.7188" x="432" y="176.2868">overhead</text><text fill="#000000" font-family="'Inter, Helvetica, Arial, sans-serif'" font-size="12" font-weight="700" lengthAdjust="spacing" textLength="33.8555" x="492.5332" y="176.2868">C920</text><text fill="#000000" font-family="'Inter, Helvetica, Arial, sans-serif'" font-size="12" lengthAdjust="spacing" textLength="84.3574" x="432" y="190.2555">(RGB camera)</text></g><!--entity D405--><g class="entity" data-qualified-name="L0.D405" data-source-line="29" id="ent0003"><rect fill="#DBEAFE" height="47.9375" rx="5" ry="5" style="stroke:#000000;stroke-width:1;" width="130.4727" x="558" y="155.1481"/><text fill="#000000" font-family="'Inter, Helvetica, Arial, sans-serif'" font-size="12" lengthAdjust="spacing" textLength="71.6484" x="568" y="176.2868">eye-in-hand</text><text fill="#000000" font-family="'Inter, Helvetica, Arial, sans-serif'" font-size="12" font-weight="700" lengthAdjust="spacing" textLength="35.0098" x="643.4629" y="176.2868">D405</text><text fill="#000000" font-family="'Inter, Helvetica, Arial, sans-serif'" font-size="12" lengthAdjust="spacing" textLength="93.416" x="568" y="190.2555">(depth camera)</text></g><!--entity MMC--><g class="entity" data-qualified-name="L0.MMC" data-source-line="30" id="ent0004"><rect fill="#DBEAFE" height="47.9375" rx="5" ry="5" style="stroke:#000000;stroke-width:1;" width="180.998" x="27.5" y="155.1481"/><text fill="#000000" font-family="'Inter, Helvetica, Arial, sans-serif'" font-size="12" lengthAdjust="spacing" textLength="160.998" x="37.5" y="176.2868">MMC cartesian_impedance</text><text fill="#000000" font-family="'Inter, Helvetica, Arial, sans-serif'" font-size="12" lengthAdjust="spacing" textLength="97.5176" x="37.5" y="190.2555">&#171;SIM controller&#187;</text></g><!--entity FCTRL--><g class="entity" data-qualified-name="L0.FCTRL" data-source-line="31" id="ent0005"><rect fill="#DBEAFE" height="47.9375" rx="5" ry="5" style="stroke:#000000;stroke-width:1;" width="168.8926" x="230.5" y="155.1481"/><text fill="#000000" font-family="'Inter, Helvetica, Arial, sans-serif'" font-size="12" lengthAdjust="spacing" textLength="108.1816" x="240.5" y="176.2868">franka_controllers</text><text fill="#000000" font-family="'Inter, Helvetica, Arial, sans-serif'" font-size="12" lengthAdjust="spacing" textLength="148.8926" x="240.5" y="190.2555">Cart. impedance &#171;REAL&#187;</text></g><!--entity ARM--><g class="entity" data-qualified-name="L0.ARM" data-source-line="32" id="ent0006"><rect fill="#BFDBFE" height="33.9688" rx="5" ry="5" style="stroke:#000000;stroke-width:1;" width="143.832" x="346" y="317.1481"/><text fill="#000000" font-family="'Inter, Helvetica, Arial, sans-serif'" font-size="12" font-weight="700" lengthAdjust="spacing" textLength="123.832" x="356" y="338.2868">Franka Panda arm</text></g><!--entity NDET--><g class="entity" data-qualified-name="L1.NDET" data-source-line="37" id="ent0008"><rect fill="#DCFCE7" height="33.9688" rx="5" ry="5" style="stroke:#000000;stroke-width:1;" width="151.8418" x="1290" y="317.1481"/><text fill="#000000" font-family="'Inter, Helvetica, Arial, sans-serif'" font-size="12" lengthAdjust="spacing" textLength="131.8418" x="1300" y="338.2868">socket_detector_node</text></g><!--entity NSERVO--><g class="entity" data-qualified-name="L1.NSERVO" data-source-line="38" id="ent0009"><rect fill="#DCFCE7" height="33.9688" rx="5" ry="5" style="stroke:#000000;stroke-width:1;" width="125.4805" x="1464.5" y="317.1481"/><text fill="#000000" font-family="'Inter, Helvetica, Arial, sans-serif'" font-size="12" lengthAdjust="spacing" textLength="105.4805" x="1474.5" y="338.2868">d405_servo_node</text></g><!--entity NORCH--><g class="entity" data-qualified-name="L1.NORCH" data-source-line="39" id="ent0010"><rect fill="#DCFCE7" height="47.9375" rx="5" ry="5" style="stroke:#000000;stroke-width:1;" width="188.5273" x="744.5" y="310.1481"/><text fill="#000000" font-family="'Inter, Helvetica, Arial, sans-serif'" font-size="12" lengthAdjust="spacing" textLength="168.5273" x="754.5" y="331.2868">insertion_orchestrator_node</text><text fill="#000000" font-family="'Inter, Helvetica, Arial, sans-serif'" font-size="12" lengthAdjust="spacing" textLength="108.0469" x="754.5" y="345.2555">&#171;SIM / MMC path&#187;</text></g><!--entity NHW--><g class="entity" data-qualified-name="L1.NHW" data-source-line="40" id="ent0011"><rect fill="#DCFCE7" height="47.9375" rx="5" ry="5" style="stroke:#000000;stroke-width:1;" width="171.4355" x="955.5" y="310.1481"/><text fill="#000000" font-family="'Inter, Helvetica, Arial, sans-serif'" font-size="12" lengthAdjust="spacing" textLength="151.4355" x="965.5" y="331.2868">hardware_insertion_node</text><text fill="#000000" font-family="'Inter, Helvetica, Arial, sans-serif'" font-size="12" lengthAdjust="spacing" textLength="104.3848" x="965.5" y="345.2555">&#171;REAL arm path&#187;</text></g><!--entity NCAL--><g class="entity" data-qualified-name="L1.NCAL" data-source-line="41" id="ent0012"><rect fill="#DCFCE7" height="33.9688" rx="5" ry="5" style="stroke:#000000;stroke-width:1;" width="119.457" x="1148.5" y="317.1481"/><text fill="#000000" font-family="'Inter, Helvetica, Arial, sans-serif'" font-size="12" lengthAdjust="spacing" textLength="99.457" x="1158.5" y="338.2868">calibration_node</text></g><!--entity PMAP--><g class="entity" data-qualified-name="L2.PMAP" data-source-line="46" id="ent0014"><rect fill="#FFE0B2" height="47.9375" rx="5" ry="5" style="stroke:#000000;stroke-width:1;" width="152.9082" x="1182.5" y="469.1481"/><text fill="#000000" font-family="'Inter, Helvetica, Arial, sans-serif'" font-size="12" lengthAdjust="spacing" textLength="87.6035" x="1192.5" y="490.2868">pixel_mapping</text><text fill="#000000" font-family="'Inter, Helvetica, Arial, sans-serif'" font-size="12" lengthAdjust="spacing" textLength="132.9082" x="1192.5" y="504.2555">Homography &#183; Pinhole</text></g><!--entity ADAPT--><g class="entity" data-qualified-name="L2.ADAPT" data-source-line="47" id="ent0015"><rect fill="#FFE0B2" height="47.9375" rx="5" ry="5" style="stroke:#000000;stroke-width:1;" width="172.3906" x="610" y="469.1481"/><text fill="#000000" font-family="'Inter, Helvetica, Arial, sans-serif'" font-size="12" lengthAdjust="spacing" textLength="152.3906" x="620" y="490.2868">command_path_adapters</text><text fill="#000000" font-family="'Inter, Helvetica, Arial, sans-serif'" font-size="12" lengthAdjust="spacing" textLength="107.3145" x="620" y="504.2555">MMC &#183; Impedance</text></g><!--entity CLIFE--><g class="entity" data-qualified-name="L2.CLIFE" data-source-line="48" id="ent0016"><rect fill="#FFE0B2" height="47.9375" rx="5" ry="5" style="stroke:#000000;stroke-width:1;" width="158.0059" x="804" y="469.1481"/><text fill="#000000" font-family="'Inter, Helvetica, Arial, sans-serif'" font-size="12" lengthAdjust="spacing" textLength="100.1953" x="814" y="490.2868">contact_lifecycle</text><text fill="#000000" font-family="'Inter, Helvetica, Arial, sans-serif'" font-size="12" lengthAdjust="spacing" textLength="138.0059" x="814" y="504.2555">baseline update/freeze</text></g><!--entity SENV--><g class="entity" data-qualified-name="L2.SENV" data-source-line="49" id="ent0017"><rect fill="#FFE0B2" height="47.9375" rx="5" ry="5" style="stroke:#000000;stroke-width:1;" width="175.5488" x="984" y="469.1481"/><text fill="#000000" font-family="'Inter, Helvetica, Arial, sans-serif'" font-size="12" lengthAdjust="spacing" textLength="98.168" x="994" y="490.2868">safety_envelope</text><text fill="#000000" font-family="'Inter, Helvetica, Arial, sans-serif'" font-size="12" lengthAdjust="spacing" textLength="155.5488" x="994" y="504.2555">MMC &#183; Impedance profiles</text></g><!--entity INTENT--><g class="entity" data-qualified-name="L2.INTENT" data-source-line="50" id="ent0018"><rect fill="#FB923C" height="61.9063" rx="5" ry="5" style="stroke:#000000;stroke-width:1;" width="182.3457" x="638" y="588.1481"/><text fill="#000000" font-family="'Inter, Helvetica, Arial, sans-serif'" font-size="12" font-weight="700" lengthAdjust="spacing" textLength="107.3027" x="648" y="609.2868">insertion_intent</text><text fill="#000000" font-family="'Inter, Helvetica, Arial, sans-serif'" font-size="12" font-style="italic" lengthAdjust="spacing" textLength="131.877" x="648" y="623.2555">InsertionIntentModule</text><text fill="#000000" font-family="'Inter, Helvetica, Arial, sans-serif'" font-size="12" lengthAdjust="spacing" textLength="162.3457" x="648" y="637.2243">&#8212; the ONE phase model &#8212;</text></g><!--entity HOLE--><g class="entity" data-qualified-name="L3.HOLE" data-source-line="55" id="ent0020"><rect fill="#EDE7F6" height="47.9375" rx="5" ry="5" style="stroke:#000000;stroke-width:1;" width="112.666" x="1439.5" y="752.1481"/><text fill="#000000" font-family="'Inter, Helvetica, Arial, sans-serif'" font-size="12" lengthAdjust="spacing" textLength="70.0547" x="1449.5" y="773.2868">hole_detect</text><text fill="#000000" font-family="'Inter, Helvetica, Arial, sans-serif'" font-size="12" lengthAdjust="spacing" textLength="92.666" x="1449.5" y="787.2555">circle detection</text></g><!--entity SERVO--><g class="entity" data-qualified-name="L3.SERVO" data-source-line="56" id="ent0021"><rect fill="#EDE7F6" height="47.9375" rx="5" ry="5" style="stroke:#000000;stroke-width:1;" width="112.1855" x="1134" y="752.1481"/><text fill="#000000" font-family="'Inter, Helvetica, Arial, sans-serif'" font-size="12" lengthAdjust="spacing" textLength="51.5684" x="1144" y="773.2868">servoing</text><text fill="#000000" font-family="'Inter, Helvetica, Arial, sans-serif'" font-size="12" lengthAdjust="spacing" textLength="92.1855" x="1144" y="787.2555">IBVS correction</text></g><!--entity GEOM--><g class="entity" data-qualified-name="L3.GEOM" data-source-line="57" id="ent0022"><rect fill="#EDE7F6" height="47.9375" rx="5" ry="5" style="stroke:#000000;stroke-width:1;" width="148.7363" x="1268.5" y="752.1481"/><text fill="#000000" font-family="'Inter, Helvetica, Arial, sans-serif'" font-size="12" lengthAdjust="spacing" textLength="58.1543" x="1278.5" y="773.2868">geometry</text><text fill="#000000" font-family="'Inter, Helvetica, Arial, sans-serif'" font-size="12" lengthAdjust="spacing" textLength="128.7363" x="1278.5" y="787.2555">poses + homography</text></g><!--entity SPIRAL--><g class="entity" data-qualified-name="L3.SPIRAL" data-source-line="58" id="ent0023"><rect fill="#EDE7F6" height="47.9375" rx="5" ry="5" style="stroke:#000000;stroke-width:1;" width="137.6563" x="678" y="752.1481"/><text fill="#000000" font-family="'Inter, Helvetica, Arial, sans-serif'" font-size="12" lengthAdjust="spacing" textLength="32.8242" x="688" y="773.2868">spiral</text><text fill="#000000" font-family="'Inter, Helvetica, Arial, sans-serif'" font-size="12" lengthAdjust="spacing" textLength="117.6563" x="688" y="787.2555">Archimedean offset</text></g><!--entity WRENCH--><g class="entity" data-qualified-name="L3.WRENCH" data-source-line="59" id="ent0024"><rect fill="#EDE7F6" height="47.9375" rx="5" ry="5" style="stroke:#000000;stroke-width:1;" width="150.9395" x="838.5" y="752.1481"/><text fill="#000000" font-family="'Inter, Helvetica, Arial, sans-serif'" font-size="12" lengthAdjust="spacing" textLength="43.9395" x="848.5" y="773.2868">wrench</text><text fill="#000000" font-family="'Inter, Helvetica, Arial, sans-serif'" font-size="12" lengthAdjust="spacing" textLength="130.9395" x="848.5" y="787.2555">EMA + contact detect</text></g><!--entity SAFE--><g class="entity" data-qualified-name="L3.SAFE" data-source-line="60" id="ent0025"><rect fill="#EDE7F6" height="47.9375" rx="5" ry="5" style="stroke:#000000;stroke-width:1;" width="100.2148" x="1012" y="752.1481"/><text fill="#000000" font-family="'Inter, Helvetica, Arial, sans-serif'" font-size="12" lengthAdjust="spacing" textLength="37.0195" x="1022" y="773.2868">safety</text><text fill="#000000" font-family="'Inter, Helvetica, Arial, sans-serif'" font-size="12" lengthAdjust="spacing" textLength="80.2148" x="1022" y="787.2555">clamp / abort</text></g><g class="entity" data-qualified-name="N1" data-source-line="113" id="ent0068"><path d="M232,716.1481 L232,835.8981 A5,5 0 0 0 237,840.8981 L641.3691,840.8981 A5,5 0 0 0 646.3691,835.8981 L646.3691,721.1481 L636.3691,711.1481 L563.01,711.1481 L672.74,650.2181 L555.01,711.1481 L237,711.1481 A5,5 0 0 0 232,716.1481" fill="#FFF7ED" style="stroke:#000000;stroke-width:1;"/><path d="M636.3691,711.1481 L636.3691,718.6481 A2.5,2.5 0 0 0 638.8691,721.1481 L646.3691,721.1481 L636.3691,711.1481" fill="#FFF7ED" style="stroke:#000000;stroke-width:1;"/><text fill="#000000" font-family="'Inter, Helvetica, Arial, sans-serif'" font-size="12" font-weight="700" lengthAdjust="spacing" textLength="107.3027" x="238" y="727.2868">insertion_intent</text><text fill="#000000" font-family="'Inter, Helvetica, Arial, sans-serif'" font-size="12" lengthAdjust="spacing" textLength="225.4922" x="349.1172" y="727.2868">is controller-agnostic: it owns contact</text><text fill="#000000" font-family="'Inter, Helvetica, Arial, sans-serif'" font-size="12" lengthAdjust="spacing" textLength="341.3789" x="238" y="741.2555">detection, spiral, drop/retry, confirm/retract &amp; contact_z.</text><text fill="#000000" font-family="'Inter, Helvetica, Arial, sans-serif'" font-size="12" lengthAdjust="spacing" textLength="348.5156" x="238" y="755.2243">Controller quirks (carrot lead, below-surface gaps, held R)</text><text fill="#000000" font-family="'Inter, Helvetica, Arial, sans-serif'" font-size="12" lengthAdjust="spacing" textLength="382.582" x="238" y="769.193">live ONLY in the command-path adapters &#8212; that is why the SIM</text><text fill="#000000" font-family="'Inter, Helvetica, Arial, sans-serif'" font-size="12" lengthAdjust="spacing" textLength="245.7246" x="238" y="783.1618">and REAL nodes share one phase model.</text><line style="stroke:#000000;stroke-width:1;" x1="233" x2="645.3691" y1="785.9919" y2="785.9919"/><text fill="#000000" font-family="'Inter, Helvetica, Arial, sans-serif'" font-size="12" lengthAdjust="spacing" textLength="364.3359" x="238" y="801.1305">Perception handoff (ROS topics, not drawn): socket_detector</text><text fill="#000000" font-family="'Inter, Helvetica, Arial, sans-serif'" font-size="12" lengthAdjust="spacing" textLength="57" x="238" y="815.0993">publishes</text><text fill="#000000" font-family="'Inter, Helvetica, Arial, sans-serif'" font-size="12" font-weight="700" lengthAdjust="spacing" textLength="138.9316" x="298.8145" y="815.0993">/robo67/socket_pose</text><text fill="#000000" font-family="'Inter, Helvetica, Arial, sans-serif'" font-size="12" lengthAdjust="spacing" textLength="156.7383" x="441.5605" y="815.0993">and d405_servo publishes</text><text fill="#000000" font-family="'Inter, Helvetica, Arial, sans-serif'" font-size="12" font-weight="700" lengthAdjust="spacing" textLength="168.8086" x="238" y="829.068">/robo67/servo_correction</text><text fill="#000000" font-family="'Inter, Helvetica, Arial, sans-serif'" font-size="12" lengthAdjust="spacing" textLength="224.5605" x="406.8086" y="829.068">, both consumed by the orchestrator.</text></g><!--link C920 to D405--><!--link D405 to MMC--><!--link MMC to FCTRL--><!--link FCTRL to ARM--><!--link FCTRL to ARM--><g class="link" data-entity-1="ent0005" data-entity-2="ent0006" data-link-type="dependency" data-source-line="108" id="lnk65"><path d="M336.77,203.3881 C360.89,234.6481 395.1594,285.0812 409.9294,312.3612" fill="none" id="FCTRL-to-ARM" style="stroke:#2563EB;stroke-width:1;stroke-dasharray:7,7;"/><polygon fill="#2563EB" points="412.31,316.7581,411.5425,306.9392,409.9294,312.3612,404.5074,310.7482,412.31,316.7581" style="stroke:#2563EB;stroke-width:1;stroke-linejoin:miter;stroke-miterlimit:10;"/></g><!--link NDET to NSERVO--><!--link NSERVO to NORCH--><!--link NORCH to NHW--><!--link NHW to NCAL--><!--link PMAP to ADAPT--><!--link ADAPT to CLIFE--><!--link CLIFE to SENV--><!--link HOLE to SERVO--><!--link SERVO to GEOM--><!--link GEOM to SPIRAL--><!--link SPIRAL to WRENCH--><!--link WRENCH to SAFE--><!--link NDET to PMAP--><g class="link" data-entity-1="ent0008" data-entity-2="ent0014" data-link-type="dependency" data-source-line="82" id="lnk42"><path d="M1347.97,351.3781 C1337.04,361.7881 1323.27,375.9681 1313,390.1481 C1294.78,415.2981 1280.903,442.8381 1271.153,464.2381" fill="none" id="NDET-to-PMAP" style="stroke:#3F3F46;stroke-width:1;"/><polygon fill="#3F3F46" points="1269.08,468.7881,1276.4514,462.2565,1271.153,464.2381,1269.1714,458.9397,1269.08,468.7881" style="stroke:#3F3F46;stroke-width:1;stroke-linejoin:miter;stroke-miterlimit:10;"/><text fill="#52525B" font-family="'Inter, Helvetica, Arial, sans-serif'" font-size="12" lengthAdjust="spacing" textLength="77.625" x="1314" y="402.2868">Homography</text></g><!--link NDET to HOLE--><g class="link" data-entity-1="ent0008" data-entity-2="ent0020" data-link-type="dependency" data-source-line="83" id="lnk43"><path d="M1396.43,351.1581 C1424.73,366.1881 1462.87,386.8381 1465,390.1481 C1484.6,420.5981 1493.0491,668.7501 1495.2591,747.1201" fill="none" id="NDET-to-HOLE" style="stroke:#3F3F46;stroke-width:1;"/><polygon fill="#3F3F46" points="1495.4,752.1181,1499.1447,743.0089,1495.2591,747.1201,1491.1479,743.2345,1495.4,752.1181" style="stroke:#3F3F46;stroke-width:1;stroke-linejoin:miter;stroke-miterlimit:10;"/></g><!--link NSERVO to PMAP--><g class="link" data-entity-1="ent0009" data-entity-2="ent0014" data-link-type="dependency" data-source-line="84" id="lnk44"><path d="M1502.19,351.3381 C1487.91,360.5481 1469.57,372.1981 1453,382.1481 C1401.22,413.2481 1344.886,444.8693 1305.356,466.7193" fill="none" id="NSERVO-to-PMAP" style="stroke:#3F3F46;stroke-width:1;"/><polygon fill="#3F3F46" points="1300.98,469.1381,1310.7918,468.2851,1305.356,466.7193,1306.9217,461.2835,1300.98,469.1381" style="stroke:#3F3F46;stroke-width:1;stroke-linejoin:miter;stroke-miterlimit:10;"/><text fill="#52525B" font-family="'Inter, Helvetica, Arial, sans-serif'" font-size="12" lengthAdjust="spacing" textLength="43.8398" x="1438" y="402.2868">Pinhole</text></g><!--link NSERVO to HOLE--><g class="link" data-entity-1="ent0009" data-entity-2="ent0020" data-link-type="dependency" data-source-line="85" id="lnk45"><path d="M1525.86,351.3281 C1521.15,418.2281 1503.5216,668.4005 1497.9816,746.9905" fill="none" id="NSERVO-to-HOLE" style="stroke:#3F3F46;stroke-width:1;"/><polygon fill="#3F3F46" points="1497.63,751.9781,1502.253,743.2817,1497.9816,746.9905,1494.2728,742.7191,1497.63,751.9781" style="stroke:#3F3F46;stroke-width:1;stroke-linejoin:miter;stroke-miterlimit:10;"/></g><!--link NORCH to ADAPT--><g class="link" data-entity-1="ent0010" data-entity-2="ent0015" data-link-type="dependency" data-source-line="86" id="lnk46"><path d="M817.9,358.3181 C790.79,388.0781 747.3674,435.7521 720.3174,465.4421" fill="none" id="NORCH-to-ADAPT" style="stroke:#3F3F46;stroke-width:1;"/><polygon fill="#3F3F46" points="716.95,469.1381,725.9681,465.1792,720.3174,465.4421,720.0545,459.7913,716.95,469.1381" style="stroke:#3F3F46;stroke-width:1;stroke-linejoin:miter;stroke-miterlimit:10;"/><text fill="#52525B" font-family="'Inter, Helvetica, Arial, sans-serif'" font-size="12" lengthAdjust="spacing" textLength="29.0859" x="789" y="402.2868">MMC</text></g><!--link NHW to ADAPT--><g class="link" data-entity-1="ent0011" data-entity-2="ent0015" data-link-type="dependency" data-source-line="87" id="lnk47"><path d="M999.45,358.3581 C982.91,366.8281 963.44,375.8681 945,382.1481 C940.92,383.5381 796.89,411.3081 793,413.1481 C764.15,426.8181 740.0233,447.3407 721.6633,465.3107" fill="none" id="NHW-to-ADAPT" style="stroke:#3F3F46;stroke-width:1;"/><polygon fill="#3F3F46" points="718.09,468.8081,727.3198,465.3715,721.6633,465.3107,721.724,459.6542,718.09,468.8081" style="stroke:#3F3F46;stroke-width:1;stroke-linejoin:miter;stroke-miterlimit:10;"/><text fill="#52525B" font-family="'Inter, Helvetica, Arial, sans-serif'" font-size="12" lengthAdjust="spacing" textLength="66.7852" x="904" y="402.2868">Impedance</text></g><!--link NORCH to CLIFE--><g class="link" data-entity-1="ent0010" data-entity-2="ent0016" data-link-type="dependency" data-source-line="88" id="lnk48"><path d="M845.49,358.3181 C853.84,388.0781 866.8808,434.6336 875.2008,464.3236" fill="none" id="NORCH-to-CLIFE" style="stroke:#3F3F46;stroke-width:1;"/><polygon fill="#3F3F46" points="876.55,469.1381,877.9731,459.3926,875.2008,464.3236,870.2699,461.5513,876.55,469.1381" style="stroke:#3F3F46;stroke-width:1;stroke-linejoin:miter;stroke-miterlimit:10;"/></g><!--link NHW to CLIFE--><g class="link" data-entity-1="ent0011" data-entity-2="ent0016" data-link-type="dependency" data-source-line="89" id="lnk49"><path d="M1021.51,358.4181 C1009.59,372.3281 993.84,390.1381 979,405.1481 C956.7,427.6981 933.6092,448.5128 913.9792,465.6228" fill="none" id="NHW-to-CLIFE" style="stroke:#3F3F46;stroke-width:1;"/><polygon fill="#3F3F46" points="910.21,468.9081,919.6228,466.0099,913.9792,465.6228,914.3663,459.9792,910.21,468.9081" style="stroke:#3F3F46;stroke-width:1;stroke-linejoin:miter;stroke-miterlimit:10;"/></g><!--link NORCH to SENV--><g class="link" data-entity-1="ent0010" data-entity-2="ent0017" data-link-type="dependency" data-source-line="90" id="lnk50"><path d="M885.42,358.1981 C903.66,366.5981 925,375.6281 945,382.1481 C961,387.3581 967.49,381.6381 982,390.1481 C1015,409.4981 1039.5261,441.0349 1055.1061,464.6449" fill="none" id="NORCH-to-SENV" style="stroke:#3F3F46;stroke-width:1;"/><polygon fill="#3F3F46" points="1057.86,468.8181,1056.2416,459.1031,1055.1061,464.6449,1049.5644,463.5094,1057.86,468.8181" style="stroke:#3F3F46;stroke-width:1;stroke-linejoin:miter;stroke-miterlimit:10;"/></g><!--link NHW to SENV--><g class="link" data-entity-1="ent0011" data-entity-2="ent0017" data-link-type="dependency" data-source-line="91" id="lnk51"><path d="M1045.57,358.3181 C1051.45,388.0781 1060.6318,434.5428 1066.4918,464.2328" fill="none" id="NHW-to-SENV" style="stroke:#3F3F46;stroke-width:1;"/><polygon fill="#3F3F46" points="1067.46,469.1381,1069.6416,459.5339,1066.4918,464.2328,1061.793,461.083,1067.46,469.1381" style="stroke:#3F3F46;stroke-width:1;stroke-linejoin:miter;stroke-miterlimit:10;"/></g><!--link NCAL to GEOM--><g class="link" data-entity-1="ent0012" data-entity-2="ent0022" data-link-type="dependency" data-source-line="92" id="lnk52"><path d="M1226.79,351.3381 C1240.36,362.0381 1259.62,375.3081 1279,382.1481 C1296.89,388.4581 1351.23,376.1181 1364,390.1481 C1458.4,493.8581 1386.2957,681.1048 1356.2357,747.3648" fill="none" id="NCAL-to-GEOM" style="stroke:#3F3F46;stroke-width:1;"/><polygon fill="#3F3F46" points="1354.17,751.9181,1361.5309,745.3747,1356.2357,747.3648,1354.2456,742.0696,1354.17,751.9181" style="stroke:#3F3F46;stroke-width:1;stroke-linejoin:miter;stroke-miterlimit:10;"/></g><!--link ADAPT to INTENT--><g class="link" data-entity-1="ent0015" data-entity-2="ent0018" data-link-type="dependency" data-source-line="94" id="lnk53"><path d="M702.13,517.1781 C707.42,537.0681 713.8239,561.1264 719.6239,582.9164" fill="none" id="ADAPT-to-INTENT" style="stroke:#3F3F46;stroke-width:1;"/><polygon fill="#3F3F46" points="720.91,587.7481,722.4604,578.0221,719.6239,582.9164,714.7296,580.0798,720.91,587.7481" style="stroke:#3F3F46;stroke-width:1;stroke-linejoin:miter;stroke-miterlimit:10;"/><text fill="#52525B" font-family="'Inter, Helvetica, Arial, sans-serif'" font-size="12" lengthAdjust="spacing" textLength="151.6582" x="714" y="557.2868">delegates ALL transitions</text></g><!--link INTENT to SPIRAL--><g class="link" data-entity-1="ent0018" data-entity-2="ent0023" data-link-type="dependency" data-source-line="95" id="lnk54"><path d="M732.51,650.3981 C735.97,680.1781 740.603,720.0415 743.743,747.0715" fill="none" id="INTENT-to-SPIRAL" style="stroke:#3F3F46;stroke-width:1;"/><polygon fill="#3F3F46" points="744.32,752.0381,747.2548,742.6367,743.743,747.0715,739.3082,743.5598,744.32,752.0381" style="stroke:#3F3F46;stroke-width:1;stroke-linejoin:miter;stroke-miterlimit:10;"/></g><!--link INTENT to WRENCH--><g class="link" data-entity-1="ent0018" data-entity-2="ent0024" data-link-type="dependency" data-source-line="96" id="lnk55"><path d="M769.13,650.1481 C787.09,663.8581 808.37,680.5081 827,696.1481 C848.56,714.2481 868.5031,732.3883 885.6731,748.3983" fill="none" id="INTENT-to-WRENCH" style="stroke:#3F3F46;stroke-width:1;"/><polygon fill="#3F3F46" points="889.33,751.8081,885.4754,742.7449,885.6731,748.3983,880.0197,748.5959,889.33,751.8081" style="stroke:#3F3F46;stroke-width:1;stroke-linejoin:miter;stroke-miterlimit:10;"/></g><!--link CLIFE to WRENCH--><g class="link" data-entity-1="ent0016" data-entity-2="ent0024" data-link-type="dependency" data-source-line="97" id="lnk56"><path d="M885.59,517.6181 C891.44,570.6481 905.0719,694.1983 910.8919,746.9683" fill="none" id="CLIFE-to-WRENCH" style="stroke:#3F3F46;stroke-width:1;"/><polygon fill="#3F3F46" points="911.44,751.9381,914.4293,742.5539,910.8919,746.9683,906.4775,743.4309,911.44,751.9381" style="stroke:#3F3F46;stroke-width:1;stroke-linejoin:miter;stroke-miterlimit:10;"/></g><!--link SENV to SAFE--><g class="link" data-entity-1="ent0017" data-entity-2="ent0025" data-link-type="dependency" data-source-line="98" id="lnk57"><path d="M1071.16,517.6181 C1069.28,570.6481 1064.8771,694.1713 1063.0071,746.9413" fill="none" id="SENV-to-SAFE" style="stroke:#3F3F46;stroke-width:1;"/><polygon fill="#3F3F46" points="1062.83,751.9381,1067.1462,743.0854,1063.0071,746.9413,1059.1512,742.8021,1062.83,751.9381" style="stroke:#3F3F46;stroke-width:1;stroke-linejoin:miter;stroke-miterlimit:10;"/></g><!--link PMAP to GEOM--><g class="link" data-entity-1="ent0014" data-entity-2="ent0022" data-link-type="dependency" data-source-line="99" id="lnk58"><path d="M1266.02,517.6181 C1281.87,570.6481 1318.8583,694.3775 1334.6283,747.1475" fill="none" id="PMAP-to-GEOM" style="stroke:#3F3F46;stroke-width:1;"/><polygon fill="#3F3F46" points="1336.06,751.9381,1337.3155,742.1696,1334.6283,747.1475,1329.6505,744.4603,1336.06,751.9381" style="stroke:#3F3F46;stroke-width:1;stroke-linejoin:miter;stroke-miterlimit:10;"/></g><!--link PMAP to SERVO--><g class="link" data-entity-1="ent0014" data-entity-2="ent0021" data-link-type="dependency" data-source-line="100" id="lnk59"><path d="M1253.24,517.6181 C1240.22,570.6481 1209.8525,694.3124 1196.8925,747.0824" fill="none" id="PMAP-to-SERVO" style="stroke:#3F3F46;stroke-width:1;"/><polygon fill="#3F3F46" points="1195.7,751.9381,1201.7311,744.1519,1196.8925,747.0824,1193.962,742.2438,1195.7,751.9381" style="stroke:#3F3F46;stroke-width:1;stroke-linejoin:miter;stroke-miterlimit:10;"/></g><!--link C920 to NDET--><g class="link" data-entity-1="ent0002" data-entity-2="ent0008" data-link-type="dependency" data-source-line="103" id="lnk60"><path d="M536.21,200.6881 C539.84,201.6181 543.45,202.4481 547,203.1481 C707.01,234.5181 1129.49,189.0781 1279,254.1481 C1310.8,267.9881 1335.5879,294.3988 1350.7679,313.1888" fill="none" id="C920-to-NDET" style="stroke:#2563EB;stroke-width:1;stroke-dasharray:7,7;"/><polygon fill="#2563EB" points="1353.91,317.0781,1351.3657,307.5636,1350.7679,313.1888,1345.1427,312.591,1353.91,317.0781" style="stroke:#2563EB;stroke-width:1;stroke-linejoin:miter;stroke-miterlimit:10;"/><text fill="#52525B" font-family="'Inter, Helvetica, Arial, sans-serif'" font-size="12" lengthAdjust="spacing" textLength="41.8359" x="1250" y="243.2868">frames</text></g><!--link D405 to NSERVO--><g class="link" data-entity-1="ent0003" data-entity-2="ent0009" data-link-type="dependency" data-source-line="104" id="lnk61"><path d="M688.21,183.5381 C808.7,190.1581 1074.24,206.3281 1297,231.1481 C1366.65,238.9081 1390.91,221.6481 1453,254.1481 C1481.14,268.8781 1501.562,294.4511 1514.112,312.9411" fill="none" id="D405-to-NSERVO" style="stroke:#2563EB;stroke-width:1;stroke-dasharray:7,7;"/><polygon fill="#2563EB" points="1516.92,317.0781,1515.1752,307.385,1514.112,312.9411,1508.556,311.8778,1516.92,317.0781" style="stroke:#2563EB;stroke-width:1;stroke-linejoin:miter;stroke-miterlimit:10;"/><text fill="#52525B" font-family="'Inter, Helvetica, Arial, sans-serif'" font-size="12" lengthAdjust="spacing" textLength="41.8359" x="1436" y="243.2868">frames</text></g><!--link NORCH to MMC--><g class="link" data-entity-1="ent0010" data-entity-2="ent0004" data-link-type="dependency" data-source-line="105" id="lnk62"><path d="M807.61,310.0981 C780.74,291.6581 740.27,266.8481 701,254.1481 C496.45,187.9981 432.1,238.1881 220,203.1481 C216.24,202.5281 217.3275,202.7526 213.4675,202.0426" fill="none" id="NORCH-to-MMC" style="stroke:#2563EB;stroke-width:1;stroke-dasharray:7,7;"/><polygon fill="#2563EB" points="208.55,201.1381,216.6779,206.7003,213.4675,202.0426,218.1251,198.8322,208.55,201.1381" style="stroke:#2563EB;stroke-width:1;stroke-linejoin:miter;stroke-miterlimit:10;"/><text fill="#52525B" font-family="'Inter, Helvetica, Arial, sans-serif'" font-size="12" lengthAdjust="spacing" textLength="25.6465" x="666" y="243.2868">goal</text></g><!--link NHW to FCTRL--><g class="link" data-entity-1="ent0011" data-entity-2="ent0005" data-link-type="dependency" data-source-line="106" id="lnk63"><path d="M1019.64,309.9781 C1001.56,291.8481 974,267.5381 945,254.1481 C728.54,154.2181 646.66,239.2681 411,203.1481 C407.27,202.5781 408.3985,202.8371 404.5685,202.1371" fill="none" id="NHW-to-FCTRL" style="stroke:#2563EB;stroke-width:1;stroke-dasharray:7,7;"/><polygon fill="#2563EB" points="399.65,201.2381,407.7842,206.7911,404.5685,202.1371,409.2225,198.9214,399.65,201.2381" style="stroke:#2563EB;stroke-width:1;stroke-linejoin:miter;stroke-miterlimit:10;"/><text fill="#52525B" font-family="'Inter, Helvetica, Arial, sans-serif'" font-size="12" lengthAdjust="spacing" textLength="79.1133" x="920" y="243.2868">pose_desired</text></g><!--link MMC to ARM--><g class="link" data-entity-1="ent0004" data-entity-2="ent0006" data-link-type="dependency" data-source-line="107" id="lnk64"><path d="M163.24,203.2181 C224.62,234.5281 328.2958,287.3965 381.7658,314.6665" fill="none" id="MMC-to-ARM" style="stroke:#2563EB;stroke-width:1;stroke-dasharray:7,7;"/><polygon fill="#2563EB" points="386.22,316.9381,380.0198,309.2858,381.7658,314.6665,376.3852,316.4125,386.22,316.9381" style="stroke:#2563EB;stroke-width:1;stroke-linejoin:miter;stroke-miterlimit:10;"/></g><!--link ARM to NORCH--><g class="link" data-entity-1="ent0006" data-entity-2="ent0010" data-link-type="dependency" data-source-line="109" id="lnk66"><path d="M490.37,334.1481 C560.55,334.1481 662.4,334.1481 739.3,334.1481" fill="none" id="ARM-to-NORCH" style="stroke:#2563EB;stroke-width:1;stroke-dasharray:7,7;"/><polygon fill="#2563EB" points="744.3,334.1481,735.3,330.1481,739.3,334.1481,735.3,338.1481,744.3,334.1481" style="stroke:#2563EB;stroke-width:1;stroke-linejoin:miter;stroke-miterlimit:10;"/><text fill="#52525B" font-family="'Inter, Helvetica, Arial, sans-serif'" font-size="12" lengthAdjust="spacing" textLength="72.8613" x="581.25" y="328.2868">FrankaState</text></g><!--link ARM to NHW--><g class="link" data-entity-1="ent0006" data-entity-2="ent0011" data-link-type="dependency" data-source-line="110" id="lnk67"><path d="M468.07,317.0881 C530.25,296.8781 639.99,264.4181 737,252.1481 C769.63,248.0181 778.11,251.8981 811,252.1481 C870.56,252.5881 889.15,233.4581 945,254.1481 C975.31,265.3781 999.4631,286.9692 1017.1931,306.1192" fill="none" id="ARM-to-NHW" style="stroke:#2563EB;stroke-width:1;stroke-dasharray:7,7;"/><polygon fill="#2563EB" points="1020.59,309.7881,1017.4108,300.4665,1017.1931,306.1192,1011.5404,305.9015,1020.59,309.7881" style="stroke:#2563EB;stroke-width:1;stroke-linejoin:miter;stroke-miterlimit:10;"/><text fill="#52525B" font-family="'Inter, Helvetica, Arial, sans-serif'" font-size="12" lengthAdjust="spacing" textLength="72.8613" x="738" y="243.2868">FrankaState</text></g><g class="legend" data-source-line="125"><rect fill="none" height="58.8906" rx="5" ry="5" style="stroke:#000000;stroke-width:1;" width="605.2188" x="506.8906" y="854.8981"/><text fill="#3F3F46" font-family="'Inter, Helvetica, Arial, sans-serif'" font-size="14" lengthAdjust="spacing" textLength="48.7061" x="511.8906" y="872.8932">solid &#8594;</text><text fill="#000000" font-family="'Inter, Helvetica, Arial, sans-serif'" font-size="14" lengthAdjust="spacing" textLength="230.8223" x="569.4971" y="872.8932">uses / composes (Python import)</text><text fill="#2563EB" font-family="'Inter, Helvetica, Arial, sans-serif'" font-size="14" lengthAdjust="spacing" textLength="102.0264" x="835.9209" y="872.8932">blue dashed &#8674;</text><text fill="#000000" font-family="'Inter, Helvetica, Arial, sans-serif'" font-size="14" lengthAdjust="spacing" textLength="160.2617" x="946.8477" y="872.8932">ROS 2 message (topic)</text><text fill="#000000" font-family="'Inter, Helvetica, Arial, sans-serif'" font-size="14" lengthAdjust="spacing" textLength="547.4766" x="511.8906" y="889.1901">Both insertion nodes drive the SAME insertion_intent; SIM vs REAL differs only</text><text fill="#000000" font-family="'Inter, Helvetica, Arial, sans-serif'" font-size="14" lengthAdjust="spacing" textLength="409.6436" x="511.8906" y="905.487">in the command-path adapter + safety profile they select.</text></g><?plantuml-src hLZDRkF84RxpAIeQO5TMBCkMnpDOxOm1MQRM1lm7oPb1i5u8BR8bDgRPpNHJTZH1W9oISu8yGB8vxWFaaDiyoZn9ghf9YlhnR10iTH6xgwghgxxwuzVmzfTxWgzXfAVwrMjej-6Epzj2jI-qv72fB3Uvq0e6j-SXz4U3YylxS73_cr48pJpXq4Zq4uWSPYAt3R0Yvdiex8ejkU4nH3hDjE8gXqV1dtfWy90S8Yubj4yXJuI2qUqOb8wvfPM8AQr4n2Ha2yF1SfPQ58SxcH6foCKZjmTmnMSeHCj5gk0jPDn4F7CwPYBZKYY-3qRCangDAA-1mbP4LaFCCwvYhYA12imatiNcXZdcM3-f0wGVSux_8zjXiUaS7XuUjIijsvLS_9VZDTkfZXUI7wGnClwI_laLsZhba4acL60_29KnmrAOikZ3tEY5YWTQQWClXkwfKTY4uKM4ciECISjhEmMRKTp0qM5j8-Opjf3vKAlyXk6XZKkyczc72ouVUOxtteU-4KoY0PcoRRI0c3Lsyu_5Hmv7tTfcXOXnlaHy6HxbJCrbNJ671fv1jyvdcFf0YoSdjSM-CVgfkFdny7ZuyjNcvdqYeW-AMmj7crkaNy5xqiNVMOtW3ktAvjnTmUavrJBUlL-8wBx6Nt-Rv5xaalUbcAkKma0YT8CWfyKouZx_wU_FX5pVH8d8qK8O2m_gZKLZzewwfsyYEh9NQ7qgATOAyEOwWyz__Xkgc-SwXK__NY4VWOqQ0VwXi2KzQBiMFCMEYvmt7NV6wPiE7NeQb6ZsWGs7FKYOYPyOncYd7jJDgLpmlPz1Vf1vqq03uFDV_-7iKF2JBInNLkE5le81CpctWYb4ZSgDbf8kYcpCmjKXl0Y7mrV38VmXW5gYQUX7RXBEOcYr1jzq3rkj1zKSVNU6kINbXktXeQi71H4Dm8lpix0_3DSbyIKdhoHCaR3pbuSdJXZcZ3pP4eUYYE8PKTVN0-GehZCHQSPZfYBqwgUVnfVNjVjz-a_32oEEPuJDA1ZOf6QK1qMsEe1AC7pwQHJshvmq53OSt8-kTWjhjOPE709MnGoOILkjDHjjsAi_kYQzpeRdPoZgZvlGEEgvZDujSdfpRZXNU_zhBbo7nZ_NH14sNCKmaSoMy6HObX4Ucae3vcnbXOEnr7CHxPKeESAKU3Wy7xxSH8dLqGUUJs9EyQNDXCxuqhLlpiDxvu_1S12-NfSLezyd66QF-ijYAbdZSFJkThUiAbud6gEVKpKgrIl1qd7Oo5YUL62vkSN2l5jW6QYJbUHI626475wJLQbuyVwvssBT4rFKgfJK-BdR3l2KbQmjn7HxjRBlAZuqDVfpphzTPQ-9hwzOY5EXcCehHAqZvaVC6UkY23Mkby1absYRjp44SpR5FDlCblH_7-7b8TL1j7MYnsu5dgwhfw_3yqtmPEBtN4vI120MrWTreLCzHpWcIphbJgW4ytYZReExw_uTaBJmyAoxOKwTfXXv4_B1XCKiorqyaujHs6KPq8rL09xtx-wVawKmoUSJAMOyMaOIlJnbrdKxiCXYblFE3EFn8ozWCxYw78QxHLasu_bomjKZbphZsmfXHwPdGd9Ro1g7D--UkMAhjUb7ogETJbNfBjtYjUkTEfq7vKETm-rD25c2Dm3igxWh3yupbpVtuGtPuEoRxl5W6rB7lLg_2Cr7WVx8_yyaz2-uMuaYnQOB8MDggAOISuXrYdgikIkZiWLyZb71_l1akq8HF8hCyu2T9u8FEqptYhOep7bnUnLIr8JduUlXgmtVKAfnoBiyUpV67MDMl52wWrBCRluvrodFpV91aReMVesHKIAuKV1_5zvUFtj-9WoJ3yhr9ocFELPeFPjPdgzGEhwx767Sx-H_CjXm9myglExZsGLe2mkKvxyVXJUKqdQUxx29ffCipJ0TigasUMCzwuonqDNqTn1fuuCffUqw9jS2jK_zeA1DZ5qi-hIPY1Z70U3ndDiznx7h2LpNqFxUK__WXBHT_GzS4x2vWy4JK01jhhkw7FZglBc7XJPmLMTpmvUFeAWYMxjK2W9V4BRsBju7bDctrZ551ov7RIb1oIRmAMTppsMFmEUGpJtA1e73yFOEARzRTm9Tu92tnUNW51IesjprO0aAp6pnKizJPGWVfBvNwC3TCa_m3_PD225eMYr5lEz6FwoPyNCf8oYwWJOEfZwrGmzMLQ2-JJQeN5KdByf4VS_JEi-vTszsf2Nu-8gylbubupgNTqkDl5XOKJZdr0Zyko_JzExSK3ZTBHJvjeSnAlaSomXMeQkhMjTbWuB4YVE-ggqK_l5GgQ_uek6vo4k5TIebQkyUDvKRVMUOucI7cTgY9wk1H6eSWjmW0Z6p2N_MYszz5CF1zo-w9w-EmxCV3awXRFHwW5qsYlVnl4dZVLRHUDkkq_Z-7Mdccid2skiKFkoHWh8mrWCh38y3pxTEIQd0Ks-l-tvyGp_lwnxurdwSeyjs4teGh1C6IkVSTMv7PGE4-NTN4GTXQwDBcyqLTbWYwj478GmXM-PsPA_gspxuye5HPdJMCLI8zebm9apgNgaOV5MoJZuU8FUWEWH-jn06gsuJfocZQQ1c6B1JR5AUsdPXPWmxapdBx3uaNCOmsaDkYRKRUuchtsBoT-MwwBdQr7D1sNCL0mRBwLPFsCiH9VRRA806GDSi-qd49eGpB4RrveJKTAK1S9glXcgQ7R4qGfFmYjEvY2mrd5Zj37jIUptOc4EGErjCfK3SMZHvnxXl19s2Ye22LYTrLZF7Yi5vgM9nyyYgDsYrzkcpG4A6jGkisZ3rLwpF6GS1Hzda_p9y3muG1a60OKyx_hi2dbD-W_1VNKvTtgGl3-M70u25TM5Pz4JeiBLKkrUMwbAG1-LfBMpXyrz-N8bRYtTeEbEIRy_eIgkF7Dv1iI6FE__rhyEjAU9RSYiyMk_JMCncv7wjv185VW4YsApurgFiVOboYSsVH1Cxqtap1Vy5?></g></svg>