<?xml version="1.0" encoding="UTF-8" standalone="no"?><svg xmlns="http://www.w3.org/2000/svg" xmlns:xlink="http://www.w3.org/1999/xlink" contentScriptType="application/ecmascript" contentStyleType="text/css" height="2629px" preserveAspectRatio="none" style="width:685px;height:2629px;" version="1.1" viewBox="0 0 685 2629" width="685px" zoomAndPan="magnify"><defs/><g><text fill="#000000" font-family="Inter, Helvetica, Arial, sans-serif" font-size="12" lengthAdjust="spacingAndGlyphs" textLength="361" x="161.25" y="21.1387">Robo67 — Peg-in-Hole Insertion Workflow (Vision + Force)</text><ellipse cx="231" cy="33.9688" fill="#000000" rx="10" ry="10" style="stroke: none; stroke-width: 1.0;"/><rect fill="#FFFFFF" height="456.7344" rx="3" ry="3" style="stroke: #000000; stroke-width: 2.0;" width="664.5" x="10" y="54.2988"/><path d="M168,55.2988 L168,61.2676 L158,71.2676 L10,71.2676 " fill="none" style="stroke: #000000; stroke-width: 2.0;"/><text fill="#000000" font-family="Inter, Helvetica, Arial, sans-serif" font-size="12" lengthAdjust="spacingAndGlyphs" textLength="148" x="13" y="66.4375">Perceive socket (vision)</text><rect fill="#F4F4F5" height="33.9688" rx="12.5" ry="12.5" style="stroke: #3F3F46; stroke-width: 1.5;" width="190" x="136" y="88.2676"/><text fill="#000000" font-family="Inter, Helvetica, Arial, sans-serif" font-size="12" lengthAdjust="spacingAndGlyphs" textLength="93" x="146" y="109.4063">Grab overhead</text><text fill="#000000" font-family="Inter, Helvetica, Arial, sans-serif" font-size="12" font-weight="bold" lengthAdjust="spacingAndGlyphs" textLength="33" x="243" y="109.4063">C920</text><text fill="#000000" font-family="Inter, Helvetica, Arial, sans-serif" font-size="12" lengthAdjust="spacingAndGlyphs" textLength="36" x="280" y="109.4063">frame</text><rect fill="#F4F4F5" height="33.9688" rx="12.5" ry="12.5" style="stroke: #3F3F46; stroke-width: 1.5;" width="304" x="79" y="142.2363"/><text fill="#000000" font-family="Inter, Helvetica, Arial, sans-serif" font-size="12" font-weight="bold" lengthAdjust="spacingAndGlyphs" textLength="101" x="89" y="163.375">detect_holes()</text><text fill="#000000" font-family="Inter, Helvetica, Arial, sans-serif" font-size="12" lengthAdjust="spacingAndGlyphs" textLength="179" x="194" y="163.375">→ best dark circle pixel (u, v)</text><path d="M377.5,201.2051 L377.5,216.1738 L357.5,220.1738 L377.5,224.1738 L377.5,239.1426 A0,0 0 0 0 377.5,239.1426 L664.5,239.1426 A0,0 0 0 0 664.5,239.1426 L664.5,211.2051 L654.5,201.2051 L377.5,201.2051 A0,0 0 0 0 377.5,201.2051 " fill="#FBFB77" style="stroke: #A80036; stroke-width: 1.0;"/><path d="M654.5,201.2051 L654.5,211.2051 L664.5,211.2051 L654.5,201.2051 " fill="#FBFB77" style="stroke: #A80036; stroke-width: 1.0;"/><text fill="#000000" font-family="Inter, Helvetica, Arial, sans-serif" font-size="12" lengthAdjust="spacingAndGlyphs" textLength="68" x="383.5" y="217.3438">Socket-top</text><text fill="#000000" font-family="Inter, Helvetica, Arial, sans-serif" font-size="12" font-weight="bold" lengthAdjust="spacingAndGlyphs" textLength="10" x="455.5" y="217.3438">Z</text><text fill="#000000" font-family="Inter, Helvetica, Arial, sans-serif" font-size="12" lengthAdjust="spacingAndGlyphs" textLength="153" x="469.5" y="217.3438">is taught / force-probed,</text><text fill="#000000" font-family="Inter, Helvetica, Arial, sans-serif" font-size="12" lengthAdjust="spacingAndGlyphs" textLength="266" x="383.5" y="231.3125">not recovered from one overhead camera.</text><rect fill="#F4F4F5" height="47.9375" rx="12.5" ry="12.5" style="stroke: #3F3F46; stroke-width: 1.5;" width="253" x="104.5" y="196.2051"/><text fill="#000000" font-family="Inter, Helvetica, Arial, sans-serif" font-size="12" font-weight="bold" lengthAdjust="spacingAndGlyphs" textLength="208" x="114.5" y="217.3438">HomographyMappingAdapter</text><text fill="#000000" font-family="Inter, Helvetica, Arial, sans-serif" font-size="12" lengthAdjust="spacingAndGlyphs" textLength="10" x="326.5" y="217.3438">→</text><text fill="#000000" font-family="Inter, Helvetica, Arial, sans-serif" font-size="12" lengthAdjust="spacingAndGlyphs" textLength="233" x="114.5" y="231.3125">socket centre XY in robot base frame</text><rect fill="#F4F4F5" height="33.9688" rx="12.5" ry="12.5" style="stroke: #3F3F46; stroke-width: 1.5;" width="188" x="137" y="313.127"/><text fill="#000000" font-family="Inter, Helvetica, Arial, sans-serif" font-size="12" lengthAdjust="spacingAndGlyphs" textLength="88" x="147" y="334.2656">Detect hole in</text><text fill="#000000" font-family="Inter, Helvetica, Arial, sans-serif" font-size="12" font-weight="bold" lengthAdjust="spacingAndGlyphs" textLength="34" x="239" y="334.2656">D405</text><text fill="#000000" font-family="Inter, Helvetica, Arial, sans-serif" font-size="12" lengthAdjust="spacingAndGlyphs" textLength="38" x="277" y="334.2656">image</text><rect fill="#F4F4F5" height="33.9688" rx="12.5" ry="12.5" style="stroke: #3F3F46; stroke-width: 1.5;" width="402" x="30" y="367.0957"/><text fill="#000000" font-family="Inter, Helvetica, Arial, sans-serif" font-size="12" font-weight="bold" lengthAdjust="spacingAndGlyphs" textLength="171" x="40" y="388.2344">PinholeMappingAdapter</text><text fill="#000000" font-family="Inter, Helvetica, Arial, sans-serif" font-size="12" lengthAdjust="spacingAndGlyphs" textLength="207" x="215" y="388.2344">→ unscaled XY correction (dx, dy)</text><rect fill="#F4F4F5" height="33.9688" rx="12.5" ry="12.5" style="stroke: #3F3F46; stroke-width: 1.5;" width="240" x="111" y="421.0645"/><text fill="#000000" font-family="Inter, Helvetica, Arial, sans-serif" font-size="12" lengthAdjust="spacingAndGlyphs" textLength="220" x="121" y="442.2031">Apply servo gain → refine socket XY</text><polygon fill="#FFFFFF" points="137,264.1426,325,264.1426,337,276.1426,325,288.1426,137,288.1426,125,276.1426,137,264.1426" style="stroke: #A80036; stroke-width: 1.5;"/><text fill="#52525B" font-family="Inter, Helvetica, Arial, sans-serif" font-size="12" lengthAdjust="spacingAndGlyphs" textLength="21" x="235" y="299.2813">yes</text><text fill="#000000" font-family="Inter, Helvetica, Arial, sans-serif" font-size="12" lengthAdjust="spacingAndGlyphs" textLength="188" x="137" y="280.2969">D405 eye-in-hand refinement?</text><text fill="#52525B" font-family="Inter, Helvetica, Arial, sans-serif" font-size="12" lengthAdjust="spacingAndGlyphs" textLength="16" x="337" y="273.3125">no</text><polygon fill="#FFFFFF" points="231,475.0332,243,487.0332,231,499.0332,219,487.0332,231,475.0332" style="stroke: #A80036; stroke-width: 1.5;"/><rect fill="#FFFFFF" height="251.8125" rx="3" ry="3" style="stroke: #000000; stroke-width: 2.0;" width="626.5" x="41" y="521.3633"/><path d="M282,522.3633 L282,528.332 L272,538.332 L41,538.332 " fill="none" style="stroke: #000000; stroke-width: 2.0;"/><text fill="#000000" font-family="Inter, Helvetica, Arial, sans-serif" font-size="12" lengthAdjust="spacingAndGlyphs" textLength="231" x="44" y="533.502">MOVE_ABOVE  (free-space approach)</text><rect fill="#F4F4F5" height="33.9688" rx="12.5" ry="12.5" style="stroke: #3F3F46; stroke-width: 1.5;" width="360" x="51" y="555.332"/><text fill="#000000" font-family="Inter, Helvetica, Arial, sans-serif" font-size="12" lengthAdjust="spacingAndGlyphs" textLength="340" x="61" y="576.4707">Servo toward socket XY at standoff (≈5 cm above top)</text><path d="M344.5,643.3008 L344.5,672.2383 L324.5,676.2383 L344.5,680.2383 L344.5,709.1758 A0,0 0 0 0 344.5,709.1758 L633.5,709.1758 A0,0 0 0 0 633.5,709.1758 L633.5,653.3008 L623.5,643.3008 L344.5,643.3008 A0,0 0 0 0 344.5,643.3008 " fill="#FBFB77" style="stroke: #A80036; stroke-width: 1.0;"/><path d="M623.5,643.3008 L623.5,653.3008 L633.5,653.3008 L623.5,643.3008 " fill="#FBFB77" style="stroke: #A80036; stroke-width: 1.0;"/><text fill="#000000" font-family="Inter, Helvetica, Arial, sans-serif" font-size="12" font-weight="bold" lengthAdjust="spacingAndGlyphs" textLength="104" x="350.5" y="659.4395">Force baseline</text><text fill="#000000" font-family="Inter, Helvetica, Arial, sans-serif" font-size="12" lengthAdjust="spacingAndGlyphs" textLength="160" x="458.5" y="659.4395">(ContactLifecycleModule):</text><text fill="#000000" font-family="Inter, Helvetica, Arial, sans-serif" font-size="12" lengthAdjust="spacingAndGlyphs" textLength="206" x="350.5" y="673.4082">EMA tracks Fz ONLY in free space</text><text fill="#000000" font-family="Inter, Helvetica, Arial, sans-serif" font-size="12" lengthAdjust="spacingAndGlyphs" textLength="242" x="350.5" y="687.377">(IDLE / MOVE_ABOVE), then FROZEN for</text><text fill="#000000" font-family="Inter, Helvetica, Arial, sans-serif" font-size="12" lengthAdjust="spacingAndGlyphs" textLength="241" x="350.5" y="701.3457">every contact phase as the reference.</text><rect fill="#F4F4F5" height="33.9688" rx="12.5" ry="12.5" style="stroke: #3F3F46; stroke-width: 1.5;" width="187" x="137.5" y="659.2539"/><text fill="#000000" font-family="Inter, Helvetica, Arial, sans-serif" font-size="12" lengthAdjust="spacingAndGlyphs" textLength="167" x="147.5" y="680.3926">Step toward standoff pose</text><polygon fill="#FFFFFF" points="231,609.3008,243,621.3008,231,633.3008,219,621.3008,231,609.3008" style="stroke: #A80036; stroke-width: 1.5;"/><polygon fill="#FFFFFF" points="144,729.1758,318,729.1758,330,741.1758,318,753.1758,144,753.1758,132,741.1758,144,729.1758" style="stroke: #A80036; stroke-width: 1.5;"/><text fill="#52525B" font-family="Inter, Helvetica, Arial, sans-serif" font-size="12" lengthAdjust="spacingAndGlyphs" textLength="21" x="235" y="764.3145">yes</text><text fill="#000000" font-family="Inter, Helvetica, Arial, sans-serif" font-size="12" lengthAdjust="spacingAndGlyphs" textLength="174" x="144" y="745.3301">within approach tol (3 mm)?</text><text fill="#52525B" font-family="Inter, Helvetica, Arial, sans-serif" font-size="12" lengthAdjust="spacingAndGlyphs" textLength="16" x="330" y="738.3457">no</text><rect fill="#FFFFFF" height="234.5449" rx="3" ry="3" style="stroke: #000000; stroke-width: 2.0;" width="345" x="78" y="783.5059"/><path d="M348,784.5059 L348,790.4746 L338,800.4746 L78,800.4746 " fill="none" style="stroke: #000000; stroke-width: 2.0;"/><text fill="#000000" font-family="Inter, Helvetica, Arial, sans-serif" font-size="12" lengthAdjust="spacingAndGlyphs" textLength="260" x="81" y="795.6445">DESCEND_TO_CONTACT  (find the surface)</text><rect fill="#F4F4F5" height="33.9688" rx="12.5" ry="12.5" style="stroke: #3F3F46; stroke-width: 1.5;" width="241" x="110.5" y="861.4746"/><text fill="#000000" font-family="Inter, Helvetica, Arial, sans-serif" font-size="12" lengthAdjust="spacingAndGlyphs" textLength="221" x="120.5" y="882.6133">Lower equilibrium one step, read Fz</text><polygon fill="#FFFFFF" points="231,817.4746,243,829.4746,231,841.4746,219,829.4746,231,817.4746" style="stroke: #A80036; stroke-width: 1.5;"/><polygon fill="#FFFFFF" points="100,915.4434,362,915.4434,374,927.4434,362,939.4434,100,939.4434,88,927.4434,100,915.4434" style="stroke: #A80036; stroke-width: 1.5;"/><text fill="#52525B" font-family="Inter, Helvetica, Arial, sans-serif" font-size="12" lengthAdjust="spacingAndGlyphs" textLength="53" x="235" y="950.582">contact!</text><text fill="#000000" font-family="Inter, Helvetica, Arial, sans-serif" font-size="12" lengthAdjust="spacingAndGlyphs" textLength="262" x="100" y="931.5977">|Fz − baseline| ≥ contact threshold (5 N)?</text><text fill="#52525B" font-family="Inter, Helvetica, Arial, sans-serif" font-size="12" lengthAdjust="spacingAndGlyphs" textLength="44" x="374" y="924.6133">not yet</text><rect fill="#F4F4F5" height="33.9688" rx="12.5" ry="12.5" style="stroke: #3F3F46; stroke-width: 1.5;" width="264" x="99" y="972.082"/><text fill="#000000" font-family="Inter, Helvetica, Arial, sans-serif" font-size="12" lengthAdjust="spacingAndGlyphs" textLength="44" x="109" y="993.2207">Record</text><text fill="#000000" font-family="Inter, Helvetica, Arial, sans-serif" font-size="12" font-weight="bold" lengthAdjust="spacingAndGlyphs" textLength="67" x="157" y="993.2207">contact_z</text><text fill="#000000" font-family="Inter, Helvetica, Arial, sans-serif" font-size="12" lengthAdjust="spacingAndGlyphs" textLength="125" x="228" y="993.2207">= socket-top height</text><rect fill="#FFFFFF" height="589.3652" rx="3" ry="3" style="stroke: #000000; stroke-width: 2.0;" width="359" x="71" y="1082.3496"/><path d="M290,1083.3496 L290,1089.3184 L280,1099.3184 L71,1099.3184 " fill="none" style="stroke: #000000; stroke-width: 2.0;"/><text fill="#000000" font-family="Inter, Helvetica, Arial, sans-serif" font-size="12" lengthAdjust="spacingAndGlyphs" textLength="209" x="74" y="1094.4883">SEARCH_SPIRAL  (locate the hole)</text><rect fill="#F4F4F5" height="47.9375" rx="12.5" ry="12.5" style="stroke: #3F3F46; stroke-width: 1.5;" width="282" x="90" y="1160.3184"/><text fill="#000000" font-family="Inter, Helvetica, Arial, sans-serif" font-size="12" lengthAdjust="spacingAndGlyphs" textLength="38" x="100" y="1181.457">Follow</text><text fill="#000000" font-family="Inter, Helvetica, Arial, sans-serif" font-size="12" font-weight="bold" lengthAdjust="spacingAndGlyphs" textLength="136" x="142" y="1181.457">Archimedean spiral</text><text fill="#000000" font-family="Inter, Helvetica, Arial, sans-serif" font-size="12" lengthAdjust="spacingAndGlyphs" textLength="79" x="282" y="1181.457">(pitch 2 mm)</text><text fill="#000000" font-family="Inter, Helvetica, Arial, sans-serif" font-size="12" lengthAdjust="spacingAndGlyphs" textLength="262" x="100" y="1195.4258">while pressing gently below contact plane</text><rect fill="#F4F4F5" height="47.9375" rx="12.5" ry="12.5" style="stroke: #3F3F46; stroke-width: 1.5;" width="185" x="138.5" y="1277.2402"/><text fill="#000000" font-family="Inter, Helvetica, Arial, sans-serif" font-size="12" lengthAdjust="spacingAndGlyphs" textLength="165" x="148.5" y="1298.3789">Restart spiral from centre;</text><text fill="#000000" font-family="Inter, Helvetica, Arial, sans-serif" font-size="12" lengthAdjust="spacingAndGlyphs" textLength="61" x="148.5" y="1312.3477">retries++</text><rect fill="#FFD9D9" height="33.9688" rx="12.5" ry="12.5" style="stroke: #3F3F46; stroke-width: 1.5;" width="199" x="131.5" y="1394.1621"/><text fill="#000000" font-family="Inter, Helvetica, Arial, sans-serif" font-size="12" font-weight="bold" lengthAdjust="spacingAndGlyphs" textLength="46" x="141.5" y="1415.3008">ERROR</text><text fill="#000000" font-family="Inter, Helvetica, Arial, sans-serif" font-size="12" lengthAdjust="spacingAndGlyphs" textLength="129" x="191.5" y="1415.3008">— search exhausted</text><ellipse cx="231" cy="1467.6465" fill="#FFFFFF" rx="11" ry="11" style="stroke: #000000; stroke-width: 1.0;"/><ellipse cx="231" cy="1467.6465" fill="#000000" rx="6" ry="6" style="stroke: #7F7F7F; stroke-width: 1.0;"/><polygon fill="#FFFFFF" points="175,1345.1777,287,1345.1777,299,1357.1777,287,1369.1777,175,1369.1777,163,1357.1777,175,1345.1777" style="stroke: #A80036; stroke-width: 1.5;"/><text fill="#52525B" font-family="Inter, Helvetica, Arial, sans-serif" font-size="12" lengthAdjust="spacingAndGlyphs" textLength="21" x="235" y="1380.3164">yes</text><text fill="#000000" font-family="Inter, Helvetica, Arial, sans-serif" font-size="12" lengthAdjust="spacingAndGlyphs" textLength="112" x="175" y="1361.332">retries &gt; limit (3)?</text><polygon fill="#FFFFFF" points="140,1228.2559,322,1228.2559,334,1240.2559,322,1252.2559,140,1252.2559,128,1240.2559,140,1228.2559" style="stroke: #A80036; stroke-width: 1.5;"/><text fill="#52525B" font-family="Inter, Helvetica, Arial, sans-serif" font-size="12" lengthAdjust="spacingAndGlyphs" textLength="95" x="235" y="1263.3945">yes, exhausted</text><text fill="#000000" font-family="Inter, Helvetica, Arial, sans-serif" font-size="12" lengthAdjust="spacingAndGlyphs" textLength="182" x="140" y="1244.4102">spiral radius &gt; max (12 mm)?</text><text fill="#52525B" font-family="Inter, Helvetica, Arial, sans-serif" font-size="12" lengthAdjust="spacingAndGlyphs" textLength="16" x="334" y="1237.4258">no</text><polygon fill="#FFFFFF" points="231,1520.6465,243,1532.6465,231,1544.6465,219,1532.6465,231,1520.6465" style="stroke: #A80036; stroke-width: 1.5;"/><polygon fill="#FFFFFF" points="231,1116.3184,243,1128.3184,231,1140.3184,219,1128.3184,231,1116.3184" style="stroke: #A80036; stroke-width: 1.5;"/><polygon fill="#FFFFFF" points="93,1564.6465,369,1564.6465,381,1576.6465,369,1588.6465,93,1588.6465,81,1576.6465,93,1564.6465" style="stroke: #A80036; stroke-width: 1.5;"/><text fill="#52525B" font-family="Inter, Helvetica, Arial, sans-serif" font-size="12" lengthAdjust="spacingAndGlyphs" textLength="73" x="235" y="1599.7852">dropped in!</text><text fill="#000000" font-family="Inter, Helvetica, Arial, sans-serif" font-size="12" lengthAdjust="spacingAndGlyphs" textLength="276" x="93" y="1580.8008">peg dropped in?  (ee_z &lt; contact_z − 4 mm)</text><text fill="#52525B" font-family="Inter, Helvetica, Arial, sans-serif" font-size="12" lengthAdjust="spacingAndGlyphs" textLength="44" x="381" y="1573.8164">not yet</text><rect fill="#F4F4F5" height="33.9688" rx="12.5" ry="12.5" style="stroke: #3F3F46; stroke-width: 1.5;" width="120" x="171" y="1621.2852"/><text fill="#000000" font-family="Inter, Helvetica, Arial, sans-serif" font-size="12" lengthAdjust="spacingAndGlyphs" textLength="44" x="181" y="1642.4238">Record</text><text fill="#000000" font-family="Inter, Helvetica, Arial, sans-serif" font-size="12" font-weight="bold" lengthAdjust="spacingAndGlyphs" textLength="52" x="229" y="1642.4238">hole_xy</text><rect fill="#FFFFFF" height="175.9375" rx="3" ry="3" style="stroke: #000000; stroke-width: 2.0;" width="360" x="63" y="1685.584"/><path d="M255,1686.584 L255,1692.5527 L245,1702.5527 L63,1702.5527 " fill="none" style="stroke: #000000; stroke-width: 2.0;"/><text fill="#000000" font-family="Inter, Helvetica, Arial, sans-serif" font-size="12" lengthAdjust="spacingAndGlyphs" textLength="182" x="66" y="1697.7227">PUSH_INSERT  (seat the peg)</text><rect fill="#F4F4F5" height="33.9688" rx="12.5" ry="12.5" style="stroke: #3F3F46; stroke-width: 1.5;" width="316" x="73" y="1763.5527"/><text fill="#000000" font-family="Inter, Helvetica, Arial, sans-serif" font-size="12" lengthAdjust="spacingAndGlyphs" textLength="296" x="83" y="1784.6914">Press toward contact_z − insert_depth (≈4 cm)</text><polygon fill="#FFFFFF" points="231,1719.5527,243,1731.5527,231,1743.5527,219,1731.5527,231,1719.5527" style="stroke: #A80036; stroke-width: 1.5;"/><polygon fill="#FFFFFF" points="155.5,1817.5215,306.5,1817.5215,318.5,1829.5215,306.5,1841.5215,155.5,1841.5215,143.5,1829.5215,155.5,1817.5215" style="stroke: #A80036; stroke-width: 1.5;"/><text fill="#52525B" font-family="Inter, Helvetica, Arial, sans-serif" font-size="12" lengthAdjust="spacingAndGlyphs" textLength="21" x="235" y="1852.6602">yes</text><text fill="#000000" font-family="Inter, Helvetica, Arial, sans-serif" font-size="12" lengthAdjust="spacingAndGlyphs" textLength="151" x="155.5" y="1833.6758">seated at target depth?</text><text fill="#52525B" font-family="Inter, Helvetica, Arial, sans-serif" font-size="12" lengthAdjust="spacingAndGlyphs" textLength="16" x="318.5" y="1826.6914">no</text><rect fill="#FFFFFF" height="348.3906" rx="3" ry="3" style="stroke: #000000; stroke-width: 2.0;" width="316" x="85" y="1871.8516"/><path d="M149,1872.8516 L149,1878.8203 L139,1888.8203 L85,1888.8203 " fill="none" style="stroke: #000000; stroke-width: 2.0;"/><text fill="#000000" font-family="Inter, Helvetica, Arial, sans-serif" font-size="12" lengthAdjust="spacingAndGlyphs" textLength="54" x="88" y="1883.9902">CONFIRM</text><rect fill="#F4F4F5" height="33.9688" rx="12.5" ry="12.5" style="stroke: #3F3F46; stroke-width: 1.5;" width="81" x="190.5" y="1954.8047"/><text fill="#000000" font-family="Inter, Helvetica, Arial, sans-serif" font-size="12" lengthAdjust="spacingAndGlyphs" textLength="61" x="200.5" y="1975.9434">retries++</text><rect fill="#FFD9D9" height="33.9688" rx="12.5" ry="12.5" style="stroke: #3F3F46; stroke-width: 1.5;" width="232" x="115" y="2057.7578"/><text fill="#000000" font-family="Inter, Helvetica, Arial, sans-serif" font-size="12" font-weight="bold" lengthAdjust="spacingAndGlyphs" textLength="46" x="125" y="2078.8965">ERROR</text><text fill="#000000" font-family="Inter, Helvetica, Arial, sans-serif" font-size="12" lengthAdjust="spacingAndGlyphs" textLength="162" x="175" y="2078.8965">— insertion not confirmed</text><ellipse cx="231" cy="2131.2422" fill="#FFFFFF" rx="11" ry="11" style="stroke: #000000; stroke-width: 1.0;"/><ellipse cx="231" cy="2131.2422" fill="#000000" rx="6" ry="6" style="stroke: #7F7F7F; stroke-width: 1.0;"/><polygon fill="#FFFFFF" points="175,2008.7734,287,2008.7734,299,2020.7734,287,2032.7734,175,2032.7734,163,2020.7734,175,2008.7734" style="stroke: #A80036; stroke-width: 1.5;"/><text fill="#52525B" font-family="Inter, Helvetica, Arial, sans-serif" font-size="12" lengthAdjust="spacingAndGlyphs" textLength="21" x="235" y="2043.9121">yes</text><text fill="#000000" font-family="Inter, Helvetica, Arial, sans-serif" font-size="12" lengthAdjust="spacingAndGlyphs" textLength="112" x="175" y="2024.9277">retries &gt; limit (3)?</text><text fill="#52525B" font-family="Inter, Helvetica, Arial, sans-serif" font-size="12" lengthAdjust="spacingAndGlyphs" textLength="16" x="299" y="2017.9434">no</text><polygon fill="#FFFFFF" points="131,1905.8203,331,1905.8203,343,1917.8203,331,1929.8203,131,1929.8203,119,1917.8203,131,1905.8203" style="stroke: #A80036; stroke-width: 1.5;"/><text fill="#52525B" font-family="Inter, Helvetica, Arial, sans-serif" font-size="12" lengthAdjust="spacingAndGlyphs" textLength="16" x="235" y="1940.959">no</text><text fill="#000000" font-family="Inter, Helvetica, Arial, sans-serif" font-size="12" lengthAdjust="spacingAndGlyphs" textLength="200" x="131" y="1921.9746">reached ≥ 80% of insert depth?</text><text fill="#52525B" font-family="Inter, Helvetica, Arial, sans-serif" font-size="12" lengthAdjust="spacingAndGlyphs" textLength="21" x="343" y="1914.9902">yes</text><polygon fill="#FFFFFF" points="231,2184.2422,243,2196.2422,231,2208.2422,219,2196.2422,231,2184.2422" style="stroke: #A80036; stroke-width: 1.5;"/><rect fill="#F4F4F5" height="33.9688" rx="12.5" ry="12.5" style="stroke: #3F3F46; stroke-width: 1.5;" width="141" x="160.5" y="1038.0508"/><text fill="#000000" font-family="Inter, Helvetica, Arial, sans-serif" font-size="12" lengthAdjust="spacingAndGlyphs" textLength="121" x="170.5" y="1059.1895">begin seat attempt</text><polygon fill="#FFFFFF" points="167.5,2240.2422,294.5,2240.2422,306.5,2252.2422,294.5,2264.2422,167.5,2264.2422,155.5,2252.2422,167.5,2240.2422" style="stroke: #A80036; stroke-width: 1.5;"/><text fill="#52525B" font-family="Inter, Helvetica, Arial, sans-serif" font-size="12" lengthAdjust="spacingAndGlyphs" textLength="21" x="235" y="2275.3809">yes</text><text fill="#000000" font-family="Inter, Helvetica, Arial, sans-serif" font-size="12" lengthAdjust="spacingAndGlyphs" textLength="127" x="167.5" y="2256.3965">insertion confirmed?</text><text fill="#52525B" font-family="Inter, Helvetica, Arial, sans-serif" font-size="12" lengthAdjust="spacingAndGlyphs" textLength="112" x="306.5" y="2249.4121">no — retry search</text><rect fill="#FFFFFF" height="175.9375" rx="3" ry="3" style="stroke: #000000; stroke-width: 2.0;" width="317" x="84.5" y="2287.2109"/><path d="M148.5,2288.2109 L148.5,2294.1797 L138.5,2304.1797 L84.5,2304.1797 " fill="none" style="stroke: #000000; stroke-width: 2.0;"/><text fill="#000000" font-family="Inter, Helvetica, Arial, sans-serif" font-size="12" lengthAdjust="spacingAndGlyphs" textLength="54" x="87.5" y="2299.3496">RETRACT</text><rect fill="#F4F4F5" height="33.9688" rx="12.5" ry="12.5" style="stroke: #3F3F46; stroke-width: 1.5;" width="273" x="94.5" y="2365.1797"/><text fill="#000000" font-family="Inter, Helvetica, Arial, sans-serif" font-size="12" lengthAdjust="spacingAndGlyphs" textLength="253" x="104.5" y="2386.3184">Lift toward standoff (5 cm above socket)</text><polygon fill="#FFFFFF" points="231,2321.1797,243,2333.1797,231,2345.1797,219,2333.1797,231,2321.1797" style="stroke: #A80036; stroke-width: 1.5;"/><polygon fill="#FFFFFF" points="160.5,2419.1484,301.5,2419.1484,313.5,2431.1484,301.5,2443.1484,160.5,2443.1484,148.5,2431.1484,160.5,2419.1484" style="stroke: #A80036; stroke-width: 1.5;"/><text fill="#52525B" font-family="Inter, Helvetica, Arial, sans-serif" font-size="12" lengthAdjust="spacingAndGlyphs" textLength="21" x="235" y="2454.2871">yes</text><text fill="#000000" font-family="Inter, Helvetica, Arial, sans-serif" font-size="12" lengthAdjust="spacingAndGlyphs" textLength="141" x="160.5" y="2435.3027">back above contact_z?</text><text fill="#52525B" font-family="Inter, Helvetica, Arial, sans-serif" font-size="12" lengthAdjust="spacingAndGlyphs" textLength="16" x="313.5" y="2428.3184">no</text><rect fill="#D9F2D9" height="33.9688" rx="12.5" ry="12.5" style="stroke: #3F3F46; stroke-width: 1.5;" width="228" x="117" y="2483.1484"/><text fill="#000000" font-family="Inter, Helvetica, Arial, sans-serif" font-size="12" font-weight="bold" lengthAdjust="spacingAndGlyphs" textLength="39" x="127" y="2504.2871">DONE</text><text fill="#000000" font-family="Inter, Helvetica, Arial, sans-serif" font-size="12" lengthAdjust="spacingAndGlyphs" textLength="165" x="170" y="2504.2871">— peg seated &amp; retracted</text><ellipse cx="231" cy="2548.1172" fill="#FFFFFF" rx="11" ry="11" style="stroke: #000000; stroke-width: 1.0;"/><ellipse cx="231" cy="2548.1172" fill="#000000" rx="6" ry="6" style="stroke: #7F7F7F; stroke-width: 1.0;"/><line style="stroke: #18181B; stroke-width: 1.5;" x1="231" x2="231" y1="122.2363" y2="142.2363"/><polygon fill="#18181B" points="227,132.2363,231,142.2363,235,132.2363,231,136.2363" style="stroke: #18181B; stroke-width: 1.0;"/><line style="stroke: #18181B; stroke-width: 1.5;" x1="231" x2="231" y1="176.2051" y2="196.2051"/><polygon fill="#18181B" points="227,186.2051,231,196.2051,235,186.2051,231,190.2051" style="stroke: #18181B; stroke-width: 1.0;"/><line style="stroke: #18181B; stroke-width: 1.5;" x1="231" x2="231" y1="347.0957" y2="367.0957"/><polygon fill="#18181B" points="227,357.0957,231,367.0957,235,357.0957,231,361.0957" style="stroke: #18181B; stroke-width: 1.0;"/><line style="stroke: #18181B; stroke-width: 1.5;" x1="231" x2="231" y1="401.0645" y2="421.0645"/><polygon fill="#18181B" points="227,411.0645,231,421.0645,235,411.0645,231,415.0645" style="stroke: #18181B; stroke-width: 1.0;"/><line style="stroke: #18181B; stroke-width: 1.5;" x1="231" x2="231" y1="288.1426" y2="313.127"/><polygon fill="#18181B" points="227,303.127,231,313.127,235,303.127,231,307.127" style="stroke: #18181B; stroke-width: 1.0;"/><line style="stroke: #18181B; stroke-width: 1.5;" x1="337" x2="442" y1="276.1426" y2="276.1426"/><polygon fill="#18181B" points="438,374.0801,442,384.0801,446,374.0801,442,378.0801" style="stroke: #18181B; stroke-width: 1.5;"/><line style="stroke: #18181B; stroke-width: 1.5;" x1="442" x2="442" y1="276.1426" y2="487.0332"/><line style="stroke: #18181B; stroke-width: 1.5;" x1="442" x2="243" y1="487.0332" y2="487.0332"/><polygon fill="#18181B" points="253,483.0332,243,487.0332,253,491.0332,249,487.0332" style="stroke: #18181B; stroke-width: 1.0;"/><line style="stroke: #18181B; stroke-width: 1.5;" x1="231" x2="231" y1="455.0332" y2="475.0332"/><polygon fill="#18181B" points="227,465.0332,231,475.0332,235,465.0332,231,469.0332" style="stroke: #18181B; stroke-width: 1.0;"/><line style="stroke: #18181B; stroke-width: 1.5;" x1="231" x2="231" y1="244.1426" y2="264.1426"/><polygon fill="#18181B" points="227,254.1426,231,264.1426,235,254.1426,231,258.1426" style="stroke: #18181B; stroke-width: 1.0;"/><line style="stroke: #18181B; stroke-width: 1.5;" x1="231" x2="231" y1="43.9688" y2="88.2676"/><polygon fill="#18181B" points="227,78.2676,231,88.2676,235,78.2676,231,82.2676" style="stroke: #18181B; stroke-width: 1.0;"/><line style="stroke: #18181B; stroke-width: 1.5;" x1="231" x2="231" y1="633.3008" y2="659.2539"/><polygon fill="#18181B" points="227,649.2539,231,659.2539,235,649.2539,231,653.2539" style="stroke: #18181B; stroke-width: 1.0;"/><line style="stroke: #18181B; stroke-width: 1.5;" x1="330" x2="645.5" y1="741.1758" y2="741.1758"/><polygon fill="#18181B" points="641.5,686.2383,645.5,676.2383,649.5,686.2383,645.5,682.2383" style="stroke: #18181B; stroke-width: 1.5;"/><line style="stroke: #18181B; stroke-width: 1.5;" x1="645.5" x2="645.5" y1="621.3008" y2="741.1758"/><line style="stroke: #18181B; stroke-width: 1.5;" x1="645.5" x2="243" y1="621.3008" y2="621.3008"/><polygon fill="#18181B" points="253,617.3008,243,621.3008,253,625.3008,249,621.3008" style="stroke: #18181B; stroke-width: 1.0;"/><line style="stroke: #18181B; stroke-width: 1.5;" x1="231" x2="231" y1="693.2227" y2="729.1758"/><polygon fill="#18181B" points="227,719.1758,231,729.1758,235,719.1758,231,723.1758" style="stroke: #18181B; stroke-width: 1.0;"/><line style="stroke: #18181B; stroke-width: 1.5;" x1="231" x2="231" y1="589.3008" y2="609.3008"/><polygon fill="#18181B" points="227,599.3008,231,609.3008,235,599.3008,231,603.3008" style="stroke: #18181B; stroke-width: 1.0;"/><line style="stroke: #18181B; stroke-width: 1.5;" x1="231" x2="231" y1="499.0332" y2="555.332"/><polygon fill="#18181B" points="227,545.332,231,555.332,235,545.332,231,549.332" style="stroke: #18181B; stroke-width: 1.0;"/><line style="stroke: #18181B; stroke-width: 1.5;" x1="231" x2="231" y1="841.4746" y2="861.4746"/><polygon fill="#18181B" points="227,851.4746,231,861.4746,235,851.4746,231,855.4746" style="stroke: #18181B; stroke-width: 1.0;"/><line style="stroke: #18181B; stroke-width: 1.5;" x1="374" x2="386" y1="927.4434" y2="927.4434"/><polygon fill="#18181B" points="382,888.459,386,878.459,390,888.459,386,884.459" style="stroke: #18181B; stroke-width: 1.5;"/><line style="stroke: #18181B; stroke-width: 1.5;" x1="386" x2="386" y1="829.4746" y2="927.4434"/><line style="stroke: #18181B; stroke-width: 1.5;" x1="386" x2="243" y1="829.4746" y2="829.4746"/><polygon fill="#18181B" points="253,825.4746,243,829.4746,253,833.4746,249,829.4746" style="stroke: #18181B; stroke-width: 1.0;"/><line style="stroke: #18181B; stroke-width: 1.5;" x1="231" x2="231" y1="895.4434" y2="915.4434"/><polygon fill="#18181B" points="227,905.4434,231,915.4434,235,905.4434,231,909.4434" style="stroke: #18181B; stroke-width: 1.0;"/><line style="stroke: #18181B; stroke-width: 1.5;" x1="231" x2="231" y1="939.4434" y2="972.082"/><polygon fill="#18181B" points="227,962.082,231,972.082,235,962.082,231,966.082" style="stroke: #18181B; stroke-width: 1.0;"/><line style="stroke: #18181B; stroke-width: 1.5;" x1="231" x2="231" y1="753.1758" y2="817.4746"/><polygon fill="#18181B" points="227,807.4746,231,817.4746,235,807.4746,231,811.4746" style="stroke: #18181B; stroke-width: 1.0;"/><line style="stroke: #18181B; stroke-width: 1.5;" x1="231" x2="231" y1="1428.1309" y2="1456.6465"/><polygon fill="#18181B" points="227,1446.6465,231,1456.6465,235,1446.6465,231,1450.6465" style="stroke: #18181B; stroke-width: 1.0;"/><line style="stroke: #18181B; stroke-width: 1.5;" x1="231" x2="231" y1="1369.1777" y2="1394.1621"/><polygon fill="#18181B" points="227,1384.1621,231,1394.1621,235,1384.1621,231,1388.1621" style="stroke: #18181B; stroke-width: 1.0;"/><line style="stroke: #18181B; stroke-width: 1.5;" x1="299" x2="340.5" y1="1357.1777" y2="1357.1777"/><polygon fill="#18181B" points="336.5,1426.6465,340.5,1436.6465,344.5,1426.6465,340.5,1430.6465" style="stroke: #18181B; stroke-width: 1.5;"/><line style="stroke: #18181B; stroke-width: 1.5;" x1="340.5" x2="340.5" y1="1357.1777" y2="1500.6465"/><line style="stroke: #18181B; stroke-width: 1.5;" x1="340.5" x2="231" y1="1500.6465" y2="1500.6465"/><line style="stroke: #18181B; stroke-width: 1.5;" x1="231" x2="231" y1="1500.6465" y2="1520.6465"/><polygon fill="#18181B" points="227,1510.6465,231,1520.6465,235,1510.6465,231,1514.6465" style="stroke: #18181B; stroke-width: 1.0;"/><line style="stroke: #18181B; stroke-width: 1.5;" x1="231" x2="231" y1="1325.1777" y2="1345.1777"/><polygon fill="#18181B" points="227,1335.1777,231,1345.1777,235,1335.1777,231,1339.1777" style="stroke: #18181B; stroke-width: 1.0;"/><line style="stroke: #18181B; stroke-width: 1.5;" x1="231" x2="231" y1="1252.2559" y2="1277.2402"/><polygon fill="#18181B" points="227,1267.2402,231,1277.2402,235,1267.2402,231,1271.2402" style="stroke: #18181B; stroke-width: 1.0;"/><line style="stroke: #18181B; stroke-width: 1.5;" x1="334" x2="362.5" y1="1240.2559" y2="1240.2559"/><polygon fill="#18181B" points="358.5,1379.1777,362.5,1389.1777,366.5,1379.1777,362.5,1383.1777" style="stroke: #18181B; stroke-width: 1.5;"/><line style="stroke: #18181B; stroke-width: 1.5;" x1="362.5" x2="362.5" y1="1240.2559" y2="1532.6465"/><line style="stroke: #18181B; stroke-width: 1.5;" x1="362.5" x2="243" y1="1532.6465" y2="1532.6465"/><polygon fill="#18181B" points="253,1528.6465,243,1532.6465,253,1536.6465,249,1532.6465" style="stroke: #18181B; stroke-width: 1.0;"/><line style="stroke: #18181B; stroke-width: 1.5;" x1="231" x2="231" y1="1208.2559" y2="1228.2559"/><polygon fill="#18181B" points="227,1218.2559,231,1228.2559,235,1218.2559,231,1222.2559" style="stroke: #18181B; stroke-width: 1.0;"/><line style="stroke: #18181B; stroke-width: 1.5;" x1="231" x2="231" y1="1140.3184" y2="1160.3184"/><polygon fill="#18181B" points="227,1150.3184,231,1160.3184,235,1150.3184,231,1154.3184" style="stroke: #18181B; stroke-width: 1.0;"/><line style="stroke: #18181B; stroke-width: 1.5;" x1="381" x2="393" y1="1576.6465" y2="1576.6465"/><polygon fill="#18181B" points="389,1357.709,393,1347.709,397,1357.709,393,1353.709" style="stroke: #18181B; stroke-width: 1.5;"/><line style="stroke: #18181B; stroke-width: 1.5;" x1="393" x2="393" y1="1128.3184" y2="1576.6465"/><line style="stroke: #18181B; stroke-width: 1.5;" x1="393" x2="243" y1="1128.3184" y2="1128.3184"/><polygon fill="#18181B" points="253,1124.3184,243,1128.3184,253,1132.3184,249,1128.3184" style="stroke: #18181B; stroke-width: 1.0;"/><line style="stroke: #18181B; stroke-width: 1.5;" x1="231" x2="231" y1="1544.6465" y2="1564.6465"/><polygon fill="#18181B" points="227,1554.6465,231,1564.6465,235,1554.6465,231,1558.6465" style="stroke: #18181B; stroke-width: 1.0;"/><line style="stroke: #18181B; stroke-width: 1.5;" x1="231" x2="231" y1="1588.6465" y2="1621.2852"/><polygon fill="#18181B" points="227,1611.2852,231,1621.2852,235,1611.2852,231,1615.2852" style="stroke: #18181B; stroke-width: 1.0;"/><line style="stroke: #18181B; stroke-width: 1.5;" x1="231" x2="231" y1="1743.5527" y2="1763.5527"/><polygon fill="#18181B" points="227,1753.5527,231,1763.5527,235,1753.5527,231,1757.5527" style="stroke: #18181B; stroke-width: 1.0;"/><line style="stroke: #18181B; stroke-width: 1.5;" x1="318.5" x2="401" y1="1829.5215" y2="1829.5215"/><polygon fill="#18181B" points="397,1790.5371,401,1780.5371,405,1790.5371,401,1786.5371" style="stroke: #18181B; stroke-width: 1.5;"/><line style="stroke: #18181B; stroke-width: 1.5;" x1="401" x2="401" y1="1731.5527" y2="1829.5215"/><line style="stroke: #18181B; stroke-width: 1.5;" x1="401" x2="243" y1="1731.5527" y2="1731.5527"/><polygon fill="#18181B" points="253,1727.5527,243,1731.5527,253,1735.5527,249,1731.5527" style="stroke: #18181B; stroke-width: 1.0;"/><line style="stroke: #18181B; stroke-width: 1.5;" x1="231" x2="231" y1="1797.5215" y2="1817.5215"/><polygon fill="#18181B" points="227,1807.5215,231,1817.5215,235,1807.5215,231,1811.5215" style="stroke: #18181B; stroke-width: 1.0;"/><line style="stroke: #18181B; stroke-width: 1.5;" x1="231" x2="231" y1="1655.2539" y2="1719.5527"/><polygon fill="#18181B" points="227,1709.5527,231,1719.5527,235,1709.5527,231,1713.5527" style="stroke: #18181B; stroke-width: 1.0;"/><line style="stroke: #18181B; stroke-width: 1.5;" x1="231" x2="231" y1="2091.7266" y2="2120.2422"/><polygon fill="#18181B" points="227,2110.2422,231,2120.2422,235,2110.2422,231,2114.2422" style="stroke: #18181B; stroke-width: 1.0;"/><line style="stroke: #18181B; stroke-width: 1.5;" x1="231" x2="231" y1="2032.7734" y2="2057.7578"/><polygon fill="#18181B" points="227,2047.7578,231,2057.7578,235,2047.7578,231,2051.7578" style="stroke: #18181B; stroke-width: 1.0;"/><line style="stroke: #18181B; stroke-width: 1.5;" x1="299" x2="357" y1="2020.7734" y2="2020.7734"/><polygon fill="#18181B" points="353,2090.2422,357,2100.2422,361,2090.2422,357,2094.2422" style="stroke: #18181B; stroke-width: 1.5;"/><line style="stroke: #18181B; stroke-width: 1.5;" x1="357" x2="357" y1="2020.7734" y2="2164.2422"/><line style="stroke: #18181B; stroke-width: 1.5;" x1="357" x2="231" y1="2164.2422" y2="2164.2422"/><line style="stroke: #18181B; stroke-width: 1.5;" x1="231" x2="231" y1="2164.2422" y2="2184.2422"/><polygon fill="#18181B" points="227,2174.2422,231,2184.2422,235,2174.2422,231,2178.2422" style="stroke: #18181B; stroke-width: 1.0;"/><line style="stroke: #18181B; stroke-width: 1.5;" x1="231" x2="231" y1="1988.7734" y2="2008.7734"/><polygon fill="#18181B" points="227,1998.7734,231,2008.7734,235,1998.7734,231,2002.7734" style="stroke: #18181B; stroke-width: 1.0;"/><line style="stroke: #18181B; stroke-width: 1.5;" x1="231" x2="231" y1="1929.8203" y2="1954.8047"/><polygon fill="#18181B" points="227,1944.8047,231,1954.8047,235,1944.8047,231,1948.8047" style="stroke: #18181B; stroke-width: 1.0;"/><line style="stroke: #18181B; stroke-width: 1.5;" x1="343" x2="379" y1="1917.8203" y2="1917.8203"/><polygon fill="#18181B" points="375,2049.7578,379,2059.7578,383,2049.7578,379,2053.7578" style="stroke: #18181B; stroke-width: 1.5;"/><line style="stroke: #18181B; stroke-width: 1.5;" x1="379" x2="379" y1="1917.8203" y2="2196.2422"/><line style="stroke: #18181B; stroke-width: 1.5;" x1="379" x2="243" y1="2196.2422" y2="2196.2422"/><polygon fill="#18181B" points="253,2192.2422,243,2196.2422,253,2200.2422,249,2196.2422" style="stroke: #18181B; stroke-width: 1.0;"/><line style="stroke: #18181B; stroke-width: 1.5;" x1="231" x2="231" y1="1841.5215" y2="1905.8203"/><polygon fill="#18181B" points="227,1895.8203,231,1905.8203,235,1895.8203,231,1899.8203" style="stroke: #18181B; stroke-width: 1.0;"/><line style="stroke: #18181B; stroke-width: 1.5;" x1="231" x2="231" y1="1072.0195" y2="1116.3184"/><polygon fill="#18181B" points="227,1106.3184,231,1116.3184,235,1106.3184,231,1110.3184" style="stroke: #18181B; stroke-width: 1.0;"/><line style="stroke: #18181B; stroke-width: 1.5;" x1="306.5" x2="442" y1="2252.2422" y2="2252.2422"/><polygon fill="#18181B" points="438,1675.2539,442,1665.2539,446,1675.2539,442,1671.2539" style="stroke: #18181B; stroke-width: 1.5;"/><line style="stroke: #18181B; stroke-width: 1.5;" x1="442" x2="442" y1="1055.0352" y2="2252.2422"/><line style="stroke: #18181B; stroke-width: 1.5;" x1="442" x2="301.5" y1="1055.0352" y2="1055.0352"/><polygon fill="#18181B" points="311.5,1051.0352,301.5,1055.0352,311.5,1059.0352,307.5,1055.0352" style="stroke: #18181B; stroke-width: 1.0;"/><line style="stroke: #18181B; stroke-width: 1.5;" x1="231" x2="231" y1="2208.2422" y2="2240.2422"/><polygon fill="#18181B" points="227,2230.2422,231,2240.2422,235,2230.2422,231,2234.2422" style="stroke: #18181B; stroke-width: 1.0;"/><line style="stroke: #18181B; stroke-width: 1.5;" x1="231" x2="231" y1="1006.0508" y2="1038.0508"/><polygon fill="#18181B" points="227,1028.0508,231,1038.0508,235,1028.0508,231,1032.0508" style="stroke: #18181B; stroke-width: 1.0;"/><line style="stroke: #18181B; stroke-width: 1.5;" x1="231" x2="231" y1="2345.1797" y2="2365.1797"/><polygon fill="#18181B" points="227,2355.1797,231,2365.1797,235,2355.1797,231,2359.1797" style="stroke: #18181B; stroke-width: 1.0;"/><line style="stroke: #18181B; stroke-width: 1.5;" x1="313.5" x2="379.5" y1="2431.1484" y2="2431.1484"/><polygon fill="#18181B" points="375.5,2392.1641,379.5,2382.1641,383.5,2392.1641,379.5,2388.1641" style="stroke: #18181B; stroke-width: 1.5;"/><line style="stroke: #18181B; stroke-width: 1.5;" x1="379.5" x2="379.5" y1="2333.1797" y2="2431.1484"/><line style="stroke: #18181B; stroke-width: 1.5;" x1="379.5" x2="243" y1="2333.1797" y2="2333.1797"/><polygon fill="#18181B" points="253,2329.1797,243,2333.1797,253,2337.1797,249,2333.1797" style="stroke: #18181B; stroke-width: 1.0;"/><line style="stroke: #18181B; stroke-width: 1.5;" x1="231" x2="231" y1="2399.1484" y2="2419.1484"/><polygon fill="#18181B" points="227,2409.1484,231,2419.1484,235,2409.1484,231,2413.1484" style="stroke: #18181B; stroke-width: 1.0;"/><line style="stroke: #18181B; stroke-width: 1.5;" x1="231" x2="231" y1="2264.2422" y2="2321.1797"/><polygon fill="#18181B" points="227,2311.1797,231,2321.1797,235,2311.1797,231,2315.1797" style="stroke: #18181B; stroke-width: 1.0;"/><line style="stroke: #18181B; stroke-width: 1.5;" x1="231" x2="231" y1="2443.1484" y2="2483.1484"/><polygon fill="#18181B" points="227,2473.1484,231,2483.1484,235,2473.1484,231,2477.1484" style="stroke: #18181B; stroke-width: 1.0;"/><line style="stroke: #18181B; stroke-width: 1.5;" x1="231" x2="231" y1="2517.1172" y2="2537.1172"/><polygon fill="#18181B" points="227,2527.1172,231,2537.1172,235,2527.1172,231,2531.1172" style="stroke: #18181B; stroke-width: 1.0;"/><rect fill="#DDDDDD" height="51.9063" rx="5" ry="5" style="stroke: #000000; stroke-width: 1.0;" width="466" x="108.25" y="2566.1172"/><text fill="#000000" font-family="Inter, Helvetica, Arial, sans-serif" font-size="12" lengthAdjust="spacingAndGlyphs" textLength="244" x="114.25" y="2582.2559">Every commanded setpoint passes the</text><text fill="#000000" font-family="Inter, Helvetica, Arial, sans-serif" font-size="12" font-weight="bold" lengthAdjust="spacingAndGlyphs" textLength="114" x="362.25" y="2582.2559">Safety Envelope</text><text fill="#000000" font-family="Inter, Helvetica, Arial, sans-serif" font-size="12" lengthAdjust="spacingAndGlyphs" textLength="28" x="480.25" y="2582.2559">first:</text><text fill="#000000" font-family="Inter, Helvetica, Arial, sans-serif" font-size="12" lengthAdjust="spacingAndGlyphs" textLength="454" x="114.25" y="2596.2246">workspace AABB clamp → per-cycle step clamp → force abort (Fz/F caps).</text><text fill="#000000" font-family="Inter, Helvetica, Arial, sans-serif" font-size="12" lengthAdjust="spacingAndGlyphs" textLength="424" x="114.25" y="2610.1934">A force-cap breach aborts the run and holds position at any phase.</text><!--MD5=[6e1d00cbb91dab3a91f88e7e9307c23f]
@startuml peg_in_hole_workflow
skinparam backgroundColor #FFFFFF
skinparam shadowing false
skinparam roundCorner 6
skinparam defaultFontName "Inter, Helvetica, Arial, sans-serif"
skinparam defaultFontSize 12
skinparam ArrowColor #18181B
skinparam ArrowFontColor #52525B
skinparam ActivityBorderColor #3F3F46
skinparam ActivityBackgroundColor #F4F4F5
skinparam ActivityDiamondBackgroundColor #FFFFFF

title Robo67 — Peg-in-Hole Insertion Workflow (Vision + Force)

start

partition "Perceive socket (vision)" {
  :Grab overhead **C920** frame;
  :**detect_holes()** → best dark circle pixel (u, v);
  :**HomographyMappingAdapter** →\nsocket centre XY in robot base frame;
  note right
    Socket-top **Z** is taught / force-probed,
    not recovered from one overhead camera.
  end note
  if (D405 eye-in-hand refinement?) then (yes)
    :Detect hole in **D405** image;
    :**PinholeMappingAdapter** → unscaled XY correction (dx, dy);
    :Apply servo gain → refine socket XY;
  else (no)
  endif
}

partition "MOVE_ABOVE  (free-space approach)" {
  :Servo toward socket XY at standoff (≈5 cm above top);
  repeat
    :Step toward standoff pose;
  repeat while (within approach tol (3 mm)?) is (no) not (yes)
}

note right
  **Force baseline** (ContactLifecycleModule):
  EMA tracks Fz ONLY in free space
  (IDLE / MOVE_ABOVE), then FROZEN for
  every contact phase as the reference.
end note

partition "DESCEND_TO_CONTACT  (find the surface)" {
  repeat
    :Lower equilibrium one step, read Fz;
  repeat while (|Fz − baseline| ≥ contact threshold (5 N)?) is (not yet) not (contact!)
  :Record **contact_z** = socket-top height;
}

repeat :begin seat attempt;

  partition "SEARCH_SPIRAL  (locate the hole)" {
    repeat
      :Follow **Archimedean spiral** (pitch 2 mm)\nwhile pressing gently below contact plane;
      if (spiral radius > max (12 mm)?) then (yes, exhausted)
        :Restart spiral from centre;\nretries++;
        if (retries > limit (3)?) then (yes)
          #FFD9D9:**ERROR** — search exhausted;
          stop
        endif
      else (no)
      endif
    repeat while (peg dropped in?  (ee_z < contact_z − 4 mm)) is (not yet) not (dropped in!)
    :Record **hole_xy**;
  }

  partition "PUSH_INSERT  (seat the peg)" {
    repeat
      :Press toward contact_z − insert_depth (≈4 cm);
    repeat while (seated at target depth?) is (no) not (yes)
  }

  partition "CONFIRM" {
    if (reached ≥ 80% of insert depth?) then (no)
      :retries++;
      if (retries > limit (3)?) then (yes)
        #FFD9D9:**ERROR** — insertion not confirmed;
        stop
      else (no)
      endif
    else (yes)
    endif
  }

repeat while (insertion confirmed?) is (no — retry search) not (yes)

partition "RETRACT" {
  repeat
    :Lift toward standoff (5 cm above socket);
  repeat while (back above contact_z?) is (no) not (yes)
}

#D9F2D9:**DONE** — peg seated & retracted;
stop

legend bottom
  Every commanded setpoint passes the **Safety Envelope** first:
  workspace AABB clamp → per-cycle step clamp → force abort (Fz/F caps).
  A force-cap breach aborts the run and holds position at any phase.
endlegend

@enduml

PlantUML version 1.2020.02(Sun Mar 01 11:22:07 CET 2020)
(GPL source distribution)
Java Runtime: OpenJDK Runtime Environment
JVM: OpenJDK 64-Bit Server VM
Java Version: 11.0.31+11-post-1ubuntu1-22.04.2-Ubuntu
Operating System: Linux
Default Encoding: UTF-8
Language: en
Country: US
--></g></svg>